G04 #@! TF.GenerationSoftware,KiCad,Pcbnew,(6.0.8)*
G04 #@! TF.CreationDate,2023-12-02T01:29:22+01:00*
G04 #@! TF.ProjectId,lamp_devboard,6c616d70-5f64-4657-9662-6f6172642e6b,rev?*
G04 #@! TF.SameCoordinates,Original*
G04 #@! TF.FileFunction,Legend,Bot*
G04 #@! TF.FilePolarity,Positive*
%FSLAX46Y46*%
G04 Gerber Fmt 4.6, Leading zero omitted, Abs format (unit mm)*
G04 Created by KiCad (PCBNEW (6.0.8)) date 2023-12-02 01:29:22*
%MOMM*%
%LPD*%
G01*
G04 APERTURE LIST*
G04 Aperture macros list*
%AMRoundRect*
0 Rectangle with rounded corners*
0 $1 Rounding radius*
0 $2 $3 $4 $5 $6 $7 $8 $9 X,Y pos of 4 corners*
0 Add a 4 corners polygon primitive as box body*
4,1,4,$2,$3,$4,$5,$6,$7,$8,$9,$2,$3,0*
0 Add four circle primitives for the rounded corners*
1,1,$1+$1,$2,$3*
1,1,$1+$1,$4,$5*
1,1,$1+$1,$6,$7*
1,1,$1+$1,$8,$9*
0 Add four rect primitives between the rounded corners*
20,1,$1+$1,$2,$3,$4,$5,0*
20,1,$1+$1,$4,$5,$6,$7,0*
20,1,$1+$1,$6,$7,$8,$9,0*
20,1,$1+$1,$8,$9,$2,$3,0*%
G04 Aperture macros list end*
%ADD10C,0.150000*%
%ADD11C,0.120000*%
%ADD12R,1.700000X1.700000*%
%ADD13O,1.700000X1.700000*%
%ADD14RoundRect,0.250000X-0.845000X0.620000X-0.845000X-0.620000X0.845000X-0.620000X0.845000X0.620000X0*%
%ADD15O,2.190000X1.740000*%
%ADD16O,1.154000X2.254000*%
%ADD17C,0.600000*%
%ADD18RoundRect,0.237500X0.250000X0.237500X-0.250000X0.237500X-0.250000X-0.237500X0.250000X-0.237500X0*%
%ADD19RoundRect,0.237500X0.237500X-0.250000X0.237500X0.250000X-0.237500X0.250000X-0.237500X-0.250000X0*%
%ADD20RoundRect,0.237500X0.237500X-0.300000X0.237500X0.300000X-0.237500X0.300000X-0.237500X-0.300000X0*%
%ADD21RoundRect,0.237500X-0.250000X-0.237500X0.250000X-0.237500X0.250000X0.237500X-0.250000X0.237500X0*%
%ADD22R,2.300000X2.500000*%
%ADD23R,1.500000X1.000000*%
%ADD24RoundRect,0.150000X-0.150000X0.512500X-0.150000X-0.512500X0.150000X-0.512500X0.150000X0.512500X0*%
%ADD25R,0.900000X1.000000*%
%ADD26R,0.750000X2.100000*%
G04 APERTURE END LIST*
D10*
X59682380Y-71104761D02*
X59206190Y-70771428D01*
X59682380Y-70533333D02*
X58682380Y-70533333D01*
X58682380Y-70914285D01*
X58730000Y-71009523D01*
X58777619Y-71057142D01*
X58872857Y-71104761D01*
X59015714Y-71104761D01*
X59110952Y-71057142D01*
X59158571Y-71009523D01*
X59206190Y-70914285D01*
X59206190Y-70533333D01*
X59682380Y-72057142D02*
X59682380Y-71485714D01*
X59682380Y-71771428D02*
X58682380Y-71771428D01*
X58825238Y-71676190D01*
X58920476Y-71580952D01*
X58968095Y-71485714D01*
X58682380Y-72676190D02*
X58682380Y-72771428D01*
X58730000Y-72866666D01*
X58777619Y-72914285D01*
X58872857Y-72961904D01*
X59063333Y-73009523D01*
X59301428Y-73009523D01*
X59491904Y-72961904D01*
X59587142Y-72914285D01*
X59634761Y-72866666D01*
X59682380Y-72771428D01*
X59682380Y-72676190D01*
X59634761Y-72580952D01*
X59587142Y-72533333D01*
X59491904Y-72485714D01*
X59301428Y-72438095D01*
X59063333Y-72438095D01*
X58872857Y-72485714D01*
X58777619Y-72533333D01*
X58730000Y-72580952D01*
X58682380Y-72676190D01*
X58682380Y-73628571D02*
X58682380Y-73723809D01*
X58730000Y-73819047D01*
X58777619Y-73866666D01*
X58872857Y-73914285D01*
X59063333Y-73961904D01*
X59301428Y-73961904D01*
X59491904Y-73914285D01*
X59587142Y-73866666D01*
X59634761Y-73819047D01*
X59682380Y-73723809D01*
X59682380Y-73628571D01*
X59634761Y-73533333D01*
X59587142Y-73485714D01*
X59491904Y-73438095D01*
X59301428Y-73390476D01*
X59063333Y-73390476D01*
X58872857Y-73438095D01*
X58777619Y-73485714D01*
X58730000Y-73533333D01*
X58682380Y-73628571D01*
X59682380Y-74914285D02*
X59682380Y-74342857D01*
X59682380Y-74628571D02*
X58682380Y-74628571D01*
X58825238Y-74533333D01*
X58920476Y-74438095D01*
X58968095Y-74342857D01*
X85685714Y-103032380D02*
X85685714Y-103746666D01*
X85733333Y-103889523D01*
X85828571Y-103984761D01*
X85971428Y-104032380D01*
X86066666Y-104032380D01*
X85161904Y-104032380D02*
X84971428Y-104032380D01*
X84876190Y-103984761D01*
X84828571Y-103937142D01*
X84733333Y-103794285D01*
X84685714Y-103603809D01*
X84685714Y-103222857D01*
X84733333Y-103127619D01*
X84780952Y-103080000D01*
X84876190Y-103032380D01*
X85066666Y-103032380D01*
X85161904Y-103080000D01*
X85209523Y-103127619D01*
X85257142Y-103222857D01*
X85257142Y-103460952D01*
X85209523Y-103556190D01*
X85161904Y-103603809D01*
X85066666Y-103651428D01*
X84876190Y-103651428D01*
X84780952Y-103603809D01*
X84733333Y-103556190D01*
X84685714Y-103460952D01*
X84066666Y-103032380D02*
X83971428Y-103032380D01*
X83876190Y-103080000D01*
X83828571Y-103127619D01*
X83780952Y-103222857D01*
X83733333Y-103413333D01*
X83733333Y-103651428D01*
X83780952Y-103841904D01*
X83828571Y-103937142D01*
X83876190Y-103984761D01*
X83971428Y-104032380D01*
X84066666Y-104032380D01*
X84161904Y-103984761D01*
X84209523Y-103937142D01*
X84257142Y-103841904D01*
X84304761Y-103651428D01*
X84304761Y-103413333D01*
X84257142Y-103222857D01*
X84209523Y-103127619D01*
X84161904Y-103080000D01*
X84066666Y-103032380D01*
X82828571Y-103032380D02*
X83304761Y-103032380D01*
X83352380Y-103508571D01*
X83304761Y-103460952D01*
X83209523Y-103413333D01*
X82971428Y-103413333D01*
X82876190Y-103460952D01*
X82828571Y-103508571D01*
X82780952Y-103603809D01*
X82780952Y-103841904D01*
X82828571Y-103937142D01*
X82876190Y-103984761D01*
X82971428Y-104032380D01*
X83209523Y-104032380D01*
X83304761Y-103984761D01*
X83352380Y-103937142D01*
X46287142Y-113804761D02*
X46334761Y-113757142D01*
X46382380Y-113614285D01*
X46382380Y-113519047D01*
X46334761Y-113376190D01*
X46239523Y-113280952D01*
X46144285Y-113233333D01*
X45953809Y-113185714D01*
X45810952Y-113185714D01*
X45620476Y-113233333D01*
X45525238Y-113280952D01*
X45430000Y-113376190D01*
X45382380Y-113519047D01*
X45382380Y-113614285D01*
X45430000Y-113757142D01*
X45477619Y-113804761D01*
X46382380Y-114757142D02*
X46382380Y-114185714D01*
X46382380Y-114471428D02*
X45382380Y-114471428D01*
X45525238Y-114376190D01*
X45620476Y-114280952D01*
X45668095Y-114185714D01*
X45382380Y-115376190D02*
X45382380Y-115471428D01*
X45430000Y-115566666D01*
X45477619Y-115614285D01*
X45572857Y-115661904D01*
X45763333Y-115709523D01*
X46001428Y-115709523D01*
X46191904Y-115661904D01*
X46287142Y-115614285D01*
X46334761Y-115566666D01*
X46382380Y-115471428D01*
X46382380Y-115376190D01*
X46334761Y-115280952D01*
X46287142Y-115233333D01*
X46191904Y-115185714D01*
X46001428Y-115138095D01*
X45763333Y-115138095D01*
X45572857Y-115185714D01*
X45477619Y-115233333D01*
X45430000Y-115280952D01*
X45382380Y-115376190D01*
X45382380Y-116328571D02*
X45382380Y-116423809D01*
X45430000Y-116519047D01*
X45477619Y-116566666D01*
X45572857Y-116614285D01*
X45763333Y-116661904D01*
X46001428Y-116661904D01*
X46191904Y-116614285D01*
X46287142Y-116566666D01*
X46334761Y-116519047D01*
X46382380Y-116423809D01*
X46382380Y-116328571D01*
X46334761Y-116233333D01*
X46287142Y-116185714D01*
X46191904Y-116138095D01*
X46001428Y-116090476D01*
X45763333Y-116090476D01*
X45572857Y-116138095D01*
X45477619Y-116185714D01*
X45430000Y-116233333D01*
X45382380Y-116328571D01*
X45477619Y-117042857D02*
X45430000Y-117090476D01*
X45382380Y-117185714D01*
X45382380Y-117423809D01*
X45430000Y-117519047D01*
X45477619Y-117566666D01*
X45572857Y-117614285D01*
X45668095Y-117614285D01*
X45810952Y-117566666D01*
X46382380Y-116995238D01*
X46382380Y-117614285D01*
X67352380Y-106635714D02*
X68161904Y-106635714D01*
X68257142Y-106683333D01*
X68304761Y-106730952D01*
X68352380Y-106826190D01*
X68352380Y-107016666D01*
X68304761Y-107111904D01*
X68257142Y-107159523D01*
X68161904Y-107207142D01*
X67352380Y-107207142D01*
X67447619Y-107635714D02*
X67400000Y-107683333D01*
X67352380Y-107778571D01*
X67352380Y-108016666D01*
X67400000Y-108111904D01*
X67447619Y-108159523D01*
X67542857Y-108207142D01*
X67638095Y-108207142D01*
X67780952Y-108159523D01*
X68352380Y-107588095D01*
X68352380Y-108207142D01*
X67352380Y-108826190D02*
X67352380Y-108921428D01*
X67400000Y-109016666D01*
X67447619Y-109064285D01*
X67542857Y-109111904D01*
X67733333Y-109159523D01*
X67971428Y-109159523D01*
X68161904Y-109111904D01*
X68257142Y-109064285D01*
X68304761Y-109016666D01*
X68352380Y-108921428D01*
X68352380Y-108826190D01*
X68304761Y-108730952D01*
X68257142Y-108683333D01*
X68161904Y-108635714D01*
X67971428Y-108588095D01*
X67733333Y-108588095D01*
X67542857Y-108635714D01*
X67447619Y-108683333D01*
X67400000Y-108730952D01*
X67352380Y-108826190D01*
X67352380Y-109492857D02*
X67352380Y-110159523D01*
X68352380Y-109730952D01*
X62661904Y-80054761D02*
X62519047Y-80102380D01*
X62280952Y-80102380D01*
X62185714Y-80054761D01*
X62138095Y-80007142D01*
X62090476Y-79911904D01*
X62090476Y-79816666D01*
X62138095Y-79721428D01*
X62185714Y-79673809D01*
X62280952Y-79626190D01*
X62471428Y-79578571D01*
X62566666Y-79530952D01*
X62614285Y-79483333D01*
X62661904Y-79388095D01*
X62661904Y-79292857D01*
X62614285Y-79197619D01*
X62566666Y-79150000D01*
X62471428Y-79102380D01*
X62233333Y-79102380D01*
X62090476Y-79150000D01*
X61757142Y-79102380D02*
X61519047Y-80102380D01*
X61328571Y-79388095D01*
X61138095Y-80102380D01*
X60900000Y-79102380D01*
X59995238Y-80102380D02*
X60566666Y-80102380D01*
X60280952Y-80102380D02*
X60280952Y-79102380D01*
X60376190Y-79245238D01*
X60471428Y-79340476D01*
X60566666Y-79388095D01*
X59376190Y-79102380D02*
X59280952Y-79102380D01*
X59185714Y-79150000D01*
X59138095Y-79197619D01*
X59090476Y-79292857D01*
X59042857Y-79483333D01*
X59042857Y-79721428D01*
X59090476Y-79911904D01*
X59138095Y-80007142D01*
X59185714Y-80054761D01*
X59280952Y-80102380D01*
X59376190Y-80102380D01*
X59471428Y-80054761D01*
X59519047Y-80007142D01*
X59566666Y-79911904D01*
X59614285Y-79721428D01*
X59614285Y-79483333D01*
X59566666Y-79292857D01*
X59519047Y-79197619D01*
X59471428Y-79150000D01*
X59376190Y-79102380D01*
X58423809Y-79102380D02*
X58328571Y-79102380D01*
X58233333Y-79150000D01*
X58185714Y-79197619D01*
X58138095Y-79292857D01*
X58090476Y-79483333D01*
X58090476Y-79721428D01*
X58138095Y-79911904D01*
X58185714Y-80007142D01*
X58233333Y-80054761D01*
X58328571Y-80102380D01*
X58423809Y-80102380D01*
X58519047Y-80054761D01*
X58566666Y-80007142D01*
X58614285Y-79911904D01*
X58661904Y-79721428D01*
X58661904Y-79483333D01*
X58614285Y-79292857D01*
X58566666Y-79197619D01*
X58519047Y-79150000D01*
X58423809Y-79102380D01*
X57138095Y-80102380D02*
X57709523Y-80102380D01*
X57423809Y-80102380D02*
X57423809Y-79102380D01*
X57519047Y-79245238D01*
X57614285Y-79340476D01*
X57709523Y-79388095D01*
D11*
X54354724Y-84777500D02*
X53845276Y-84777500D01*
X54354724Y-85822500D02*
X53845276Y-85822500D01*
X57277500Y-72954724D02*
X57277500Y-72445276D01*
X58322500Y-72954724D02*
X58322500Y-72445276D01*
X54354724Y-86377500D02*
X53845276Y-86377500D01*
X54354724Y-87422500D02*
X53845276Y-87422500D01*
X64010000Y-77296267D02*
X64010000Y-77003733D01*
X62990000Y-77296267D02*
X62990000Y-77003733D01*
X53845276Y-87977500D02*
X54354724Y-87977500D01*
X53845276Y-89022500D02*
X54354724Y-89022500D01*
X83070000Y-99980000D02*
X83070000Y-87220000D01*
X83070000Y-87220000D02*
X85730000Y-87220000D01*
X85730000Y-99980000D02*
X85730000Y-87220000D01*
X83070000Y-102580000D02*
X84400000Y-102580000D01*
X83070000Y-101250000D02*
X83070000Y-102580000D01*
X83070000Y-99980000D02*
X85730000Y-99980000D01*
X45010000Y-115546267D02*
X45010000Y-115253733D01*
X43990000Y-115546267D02*
X43990000Y-115253733D01*
X40250000Y-110750000D02*
X40250000Y-105050000D01*
X44550000Y-110750000D02*
X40250000Y-110750000D01*
X44550000Y-110750000D02*
X44550000Y-105050000D01*
X56350000Y-88500000D02*
X56350000Y-89650000D01*
X56350000Y-89650000D02*
X63650000Y-89650000D01*
X56350000Y-84150000D02*
X63650000Y-84150000D01*
X71860000Y-108350000D02*
X71860000Y-109150000D01*
X68740000Y-108350000D02*
X68740000Y-109150000D01*
X71860000Y-108350000D02*
X71860000Y-107550000D01*
X68740000Y-108350000D02*
X68740000Y-106550000D01*
X62100000Y-78750000D02*
X57700000Y-78750000D01*
X57700000Y-77150000D02*
X57700000Y-77250000D01*
X62100000Y-77150000D02*
X62100000Y-77250000D01*
X57700000Y-75650000D02*
X62100000Y-75650000D01*
X53365000Y-97370000D02*
X53365000Y-100030000D01*
X59775000Y-97370000D02*
X59835000Y-97370000D01*
X59775000Y-100030000D02*
X59835000Y-100030000D01*
X59835000Y-97370000D02*
X59835000Y-100030000D01*
X53365000Y-97370000D02*
X53425000Y-97370000D01*
X53425000Y-100030000D02*
X53425000Y-101490000D01*
X53365000Y-100030000D02*
X53425000Y-100030000D01*
%LPC*%
D12*
X78300000Y-56225000D03*
D13*
X78300000Y-53685000D03*
X75760000Y-56225000D03*
X75760000Y-53685000D03*
D14*
X60580000Y-112360000D03*
D15*
X60580000Y-114900000D03*
X60580000Y-117440000D03*
D12*
X44300000Y-56225000D03*
D13*
X44300000Y-53685000D03*
X41760000Y-56225000D03*
X41760000Y-53685000D03*
D16*
X64825000Y-118040000D03*
X76825000Y-118040000D03*
D12*
X61300000Y-56225000D03*
D13*
X61300000Y-53685000D03*
X58760000Y-56225000D03*
X58760000Y-53685000D03*
D12*
X42400000Y-116975000D03*
D13*
X42400000Y-114435000D03*
D17*
X68500000Y-72125000D03*
X67500000Y-72125000D03*
X67500000Y-71125000D03*
X68500000Y-71125000D03*
D12*
X49075000Y-114425000D03*
D13*
X49075000Y-116965000D03*
X46535000Y-114425000D03*
X46535000Y-116965000D03*
D17*
X47500000Y-72100000D03*
X47500000Y-71100000D03*
X48500000Y-72100000D03*
X48500000Y-71100000D03*
D18*
X55012500Y-85300000D03*
X53187500Y-85300000D03*
D19*
X57800000Y-73612500D03*
X57800000Y-71787500D03*
D18*
X55012500Y-86900000D03*
X53187500Y-86900000D03*
D20*
X63500000Y-78012500D03*
X63500000Y-76287500D03*
D21*
X53187500Y-88500000D03*
X55012500Y-88500000D03*
D12*
X84400000Y-101250000D03*
D13*
X84400000Y-98710000D03*
X84400000Y-96170000D03*
X84400000Y-93630000D03*
X84400000Y-91090000D03*
X84400000Y-88550000D03*
D20*
X44500000Y-116262500D03*
X44500000Y-114537500D03*
D22*
X42400000Y-109350000D03*
X42400000Y-105050000D03*
D23*
X57550000Y-88500000D03*
X57550000Y-86900000D03*
X57550000Y-85300000D03*
X62450000Y-85300000D03*
X62450000Y-86900000D03*
X62450000Y-88500000D03*
D24*
X69350000Y-107212500D03*
X70300000Y-107212500D03*
X71250000Y-107212500D03*
X71250000Y-109487500D03*
X70300000Y-109487500D03*
X69350000Y-109487500D03*
D25*
X57850000Y-78000000D03*
X61950000Y-78000000D03*
X61950000Y-76400000D03*
X57850000Y-76400000D03*
D26*
X54060000Y-100500000D03*
X54060000Y-96900000D03*
X55330000Y-100500000D03*
X55330000Y-96900000D03*
X56600000Y-100500000D03*
X56600000Y-96900000D03*
X57870000Y-100500000D03*
X57870000Y-96900000D03*
X59140000Y-100500000D03*
X59140000Y-96900000D03*
M02*
