G04 #@! TF.GenerationSoftware,KiCad,Pcbnew,(6.0.8)*
G04 #@! TF.CreationDate,2023-12-02T01:29:22+01:00*
G04 #@! TF.ProjectId,lamp_devboard,6c616d70-5f64-4657-9662-6f6172642e6b,rev?*
G04 #@! TF.SameCoordinates,Original*
G04 #@! TF.FileFunction,Soldermask,Top*
G04 #@! TF.FilePolarity,Negative*
%FSLAX46Y46*%
G04 Gerber Fmt 4.6, Leading zero omitted, Abs format (unit mm)*
G04 Created by KiCad (PCBNEW (6.0.8)) date 2023-12-02 01:29:22*
%MOMM*%
%LPD*%
G01*
G04 APERTURE LIST*
G04 Aperture macros list*
%AMRoundRect*
0 Rectangle with rounded corners*
0 $1 Rounding radius*
0 $2 $3 $4 $5 $6 $7 $8 $9 X,Y pos of 4 corners*
0 Add a 4 corners polygon primitive as box body*
4,1,4,$2,$3,$4,$5,$6,$7,$8,$9,$2,$3,0*
0 Add four circle primitives for the rounded corners*
1,1,$1+$1,$2,$3*
1,1,$1+$1,$4,$5*
1,1,$1+$1,$6,$7*
1,1,$1+$1,$8,$9*
0 Add four rect primitives between the rounded corners*
20,1,$1+$1,$2,$3,$4,$5,0*
20,1,$1+$1,$4,$5,$6,$7,0*
20,1,$1+$1,$6,$7,$8,$9,0*
20,1,$1+$1,$8,$9,$2,$3,0*%
%AMFreePoly0*
4,1,22,0.500000,-0.750000,0.000000,-0.750000,0.000000,-0.745033,-0.079941,-0.743568,-0.215256,-0.701293,-0.333266,-0.622738,-0.424486,-0.514219,-0.481581,-0.384460,-0.499164,-0.250000,-0.500000,-0.250000,-0.500000,0.250000,-0.499164,0.250000,-0.499963,0.256109,-0.478152,0.396186,-0.417904,0.524511,-0.324060,0.630769,-0.204165,0.706417,-0.067858,0.745374,0.000000,0.744959,0.000000,0.750000,
0.500000,0.750000,0.500000,-0.750000,0.500000,-0.750000,$1*%
%AMFreePoly1*
4,1,20,0.000000,0.744959,0.073905,0.744508,0.209726,0.703889,0.328688,0.626782,0.421226,0.519385,0.479903,0.390333,0.500000,0.250000,0.500000,-0.250000,0.499851,-0.262216,0.476331,-0.402017,0.414519,-0.529596,0.319384,-0.634700,0.198574,-0.708877,0.061801,-0.746166,0.000000,-0.745033,0.000000,-0.750000,-0.500000,-0.750000,-0.500000,0.750000,0.000000,0.750000,0.000000,0.744959,
0.000000,0.744959,$1*%
G04 Aperture macros list end*
%ADD10RoundRect,0.237500X-0.237500X0.250000X-0.237500X-0.250000X0.237500X-0.250000X0.237500X0.250000X0*%
%ADD11FreePoly0,90.000000*%
%ADD12FreePoly1,90.000000*%
%ADD13RoundRect,0.250001X0.624999X-0.462499X0.624999X0.462499X-0.624999X0.462499X-0.624999X-0.462499X0*%
%ADD14RoundRect,0.150000X-0.512500X-0.150000X0.512500X-0.150000X0.512500X0.150000X-0.512500X0.150000X0*%
%ADD15RoundRect,0.237500X0.237500X-0.250000X0.237500X0.250000X-0.237500X0.250000X-0.237500X-0.250000X0*%
%ADD16RoundRect,0.075000X0.700000X0.075000X-0.700000X0.075000X-0.700000X-0.075000X0.700000X-0.075000X0*%
%ADD17RoundRect,0.075000X0.075000X0.700000X-0.075000X0.700000X-0.075000X-0.700000X0.075000X-0.700000X0*%
%ADD18R,1.700000X1.700000*%
%ADD19O,1.700000X1.700000*%
%ADD20RoundRect,0.062500X0.275000X0.062500X-0.275000X0.062500X-0.275000X-0.062500X0.275000X-0.062500X0*%
%ADD21RoundRect,0.062500X0.062500X0.275000X-0.062500X0.275000X-0.062500X-0.275000X0.062500X-0.275000X0*%
%ADD22R,1.450000X1.450000*%
%ADD23RoundRect,0.237500X0.250000X0.237500X-0.250000X0.237500X-0.250000X-0.237500X0.250000X-0.237500X0*%
%ADD24RoundRect,0.250000X-1.075000X0.400000X-1.075000X-0.400000X1.075000X-0.400000X1.075000X0.400000X0*%
%ADD25R,1.560000X0.650000*%
%ADD26RoundRect,0.250000X-0.845000X0.620000X-0.845000X-0.620000X0.845000X-0.620000X0.845000X0.620000X0*%
%ADD27O,2.190000X1.740000*%
%ADD28RoundRect,0.250000X0.412500X0.650000X-0.412500X0.650000X-0.412500X-0.650000X0.412500X-0.650000X0*%
%ADD29RoundRect,0.237500X0.300000X0.237500X-0.300000X0.237500X-0.300000X-0.237500X0.300000X-0.237500X0*%
%ADD30RoundRect,0.102000X-0.150000X-0.400000X0.150000X-0.400000X0.150000X0.400000X-0.150000X0.400000X0*%
%ADD31O,1.154000X2.254000*%
%ADD32R,2.300000X2.500000*%
%ADD33RoundRect,0.237500X0.237500X-0.300000X0.237500X0.300000X-0.237500X0.300000X-0.237500X-0.300000X0*%
%ADD34RoundRect,0.237500X-0.300000X-0.237500X0.300000X-0.237500X0.300000X0.237500X-0.300000X0.237500X0*%
%ADD35RoundRect,0.237500X0.237500X-0.287500X0.237500X0.287500X-0.237500X0.287500X-0.237500X-0.287500X0*%
%ADD36RoundRect,0.250000X-0.412500X-0.650000X0.412500X-0.650000X0.412500X0.650000X-0.412500X0.650000X0*%
%ADD37R,1.000000X1.000000*%
%ADD38RoundRect,0.237500X-0.250000X-0.237500X0.250000X-0.237500X0.250000X0.237500X-0.250000X0.237500X0*%
%ADD39R,2.100000X1.800000*%
%ADD40RoundRect,0.075000X-0.075000X0.650000X-0.075000X-0.650000X0.075000X-0.650000X0.075000X0.650000X0*%
%ADD41R,1.880000X1.570000*%
%ADD42RoundRect,0.100000X-0.425000X-0.100000X0.425000X-0.100000X0.425000X0.100000X-0.425000X0.100000X0*%
%ADD43RoundRect,0.050000X0.050000X0.250000X-0.050000X0.250000X-0.050000X-0.250000X0.050000X-0.250000X0*%
%ADD44RoundRect,0.237500X-0.237500X0.300000X-0.237500X-0.300000X0.237500X-0.300000X0.237500X0.300000X0*%
%ADD45R,3.400000X0.980000*%
%ADD46RoundRect,0.070000X0.140000X-0.140000X0.140000X0.140000X-0.140000X0.140000X-0.140000X-0.140000X0*%
%ADD47O,0.420000X0.990000*%
%ADD48C,0.600000*%
%ADD49R,0.700000X0.250000*%
%ADD50R,0.600000X0.230000*%
%ADD51R,0.900000X0.650000*%
%ADD52R,2.150000X1.700000*%
G04 APERTURE END LIST*
D10*
X54200000Y-111087500D03*
X54200000Y-112912500D03*
D11*
X44400000Y-91550000D03*
D12*
X44400000Y-90250000D03*
D13*
X46000000Y-109887500D03*
X46000000Y-106912500D03*
D14*
X41862500Y-99150000D03*
X41862500Y-100100000D03*
X41862500Y-101050000D03*
X44137500Y-101050000D03*
X44137500Y-99150000D03*
D15*
X56500000Y-61512500D03*
X56500000Y-59687500D03*
D16*
X70175000Y-90850000D03*
X70175000Y-90350000D03*
X70175000Y-89850000D03*
X70175000Y-89350000D03*
X70175000Y-88850000D03*
X70175000Y-88350000D03*
X70175000Y-87850000D03*
X70175000Y-87350000D03*
X70175000Y-86850000D03*
X70175000Y-86350000D03*
X70175000Y-85850000D03*
X70175000Y-85350000D03*
X70175000Y-84850000D03*
X70175000Y-84350000D03*
X70175000Y-83850000D03*
X70175000Y-83350000D03*
D17*
X68250000Y-81425000D03*
X67750000Y-81425000D03*
X67250000Y-81425000D03*
X66750000Y-81425000D03*
X66250000Y-81425000D03*
X65750000Y-81425000D03*
X65250000Y-81425000D03*
X64750000Y-81425000D03*
X64250000Y-81425000D03*
X63750000Y-81425000D03*
X63250000Y-81425000D03*
X62750000Y-81425000D03*
X62250000Y-81425000D03*
X61750000Y-81425000D03*
X61250000Y-81425000D03*
X60750000Y-81425000D03*
D16*
X58825000Y-83350000D03*
X58825000Y-83850000D03*
X58825000Y-84350000D03*
X58825000Y-84850000D03*
X58825000Y-85350000D03*
X58825000Y-85850000D03*
X58825000Y-86350000D03*
X58825000Y-86850000D03*
X58825000Y-87350000D03*
X58825000Y-87850000D03*
X58825000Y-88350000D03*
X58825000Y-88850000D03*
X58825000Y-89350000D03*
X58825000Y-89850000D03*
X58825000Y-90350000D03*
X58825000Y-90850000D03*
D17*
X60750000Y-92775000D03*
X61250000Y-92775000D03*
X61750000Y-92775000D03*
X62250000Y-92775000D03*
X62750000Y-92775000D03*
X63250000Y-92775000D03*
X63750000Y-92775000D03*
X64250000Y-92775000D03*
X64750000Y-92775000D03*
X65250000Y-92775000D03*
X65750000Y-92775000D03*
X66250000Y-92775000D03*
X66750000Y-92775000D03*
X67250000Y-92775000D03*
X67750000Y-92775000D03*
X68250000Y-92775000D03*
D18*
X78300000Y-56225000D03*
D19*
X78300000Y-53685000D03*
X75760000Y-56225000D03*
X75760000Y-53685000D03*
D20*
X78562500Y-107500000D03*
X78562500Y-107000000D03*
X78562500Y-106500000D03*
D21*
X78050000Y-105737500D03*
X77550000Y-105737500D03*
X77050000Y-105737500D03*
X76550000Y-105737500D03*
D20*
X76037500Y-106500000D03*
X76037500Y-107000000D03*
X76037500Y-107500000D03*
D21*
X76550000Y-108262500D03*
X77050000Y-108262500D03*
X77550000Y-108262500D03*
X78050000Y-108262500D03*
D22*
X77300000Y-107000000D03*
D23*
X53412500Y-72100000D03*
X51587500Y-72100000D03*
D24*
X71500000Y-59050000D03*
X71500000Y-62150000D03*
D10*
X69000000Y-96687500D03*
X69000000Y-98512500D03*
D25*
X62850000Y-102050000D03*
X62850000Y-101100000D03*
X62850000Y-100150000D03*
X60150000Y-100150000D03*
X60150000Y-102050000D03*
D15*
X63500000Y-61512500D03*
X63500000Y-59687500D03*
D26*
X60580000Y-112360000D03*
D27*
X60580000Y-114900000D03*
X60580000Y-117440000D03*
D28*
X65062500Y-64600000D03*
X61937500Y-64600000D03*
D11*
X57000000Y-105950000D03*
D12*
X57000000Y-104650000D03*
D18*
X44300000Y-56225000D03*
D19*
X44300000Y-53685000D03*
X41760000Y-56225000D03*
X41760000Y-53685000D03*
D10*
X73000000Y-79187500D03*
X73000000Y-81012500D03*
D15*
X45000000Y-81425000D03*
X45000000Y-79600000D03*
D29*
X44362500Y-93750000D03*
X42637500Y-93750000D03*
D30*
X67675000Y-113590000D03*
X68175000Y-113590000D03*
X68675000Y-113590000D03*
X69175000Y-113590000D03*
X70075000Y-113590000D03*
X70575000Y-113590000D03*
X71075000Y-113590000D03*
X71575000Y-113590000D03*
X72475000Y-113590000D03*
X72975000Y-113590000D03*
X73475000Y-113590000D03*
X73975000Y-113590000D03*
X73775000Y-114790000D03*
X73275000Y-114790000D03*
X72775000Y-114790000D03*
X72275000Y-114790000D03*
X71775000Y-114790000D03*
X71275000Y-114790000D03*
X70375000Y-114790000D03*
X69875000Y-114790000D03*
X69375000Y-114790000D03*
X68875000Y-114790000D03*
X68375000Y-114790000D03*
X67875000Y-114790000D03*
D31*
X64825000Y-118040000D03*
X76825000Y-118040000D03*
D15*
X41000000Y-81425000D03*
X41000000Y-79600000D03*
D32*
X42400000Y-109350000D03*
X42400000Y-105050000D03*
D28*
X44500000Y-96100000D03*
X41375000Y-96100000D03*
D24*
X42000000Y-59050000D03*
X42000000Y-62150000D03*
D10*
X69000000Y-100687500D03*
X69000000Y-102512500D03*
X51700000Y-114587500D03*
X51700000Y-116412500D03*
D28*
X49562500Y-96100000D03*
X46437500Y-96100000D03*
D33*
X46100000Y-105062500D03*
X46100000Y-103337500D03*
D29*
X67562500Y-105500000D03*
X65837500Y-105500000D03*
D18*
X61300000Y-56225000D03*
D19*
X61300000Y-53685000D03*
X58760000Y-56225000D03*
X58760000Y-53685000D03*
D10*
X51700000Y-111087500D03*
X51700000Y-112912500D03*
D34*
X72500000Y-83100000D03*
X74225000Y-83100000D03*
D10*
X79000000Y-79187500D03*
X79000000Y-81012500D03*
D15*
X78300000Y-115412500D03*
X78300000Y-113587500D03*
D28*
X45062500Y-67600000D03*
X41937500Y-67600000D03*
D15*
X67000000Y-102512500D03*
X67000000Y-100687500D03*
D29*
X71500000Y-68100000D03*
X69775000Y-68100000D03*
D18*
X42400000Y-116975000D03*
D19*
X42400000Y-114435000D03*
D24*
X57070000Y-99480000D03*
X57070000Y-102580000D03*
D15*
X67000000Y-98512500D03*
X67000000Y-96687500D03*
D28*
X65062500Y-67600000D03*
X61937500Y-67600000D03*
D35*
X78300000Y-111875000D03*
X78300000Y-110125000D03*
D10*
X56200000Y-114587500D03*
X56200000Y-116412500D03*
D36*
X47437500Y-64600000D03*
X50562500Y-64600000D03*
D15*
X75000000Y-81012500D03*
X75000000Y-79187500D03*
D37*
X51500000Y-74100000D03*
D38*
X42387500Y-111700000D03*
X44212500Y-111700000D03*
D10*
X53500000Y-103987500D03*
X53500000Y-105812500D03*
D39*
X74550000Y-87750000D03*
X77450000Y-87750000D03*
X77450000Y-85450000D03*
X74550000Y-85450000D03*
D35*
X76300000Y-111875000D03*
X76300000Y-110125000D03*
D23*
X73412500Y-72100000D03*
X71587500Y-72100000D03*
D40*
X62400000Y-104950000D03*
X61900000Y-104950000D03*
X61400000Y-104950000D03*
X60900000Y-104950000D03*
X60400000Y-104950000D03*
X60400000Y-109250000D03*
X60900000Y-109250000D03*
X61400000Y-109250000D03*
X61900000Y-109250000D03*
X62400000Y-109250000D03*
D41*
X61400000Y-107100000D03*
D42*
X52525000Y-108150000D03*
X52525000Y-108850000D03*
D43*
X52450000Y-109650000D03*
X52950000Y-109650000D03*
X53450000Y-109650000D03*
X53950000Y-109650000D03*
D42*
X53875000Y-108850000D03*
X53875000Y-108150000D03*
D43*
X53950000Y-107350000D03*
X53450000Y-107350000D03*
X52950000Y-107350000D03*
X52450000Y-107350000D03*
D44*
X67000000Y-75237500D03*
X67000000Y-76962500D03*
D15*
X58500000Y-61512500D03*
X58500000Y-59687500D03*
D10*
X47000000Y-79600000D03*
X47000000Y-81425000D03*
D28*
X45062500Y-64600000D03*
X41937500Y-64600000D03*
D10*
X54200000Y-114587500D03*
X54200000Y-116412500D03*
D15*
X61500000Y-61512500D03*
X61500000Y-59687500D03*
D44*
X47000000Y-75237500D03*
X47000000Y-76962500D03*
D33*
X51800000Y-105762500D03*
X51800000Y-104037500D03*
D45*
X63000000Y-72785000D03*
X63000000Y-70415000D03*
D10*
X43000000Y-79600000D03*
X43000000Y-81425000D03*
D46*
X67000000Y-73385000D03*
D47*
X67000000Y-73100000D03*
D46*
X67500000Y-73385000D03*
D47*
X67500000Y-73100000D03*
D46*
X68000000Y-73385000D03*
D47*
X68000000Y-73100000D03*
X68500000Y-73100000D03*
D46*
X68500000Y-73385000D03*
D47*
X69000000Y-73100000D03*
D46*
X69000000Y-73385000D03*
D47*
X69000000Y-70150000D03*
D46*
X69000000Y-69865000D03*
X68500000Y-69865000D03*
D47*
X68500000Y-70150000D03*
D46*
X68000000Y-69865000D03*
D47*
X68000000Y-70150000D03*
X67500000Y-70150000D03*
D46*
X67500000Y-69865000D03*
X67000000Y-69865000D03*
D47*
X67000000Y-70150000D03*
D48*
X68500000Y-72125000D03*
D49*
X66575000Y-71025000D03*
X69425000Y-72225000D03*
D48*
X67500000Y-72125000D03*
D50*
X66575000Y-72225000D03*
D49*
X69425000Y-71825000D03*
D50*
X66575000Y-71825000D03*
D48*
X67500000Y-71125000D03*
D49*
X66575000Y-71825000D03*
D50*
X66575000Y-71425000D03*
X66575000Y-71025000D03*
D49*
X66575000Y-71425000D03*
D51*
X67440000Y-71190000D03*
D49*
X69425000Y-71025000D03*
D50*
X69425000Y-72225000D03*
X69425000Y-71425000D03*
D48*
X68500000Y-71125000D03*
D52*
X68000000Y-71625000D03*
D49*
X66575000Y-72225000D03*
D51*
X68560000Y-72060000D03*
X68560000Y-71190000D03*
X67440000Y-72060000D03*
D50*
X69425000Y-71825000D03*
D49*
X69425000Y-71425000D03*
D50*
X69425000Y-71025000D03*
D23*
X76212500Y-104000000D03*
X74387500Y-104000000D03*
D33*
X59500000Y-80962500D03*
X59500000Y-79237500D03*
D18*
X49075000Y-114425000D03*
D19*
X49075000Y-116965000D03*
X46535000Y-114425000D03*
X46535000Y-116965000D03*
D29*
X51362500Y-68100000D03*
X49637500Y-68100000D03*
D10*
X74200000Y-108787500D03*
X74200000Y-110612500D03*
D47*
X47000000Y-73075000D03*
D46*
X47000000Y-73360000D03*
D47*
X47500000Y-73075000D03*
D46*
X47500000Y-73360000D03*
X48000000Y-73360000D03*
D47*
X48000000Y-73075000D03*
X48500000Y-73075000D03*
D46*
X48500000Y-73360000D03*
D47*
X49000000Y-73075000D03*
D46*
X49000000Y-73360000D03*
D47*
X49000000Y-70125000D03*
D46*
X49000000Y-69840000D03*
X48500000Y-69840000D03*
D47*
X48500000Y-70125000D03*
D46*
X48000000Y-69840000D03*
D47*
X48000000Y-70125000D03*
D46*
X47500000Y-69840000D03*
D47*
X47500000Y-70125000D03*
X47000000Y-70125000D03*
D46*
X47000000Y-69840000D03*
D49*
X46575000Y-71800000D03*
D50*
X46575000Y-71800000D03*
D51*
X47440000Y-71165000D03*
D48*
X47500000Y-72100000D03*
D50*
X46575000Y-71000000D03*
X49425000Y-71000000D03*
X49425000Y-71800000D03*
D51*
X48560000Y-72035000D03*
D48*
X47500000Y-71100000D03*
D49*
X46575000Y-71000000D03*
D51*
X48560000Y-71165000D03*
D49*
X49425000Y-71400000D03*
D48*
X48500000Y-72100000D03*
D49*
X49425000Y-71800000D03*
D51*
X47440000Y-72035000D03*
D49*
X49425000Y-71000000D03*
D50*
X46575000Y-72200000D03*
D49*
X46575000Y-71400000D03*
D48*
X48500000Y-71100000D03*
D52*
X48000000Y-71600000D03*
D50*
X46575000Y-71400000D03*
D49*
X49425000Y-72200000D03*
D50*
X49425000Y-72200000D03*
D49*
X46575000Y-72200000D03*
D50*
X49425000Y-71400000D03*
D11*
X49400000Y-91350000D03*
D12*
X49400000Y-90050000D03*
D28*
X45062500Y-75600000D03*
X41937500Y-75600000D03*
D15*
X77000000Y-81012500D03*
X77000000Y-79187500D03*
D33*
X47800000Y-105062500D03*
X47800000Y-103337500D03*
D44*
X58000000Y-92237500D03*
X58000000Y-93962500D03*
D14*
X46862500Y-99150000D03*
X46862500Y-100100000D03*
X46862500Y-101050000D03*
X49137500Y-101050000D03*
X49137500Y-99150000D03*
D36*
X67437500Y-64600000D03*
X70562500Y-64600000D03*
D25*
X48850000Y-61550000D03*
X48850000Y-60600000D03*
X48850000Y-59650000D03*
X46150000Y-59650000D03*
X46150000Y-61550000D03*
D37*
X71500000Y-74100000D03*
D39*
X74550000Y-92750000D03*
X77450000Y-92750000D03*
X77450000Y-90450000D03*
X74550000Y-90450000D03*
D29*
X49362500Y-93750000D03*
X47637500Y-93750000D03*
D45*
X43000000Y-72785000D03*
X43000000Y-70415000D03*
D33*
X69500000Y-80962500D03*
X69500000Y-79237500D03*
D28*
X65062500Y-75600000D03*
X61937500Y-75600000D03*
D23*
X76125000Y-102000000D03*
X74300000Y-102000000D03*
D25*
X78350000Y-61550000D03*
X78350000Y-60600000D03*
X78350000Y-59650000D03*
X75650000Y-59650000D03*
X75650000Y-61550000D03*
D10*
X56200000Y-111087500D03*
X56200000Y-112912500D03*
D18*
X84400000Y-101250000D03*
D19*
X84400000Y-98710000D03*
X84400000Y-96170000D03*
X84400000Y-93630000D03*
X84400000Y-91090000D03*
X84400000Y-88550000D03*
M02*
