G04 #@! TF.GenerationSoftware,KiCad,Pcbnew,(6.0.8)*
G04 #@! TF.CreationDate,2023-12-02T01:29:22+01:00*
G04 #@! TF.ProjectId,lamp_devboard,6c616d70-5f64-4657-9662-6f6172642e6b,rev?*
G04 #@! TF.SameCoordinates,Original*
G04 #@! TF.FileFunction,Profile,NP*
%FSLAX46Y46*%
G04 Gerber Fmt 4.6, Leading zero omitted, Abs format (unit mm)*
G04 Created by KiCad (PCBNEW (6.0.8)) date 2023-12-02 01:29:22*
%MOMM*%
%LPD*%
G01*
G04 APERTURE LIST*
G04 #@! TA.AperFunction,Profile*
%ADD10C,0.100000*%
G04 #@! TD*
G04 APERTURE END LIST*
D10*
X46100000Y-58100000D02*
X56900000Y-58100000D01*
X56900000Y-52500000D01*
X63100000Y-52500000D01*
X63100000Y-58100000D01*
X73900000Y-58100000D01*
X73900000Y-52500000D01*
X80000000Y-52500000D01*
X80000000Y-60100000D01*
X82000000Y-62100000D01*
X82000000Y-65100000D01*
X80000000Y-67100000D01*
X80000000Y-92100000D01*
X80700000Y-92700000D01*
X81500000Y-92700000D01*
X82200000Y-92100000D01*
X82200000Y-86700000D01*
X82700000Y-86200000D01*
X86200000Y-86200000D01*
X86600000Y-86700000D01*
X86600000Y-103000000D01*
X86100000Y-103500000D01*
X82700000Y-103500000D01*
X82200000Y-103000000D01*
X82200000Y-95300000D01*
X81500000Y-94700000D01*
X80700000Y-94700000D01*
X80000000Y-95300000D01*
X80000000Y-110200000D01*
X82000000Y-112200000D01*
X82000000Y-115300000D01*
X80000000Y-117300000D01*
X80000000Y-119400000D01*
X76000000Y-119400000D01*
X76000000Y-117200000D01*
X76600000Y-116500000D01*
X76600000Y-115550000D01*
X65100000Y-115550000D01*
X65100000Y-116700000D01*
X65600000Y-117100000D01*
X65600000Y-119400000D01*
X40000000Y-119400000D01*
X40000000Y-117300000D01*
X38000000Y-115300000D01*
X38000000Y-112200000D01*
X40000000Y-110200000D01*
X40000000Y-67100000D01*
X38000000Y-65100000D01*
X38000000Y-62100000D01*
X40000000Y-60100000D01*
X40000000Y-52500000D01*
X46100000Y-52500000D01*
X46100000Y-58100000D01*
M02*
