M48
; DRILL file {KiCad (6.0.8)} date Sat Dec  2 01:29:32 2023
; FORMAT={-:-/ absolute / metric / decimal}
; #@! TF.CreationDate,2023-12-02T01:29:32+01:00
; #@! TF.GenerationSoftware,Kicad,Pcbnew,(6.0.8)
; #@! TF.FileFunction,Plated,1,4,PTH
FMAT,2
METRIC
; #@! TA.AperFunction,Plated,PTH,ComponentDrill
T1C0.300
; #@! TA.AperFunction,Plated,PTH,ViaDrill
T2C0.400
; #@! TA.AperFunction,Plated,PTH,ComponentDrill
T3C0.550
; #@! TA.AperFunction,Plated,PTH,ComponentDrill
T4C1.000
; #@! TA.AperFunction,Plated,PTH,ComponentDrill
T5C1.190
%
G90
G05
T1
X47.5Y-71.1
X47.5Y-72.1
X48.5Y-71.1
X48.5Y-72.1
X60.76Y-106.615
X60.76Y-107.585
X62.04Y-106.615
X62.04Y-107.585
X67.5Y-71.125
X67.5Y-72.125
X68.5Y-71.125
X68.5Y-72.125
T2
X40.9Y-77.7
X40.9Y-102.9
X41.05Y-93.45
X41.062Y-94.381
X41.1Y-66.1
X41.5Y-97.9
X42.1Y-66.1
X42.1Y-102.9
X42.7Y-77.6
X43.0Y-66.1
X43.0Y-88.1
X43.3Y-102.9
X43.9Y-83.3
X44.1Y-78.3
X44.4Y-88.1
X44.4Y-102.9
X45.5Y-100.6
X45.6Y-111.7
X45.8Y-88.1
X46.1Y-93.5
X46.1Y-94.4
X47.4Y-90.8
X48.2Y-79.6
X48.3Y-83.4
X48.6Y-76.2
X50.0Y-66.6
X50.4Y-59.6
X50.4Y-60.6
X50.4Y-61.6
X51.1Y-85.3
X51.1Y-92.1
X51.193Y-106.814
X51.2Y-90.7
X51.7Y-117.9
X51.8Y-102.8
X52.0Y-101.9
X52.3Y-64.6
X52.3Y-65.7
X52.6Y-98.9
X53.1Y-75.4
X53.5Y-102.8
X54.2Y-117.9
X54.9Y-72.1
X54.9Y-105.4
X55.1Y-60.7
X55.94Y-89.44
X56.2Y-117.9
X56.7Y-81.8
X56.8Y-70.1
X56.8Y-75.1
X56.9Y-90.6
X58.0Y-79.5
X59.2Y-106.0
X59.3Y-63.5
X59.4Y-103.7
X59.5Y-94.5
X59.8Y-74.3
X60.4Y-89.1
X60.6Y-64.2
X60.6Y-65.2
X60.6Y-67.0
X60.6Y-67.9
X60.7Y-85.8
X60.8Y-87.7
X60.8Y-90.4
X60.802Y-86.719
X60.9Y-79.5
X61.1Y-66.1
X61.648Y-89.87
X61.95Y-94.65
X62.0Y-66.1
X62.3Y-82.9
X62.6Y-79.8
X62.9Y-66.1
X63.5Y-104.3
X63.5Y-105.6
X63.7Y-91.1
X64.1Y-94.8
X64.3Y-84.9
X64.4Y-88.7
X64.6Y-102.3
X64.6Y-105.5
X64.8Y-79.9
X64.9Y-60.7
X64.9Y-87.9
X64.913Y-91.0
X64.96Y-83.66
X65.2Y-97.0
X65.6Y-99.9
X65.8Y-84.3
X66.4Y-85.9
X66.9Y-79.5
X67.262Y-112.382
X67.3Y-85.3
X67.95Y-108.35
X67.999Y-90.4
X67.999Y-91.4
X68.1Y-67.5
X68.2Y-94.188
X68.3Y-87.3
X68.3Y-112.1
X68.4Y-84.7
X69.1Y-76.5
X69.3Y-93.3
X69.4Y-111.1
X70.3Y-105.75
X70.4Y-92.1
X70.4Y-99.5
X70.4Y-103.5
X70.663Y-111.15
X70.9Y-78.8
X70.9Y-81.0
X71.1Y-112.0
X71.25Y-105.35
X72.1Y-86.3
X72.3Y-84.8
X72.3Y-111.6
X72.4Y-64.6
X72.4Y-65.7
X72.862Y-112.59
X73.7Y-73.5
X74.1Y-75.7
X74.1Y-77.6
X74.2Y-107.3
X74.35Y-112.45
X74.4Y-100.7
X74.7Y-105.4
X75.0Y-106.5
X75.4Y-109.0
X75.7Y-83.1
X76.0Y-99.1
X77.1Y-82.4
X77.3Y-107.0
X77.712Y-103.9
X78.3Y-63.0
X78.3Y-73.1
X78.6Y-82.4
X78.7Y-104.5
X79.0Y-109.1
X79.1Y-89.1
X79.238Y-62.9
X79.4Y-92.7
T4
X41.76Y-53.685
X41.76Y-56.225
X42.4Y-114.435
X42.4Y-116.975
X44.3Y-53.685
X44.3Y-56.225
X46.535Y-114.425
X46.535Y-116.965
X49.075Y-114.425
X49.075Y-116.965
X58.76Y-53.685
X58.76Y-56.225
X61.3Y-53.685
X61.3Y-56.225
X75.76Y-53.685
X75.76Y-56.225
X78.3Y-53.685
X78.3Y-56.225
X84.4Y-88.55
X84.4Y-91.09
X84.4Y-93.63
X84.4Y-96.17
X84.4Y-98.71
X84.4Y-101.25
T5
X60.58Y-112.36
X60.58Y-114.9
X60.58Y-117.44
T3
X64.825Y-117.49G85X64.825Y-118.59
G05
X65.95Y-113.5G85X65.95Y-114.6
G05
X65.95Y-114.6G85X66.65Y-114.6
G05
X75.0Y-114.6G85X75.7Y-114.6
G05
X75.7Y-113.5G85X75.7Y-114.6
G05
X76.825Y-117.49G85X76.825Y-118.59
G05
T0
M30
