G04 #@! TF.GenerationSoftware,KiCad,Pcbnew,(6.0.8)*
G04 #@! TF.CreationDate,2023-12-02T01:29:22+01:00*
G04 #@! TF.ProjectId,lamp_devboard,6c616d70-5f64-4657-9662-6f6172642e6b,rev?*
G04 #@! TF.SameCoordinates,Original*
G04 #@! TF.FileFunction,Copper,L2,Inr*
G04 #@! TF.FilePolarity,Positive*
%FSLAX46Y46*%
G04 Gerber Fmt 4.6, Leading zero omitted, Abs format (unit mm)*
G04 Created by KiCad (PCBNEW (6.0.8)) date 2023-12-02 01:29:22*
%MOMM*%
%LPD*%
G01*
G04 APERTURE LIST*
G04 Aperture macros list*
%AMRoundRect*
0 Rectangle with rounded corners*
0 $1 Rounding radius*
0 $2 $3 $4 $5 $6 $7 $8 $9 X,Y pos of 4 corners*
0 Add a 4 corners polygon primitive as box body*
4,1,4,$2,$3,$4,$5,$6,$7,$8,$9,$2,$3,0*
0 Add four circle primitives for the rounded corners*
1,1,$1+$1,$2,$3*
1,1,$1+$1,$4,$5*
1,1,$1+$1,$6,$7*
1,1,$1+$1,$8,$9*
0 Add four rect primitives between the rounded corners*
20,1,$1+$1,$2,$3,$4,$5,0*
20,1,$1+$1,$4,$5,$6,$7,0*
20,1,$1+$1,$6,$7,$8,$9,0*
20,1,$1+$1,$8,$9,$2,$3,0*%
G04 Aperture macros list end*
G04 #@! TA.AperFunction,ComponentPad*
%ADD10R,1.700000X1.700000*%
G04 #@! TD*
G04 #@! TA.AperFunction,ComponentPad*
%ADD11O,1.700000X1.700000*%
G04 #@! TD*
G04 #@! TA.AperFunction,ComponentPad*
%ADD12RoundRect,0.250000X-0.845000X0.620000X-0.845000X-0.620000X0.845000X-0.620000X0.845000X0.620000X0*%
G04 #@! TD*
G04 #@! TA.AperFunction,ComponentPad*
%ADD13O,2.190000X1.740000*%
G04 #@! TD*
G04 #@! TA.AperFunction,ComponentPad*
%ADD14O,0.950000X2.050000*%
G04 #@! TD*
G04 #@! TA.AperFunction,ComponentPad*
%ADD15O,1.650000X0.950000*%
G04 #@! TD*
G04 #@! TA.AperFunction,ComponentPad*
%ADD16C,0.600000*%
G04 #@! TD*
G04 #@! TA.AperFunction,ViaPad*
%ADD17C,0.800000*%
G04 #@! TD*
G04 #@! TA.AperFunction,Conductor*
%ADD18C,0.200000*%
G04 #@! TD*
G04 APERTURE END LIST*
D10*
X78300000Y-56225000D03*
D11*
X78300000Y-53685000D03*
X75760000Y-56225000D03*
X75760000Y-53685000D03*
D12*
X60580000Y-112360000D03*
D13*
X60580000Y-114900000D03*
X60580000Y-117440000D03*
D10*
X44300000Y-56225000D03*
D11*
X44300000Y-53685000D03*
X41760000Y-56225000D03*
X41760000Y-53685000D03*
D14*
X64825000Y-118040000D03*
X76825000Y-118040000D03*
D15*
X66300000Y-114600000D03*
D14*
X65950000Y-114050000D03*
X75700000Y-114050000D03*
D15*
X75350000Y-114600000D03*
D10*
X61300000Y-56225000D03*
D11*
X61300000Y-53685000D03*
X58760000Y-56225000D03*
X58760000Y-53685000D03*
D10*
X42400000Y-116975000D03*
D11*
X42400000Y-114435000D03*
D16*
X60760000Y-106615000D03*
X62040000Y-106615000D03*
X62040000Y-107585000D03*
X60760000Y-107585000D03*
X68500000Y-72125000D03*
X67500000Y-72125000D03*
X67500000Y-71125000D03*
X68500000Y-71125000D03*
D10*
X49075000Y-114425000D03*
D11*
X49075000Y-116965000D03*
X46535000Y-114425000D03*
X46535000Y-116965000D03*
D16*
X47500000Y-72100000D03*
X47500000Y-71100000D03*
X48500000Y-72100000D03*
X48500000Y-71100000D03*
D10*
X84400000Y-101250000D03*
D11*
X84400000Y-98710000D03*
X84400000Y-96170000D03*
X84400000Y-93630000D03*
X84400000Y-91090000D03*
X84400000Y-88550000D03*
D17*
X51100000Y-85300000D03*
X40900000Y-77700000D03*
X45600000Y-111700000D03*
X64600000Y-105500000D03*
X43000000Y-66100000D03*
X78300000Y-63000000D03*
X70400000Y-99500000D03*
X41050000Y-93450000D03*
X79000000Y-109100000D03*
X56800000Y-70100000D03*
X46100000Y-94400000D03*
X69100000Y-76500000D03*
X67262000Y-112381895D03*
X77300000Y-107000000D03*
X79400000Y-92700000D03*
X60600000Y-67900000D03*
X41062500Y-94381250D03*
X42100000Y-66100000D03*
X79100000Y-89100000D03*
X51700000Y-117900000D03*
X53500000Y-102800000D03*
X51193283Y-106813665D03*
X62900000Y-66100000D03*
X61100000Y-66100000D03*
X72400000Y-64600000D03*
X44400000Y-102900000D03*
X52300000Y-65700000D03*
X43300000Y-102900000D03*
X59200000Y-106000000D03*
X41100000Y-66100000D03*
X46100000Y-93500000D03*
X68400000Y-84700000D03*
X79238000Y-62900000D03*
X42700000Y-77600000D03*
X59500000Y-94500000D03*
X60600000Y-65200000D03*
X59800000Y-74300000D03*
X75000000Y-106500000D03*
X52000000Y-101900000D03*
X60600000Y-67000000D03*
X64800000Y-79900000D03*
X68200000Y-94188000D03*
X42100000Y-102900000D03*
X74350000Y-112450000D03*
X72400000Y-65700000D03*
X75400000Y-109000000D03*
X51800000Y-102800000D03*
X74100000Y-77600000D03*
X58000000Y-79500000D03*
X48600000Y-76200000D03*
X50400000Y-60600000D03*
X62000000Y-66100000D03*
X52300000Y-64600000D03*
X60800000Y-90400000D03*
X70900000Y-78800000D03*
X64600000Y-102300000D03*
X45500000Y-100600000D03*
X50400000Y-61600000D03*
X44100000Y-78300000D03*
X40900000Y-102900000D03*
X70300000Y-105750000D03*
X60600000Y-64200000D03*
X56200000Y-117900000D03*
X70400000Y-103500000D03*
X75700000Y-83100000D03*
X41500000Y-97900000D03*
X54200000Y-117900000D03*
X44400000Y-88100000D03*
X69300000Y-93300000D03*
X52600000Y-98900000D03*
X43000000Y-88100000D03*
X45800000Y-88100000D03*
X60900000Y-79500000D03*
X74400000Y-100700000D03*
X78700000Y-104500000D03*
X56900000Y-90600000D03*
X70900000Y-81000000D03*
X54900000Y-72100000D03*
X70400000Y-92100000D03*
X73700000Y-73500000D03*
X72300000Y-84800000D03*
X47400000Y-90800000D03*
X64900000Y-60700000D03*
X55100000Y-60700000D03*
X51100000Y-92100000D03*
X51200000Y-90700000D03*
X56700000Y-81800000D03*
X55939693Y-89439693D03*
X63500000Y-104300000D03*
X72861927Y-112590105D03*
X67950000Y-108350000D03*
X68300000Y-112100000D03*
X63500000Y-105600000D03*
X77712000Y-103900000D03*
X60700000Y-85800000D03*
X60802094Y-86718848D03*
X60800000Y-87700000D03*
X59300000Y-63500000D03*
X66400000Y-85900000D03*
X70663000Y-111150000D03*
X69400000Y-111100000D03*
X71100000Y-112000000D03*
X60400000Y-89100000D03*
X61647576Y-89870265D03*
X63700000Y-91100000D03*
X61950000Y-94650000D03*
X64100000Y-94800000D03*
X65600000Y-99900000D03*
X67300000Y-85300000D03*
X65200000Y-97000000D03*
X64900000Y-87900000D03*
X71250000Y-105350000D03*
X74200000Y-107300000D03*
X72300000Y-111600000D03*
X74700000Y-105400000D03*
X76000000Y-99100000D03*
X56800000Y-75100000D03*
X62600000Y-79800000D03*
X74100000Y-75700000D03*
X78300000Y-73100000D03*
X72100000Y-86300000D03*
X77100000Y-82400000D03*
X78600000Y-82400000D03*
X68300000Y-87300000D03*
X48200000Y-79600000D03*
X50400000Y-59600000D03*
X64959552Y-83659552D03*
X48300000Y-83400000D03*
X43900000Y-83300000D03*
X64300000Y-84900000D03*
X66900000Y-79500000D03*
X68100000Y-67500000D03*
X53100000Y-75400000D03*
X62300000Y-82900000D03*
X67999500Y-90400000D03*
X50000000Y-66600000D03*
X65800000Y-84300000D03*
X67999500Y-91400000D03*
X64400000Y-88700000D03*
X59400000Y-103700000D03*
X54900000Y-105400000D03*
X64913000Y-91000000D03*
D18*
X81965685Y-93900000D02*
X80100000Y-93900000D01*
X82600000Y-94534315D02*
X81965685Y-93900000D01*
X80100000Y-93900000D02*
X79400000Y-93200000D01*
X82600000Y-96910000D02*
X82600000Y-94534315D01*
X79400000Y-93200000D02*
X79400000Y-92700000D01*
X84400000Y-98710000D02*
X82600000Y-96910000D01*
G04 #@! TA.AperFunction,Conductor*
G36*
X40976679Y-52819407D02*
G01*
X41012643Y-52868907D01*
X41012643Y-52930093D01*
X40994326Y-52963136D01*
X40889024Y-53088630D01*
X40886689Y-53092878D01*
X40886688Y-53092879D01*
X40879955Y-53105126D01*
X40789776Y-53269162D01*
X40788313Y-53273775D01*
X40788311Y-53273779D01*
X40785466Y-53282749D01*
X40727484Y-53465532D01*
X40726944Y-53470344D01*
X40726944Y-53470345D01*
X40714084Y-53585000D01*
X40704520Y-53670262D01*
X40704925Y-53675082D01*
X40721347Y-53870644D01*
X40721759Y-53875553D01*
X40778544Y-54073586D01*
X40872712Y-54256818D01*
X41000677Y-54418270D01*
X41004357Y-54421402D01*
X41004359Y-54421404D01*
X41117017Y-54517283D01*
X41157564Y-54551791D01*
X41161787Y-54554151D01*
X41161791Y-54554154D01*
X41205248Y-54578441D01*
X41337398Y-54652297D01*
X41341996Y-54653791D01*
X41528724Y-54714463D01*
X41528726Y-54714464D01*
X41533329Y-54715959D01*
X41737894Y-54740351D01*
X41742716Y-54739980D01*
X41742719Y-54739980D01*
X41810541Y-54734761D01*
X41943300Y-54724546D01*
X42141725Y-54669145D01*
X42146038Y-54666966D01*
X42146044Y-54666964D01*
X42321289Y-54578441D01*
X42321291Y-54578440D01*
X42325610Y-54576258D01*
X42353902Y-54554154D01*
X42484135Y-54452406D01*
X42484139Y-54452402D01*
X42487951Y-54449424D01*
X42491433Y-54445391D01*
X42547313Y-54380651D01*
X42622564Y-54293472D01*
X42641385Y-54260341D01*
X42721934Y-54118550D01*
X42721935Y-54118547D01*
X42724323Y-54114344D01*
X42725920Y-54109546D01*
X42787824Y-53923454D01*
X42787824Y-53923452D01*
X42789351Y-53918863D01*
X42789973Y-53913944D01*
X42805018Y-53794846D01*
X43255483Y-53794846D01*
X43261847Y-53870644D01*
X43263585Y-53880111D01*
X43317674Y-54068743D01*
X43321225Y-54077711D01*
X43410919Y-54252236D01*
X43416142Y-54260341D01*
X43538037Y-54414134D01*
X43544720Y-54421055D01*
X43694164Y-54548241D01*
X43702078Y-54553742D01*
X43873373Y-54649475D01*
X43882201Y-54653332D01*
X44068838Y-54713974D01*
X44078238Y-54716041D01*
X44184432Y-54728704D01*
X44197514Y-54726113D01*
X44198955Y-54724557D01*
X44200000Y-54719803D01*
X44200000Y-54714775D01*
X44400000Y-54714775D01*
X44404122Y-54727460D01*
X44406735Y-54729359D01*
X44409679Y-54729710D01*
X44478385Y-54724424D01*
X44487876Y-54722750D01*
X44676882Y-54669978D01*
X44685862Y-54666496D01*
X44861020Y-54578017D01*
X44869155Y-54572854D01*
X45023787Y-54452042D01*
X45030771Y-54445391D01*
X45158990Y-54296848D01*
X45164546Y-54288973D01*
X45261471Y-54118353D01*
X45265392Y-54109546D01*
X45327334Y-53923346D01*
X45329469Y-53913944D01*
X45343794Y-53800556D01*
X45341294Y-53787455D01*
X45339884Y-53786130D01*
X45334829Y-53785000D01*
X44415680Y-53785000D01*
X44402995Y-53789122D01*
X44400000Y-53793243D01*
X44400000Y-54714775D01*
X44200000Y-54714775D01*
X44200000Y-53800680D01*
X44195878Y-53787995D01*
X44191757Y-53785000D01*
X43270336Y-53785000D01*
X43257651Y-53789122D01*
X43255860Y-53791586D01*
X43255483Y-53794846D01*
X42805018Y-53794846D01*
X42814823Y-53717228D01*
X42815171Y-53714474D01*
X42815583Y-53685000D01*
X42805684Y-53584039D01*
X42795952Y-53484780D01*
X42795951Y-53484776D01*
X42795480Y-53479970D01*
X42789759Y-53461019D01*
X42737333Y-53287380D01*
X42735935Y-53282749D01*
X42639218Y-53100849D01*
X42526033Y-52962071D01*
X42503906Y-52905027D01*
X42519536Y-52845871D01*
X42566951Y-52807200D01*
X42602752Y-52800500D01*
X43459141Y-52800500D01*
X43517332Y-52819407D01*
X43553296Y-52868907D01*
X43553296Y-52930093D01*
X43534979Y-52963136D01*
X43432551Y-53085205D01*
X43427104Y-53093159D01*
X43332573Y-53265111D01*
X43328773Y-53273976D01*
X43269440Y-53461019D01*
X43267435Y-53470450D01*
X43256334Y-53569417D01*
X43259016Y-53582484D01*
X43260719Y-53584039D01*
X43265165Y-53585000D01*
X45329596Y-53585000D01*
X45342281Y-53580878D01*
X45343854Y-53578713D01*
X45344278Y-53574818D01*
X45335459Y-53484885D01*
X45333589Y-53475437D01*
X45276869Y-53287572D01*
X45273199Y-53278668D01*
X45181072Y-53105401D01*
X45175740Y-53097376D01*
X45065388Y-52962071D01*
X45043262Y-52905026D01*
X45058892Y-52845871D01*
X45106307Y-52807200D01*
X45142108Y-52800500D01*
X45700500Y-52800500D01*
X45758691Y-52819407D01*
X45794655Y-52868907D01*
X45799500Y-52899500D01*
X45799500Y-58044273D01*
X45799027Y-58053935D01*
X45798296Y-58061391D01*
X45795754Y-58070168D01*
X45796542Y-58079269D01*
X45796542Y-58079271D01*
X45799131Y-58109160D01*
X45799500Y-58117702D01*
X45799500Y-58127948D01*
X45800337Y-58132441D01*
X45800337Y-58132443D01*
X45800965Y-58135817D01*
X45802269Y-58145395D01*
X45804042Y-58165862D01*
X45805413Y-58181696D01*
X45809427Y-58189909D01*
X45811001Y-58195583D01*
X45813117Y-58201068D01*
X45814791Y-58210053D01*
X45819585Y-58217830D01*
X45819586Y-58217833D01*
X45833913Y-58241075D01*
X45838575Y-58249537D01*
X45854575Y-58282269D01*
X45861274Y-58288483D01*
X45864778Y-58293202D01*
X45868734Y-58297565D01*
X45873532Y-58305348D01*
X45880808Y-58310881D01*
X45880809Y-58310882D01*
X45902528Y-58327398D01*
X45909930Y-58333620D01*
X45929940Y-58352182D01*
X45929946Y-58352186D01*
X45936646Y-58358401D01*
X45945140Y-58361790D01*
X45950111Y-58364932D01*
X45955362Y-58367573D01*
X45962641Y-58373108D01*
X45997650Y-58383246D01*
X46006769Y-58386376D01*
X46040622Y-58399883D01*
X46046915Y-58400500D01*
X46047871Y-58400500D01*
X46052252Y-58401229D01*
X46052293Y-58400812D01*
X46061391Y-58401704D01*
X46070168Y-58404246D01*
X46079269Y-58403458D01*
X46079271Y-58403458D01*
X46106898Y-58401065D01*
X46109161Y-58400869D01*
X46117702Y-58400500D01*
X56844273Y-58400500D01*
X56853935Y-58400973D01*
X56861391Y-58401704D01*
X56870168Y-58404246D01*
X56879269Y-58403458D01*
X56879271Y-58403458D01*
X56906898Y-58401065D01*
X56909161Y-58400869D01*
X56917702Y-58400500D01*
X56927948Y-58400500D01*
X56932441Y-58399663D01*
X56932443Y-58399663D01*
X56935817Y-58399035D01*
X56945395Y-58397731D01*
X56972590Y-58395376D01*
X56972592Y-58395375D01*
X56981696Y-58394587D01*
X56989909Y-58390573D01*
X56995583Y-58388999D01*
X57001068Y-58386883D01*
X57010053Y-58385209D01*
X57017830Y-58380415D01*
X57017833Y-58380414D01*
X57041075Y-58366087D01*
X57049537Y-58361425D01*
X57082269Y-58345425D01*
X57088483Y-58338726D01*
X57093202Y-58335222D01*
X57097565Y-58331266D01*
X57105348Y-58326468D01*
X57117200Y-58310882D01*
X57127398Y-58297472D01*
X57133620Y-58290070D01*
X57152182Y-58270060D01*
X57152186Y-58270054D01*
X57158401Y-58263354D01*
X57161790Y-58254860D01*
X57164932Y-58249889D01*
X57167573Y-58244638D01*
X57173108Y-58237359D01*
X57183246Y-58202350D01*
X57186376Y-58193231D01*
X57199883Y-58159378D01*
X57200500Y-58153085D01*
X57200500Y-58152129D01*
X57201229Y-58147748D01*
X57200812Y-58147707D01*
X57201704Y-58138609D01*
X57204246Y-58129832D01*
X57203196Y-58117702D01*
X57200869Y-58090840D01*
X57200500Y-58082298D01*
X57200500Y-56210262D01*
X57704520Y-56210262D01*
X57721759Y-56415553D01*
X57778544Y-56613586D01*
X57872712Y-56796818D01*
X58000677Y-56958270D01*
X58004357Y-56961402D01*
X58004359Y-56961404D01*
X58117017Y-57057283D01*
X58157564Y-57091791D01*
X58161787Y-57094151D01*
X58161791Y-57094154D01*
X58250383Y-57143666D01*
X58337398Y-57192297D01*
X58341996Y-57193791D01*
X58528724Y-57254463D01*
X58528726Y-57254464D01*
X58533329Y-57255959D01*
X58737894Y-57280351D01*
X58742716Y-57279980D01*
X58742719Y-57279980D01*
X58819757Y-57274052D01*
X58943300Y-57264546D01*
X59141725Y-57209145D01*
X59146038Y-57206966D01*
X59146044Y-57206964D01*
X59321289Y-57118441D01*
X59321291Y-57118440D01*
X59325610Y-57116258D01*
X59353142Y-57094748D01*
X60249500Y-57094748D01*
X60261133Y-57153231D01*
X60305448Y-57219552D01*
X60371769Y-57263867D01*
X60381332Y-57265769D01*
X60381334Y-57265770D01*
X60404005Y-57270279D01*
X60430252Y-57275500D01*
X62169748Y-57275500D01*
X62195995Y-57270279D01*
X62218666Y-57265770D01*
X62218668Y-57265769D01*
X62228231Y-57263867D01*
X62294552Y-57219552D01*
X62338867Y-57153231D01*
X62350500Y-57094748D01*
X62350500Y-55355252D01*
X62338867Y-55296769D01*
X62294552Y-55230448D01*
X62228231Y-55186133D01*
X62218668Y-55184231D01*
X62218666Y-55184230D01*
X62192984Y-55179122D01*
X62169748Y-55174500D01*
X60430252Y-55174500D01*
X60407016Y-55179122D01*
X60381334Y-55184230D01*
X60381332Y-55184231D01*
X60371769Y-55186133D01*
X60305448Y-55230448D01*
X60261133Y-55296769D01*
X60249500Y-55355252D01*
X60249500Y-57094748D01*
X59353142Y-57094748D01*
X59360943Y-57088653D01*
X59484135Y-56992406D01*
X59484139Y-56992402D01*
X59487951Y-56989424D01*
X59622564Y-56833472D01*
X59641231Y-56800613D01*
X59721934Y-56658550D01*
X59721935Y-56658547D01*
X59724323Y-56654344D01*
X59737882Y-56613586D01*
X59787824Y-56463454D01*
X59787824Y-56463452D01*
X59789351Y-56458863D01*
X59815171Y-56254474D01*
X59815583Y-56225000D01*
X59805778Y-56125000D01*
X59795952Y-56024780D01*
X59795951Y-56024776D01*
X59795480Y-56019970D01*
X59735935Y-55822749D01*
X59639218Y-55640849D01*
X59509011Y-55481200D01*
X59362639Y-55360110D01*
X59354002Y-55352965D01*
X59354000Y-55352964D01*
X59350275Y-55349882D01*
X59169055Y-55251897D01*
X59099764Y-55230448D01*
X58976875Y-55192407D01*
X58976871Y-55192406D01*
X58972254Y-55190977D01*
X58967446Y-55190472D01*
X58967443Y-55190471D01*
X58772185Y-55169949D01*
X58772183Y-55169949D01*
X58767369Y-55169443D01*
X58711800Y-55174500D01*
X58567022Y-55187675D01*
X58567017Y-55187676D01*
X58562203Y-55188114D01*
X58364572Y-55246280D01*
X58360288Y-55248519D01*
X58360287Y-55248520D01*
X58349428Y-55254197D01*
X58182002Y-55341726D01*
X58178231Y-55344758D01*
X58025220Y-55467781D01*
X58025217Y-55467783D01*
X58021447Y-55470815D01*
X58018333Y-55474526D01*
X58018332Y-55474527D01*
X58009585Y-55484952D01*
X57889024Y-55628630D01*
X57886689Y-55632878D01*
X57886688Y-55632879D01*
X57879955Y-55645126D01*
X57789776Y-55809162D01*
X57727484Y-56005532D01*
X57726944Y-56010344D01*
X57726944Y-56010345D01*
X57714084Y-56125000D01*
X57704520Y-56210262D01*
X57200500Y-56210262D01*
X57200500Y-53794846D01*
X57715483Y-53794846D01*
X57721847Y-53870644D01*
X57723585Y-53880111D01*
X57777674Y-54068743D01*
X57781225Y-54077711D01*
X57870919Y-54252236D01*
X57876142Y-54260341D01*
X57998037Y-54414134D01*
X58004720Y-54421055D01*
X58154164Y-54548241D01*
X58162078Y-54553742D01*
X58333373Y-54649475D01*
X58342201Y-54653332D01*
X58528838Y-54713974D01*
X58538238Y-54716041D01*
X58644432Y-54728704D01*
X58657514Y-54726113D01*
X58658955Y-54724557D01*
X58660000Y-54719803D01*
X58660000Y-54714775D01*
X58860000Y-54714775D01*
X58864122Y-54727460D01*
X58866735Y-54729359D01*
X58869679Y-54729710D01*
X58938385Y-54724424D01*
X58947876Y-54722750D01*
X59136882Y-54669978D01*
X59145862Y-54666496D01*
X59321020Y-54578017D01*
X59329155Y-54572854D01*
X59483787Y-54452042D01*
X59490771Y-54445391D01*
X59618990Y-54296848D01*
X59624546Y-54288973D01*
X59721471Y-54118353D01*
X59725392Y-54109546D01*
X59787334Y-53923346D01*
X59789469Y-53913944D01*
X59803794Y-53800556D01*
X59802704Y-53794846D01*
X60255483Y-53794846D01*
X60261847Y-53870644D01*
X60263585Y-53880111D01*
X60317674Y-54068743D01*
X60321225Y-54077711D01*
X60410919Y-54252236D01*
X60416142Y-54260341D01*
X60538037Y-54414134D01*
X60544720Y-54421055D01*
X60694164Y-54548241D01*
X60702078Y-54553742D01*
X60873373Y-54649475D01*
X60882201Y-54653332D01*
X61068838Y-54713974D01*
X61078238Y-54716041D01*
X61184432Y-54728704D01*
X61197514Y-54726113D01*
X61198955Y-54724557D01*
X61200000Y-54719803D01*
X61200000Y-54714775D01*
X61400000Y-54714775D01*
X61404122Y-54727460D01*
X61406735Y-54729359D01*
X61409679Y-54729710D01*
X61478385Y-54724424D01*
X61487876Y-54722750D01*
X61676882Y-54669978D01*
X61685862Y-54666496D01*
X61861020Y-54578017D01*
X61869155Y-54572854D01*
X62023787Y-54452042D01*
X62030771Y-54445391D01*
X62158990Y-54296848D01*
X62164546Y-54288973D01*
X62261471Y-54118353D01*
X62265392Y-54109546D01*
X62327334Y-53923346D01*
X62329469Y-53913944D01*
X62343794Y-53800556D01*
X62341294Y-53787455D01*
X62339884Y-53786130D01*
X62334829Y-53785000D01*
X61415680Y-53785000D01*
X61402995Y-53789122D01*
X61400000Y-53793243D01*
X61400000Y-54714775D01*
X61200000Y-54714775D01*
X61200000Y-53800680D01*
X61195878Y-53787995D01*
X61191757Y-53785000D01*
X60270336Y-53785000D01*
X60257651Y-53789122D01*
X60255860Y-53791586D01*
X60255483Y-53794846D01*
X59802704Y-53794846D01*
X59801294Y-53787455D01*
X59799884Y-53786130D01*
X59794829Y-53785000D01*
X58875680Y-53785000D01*
X58862995Y-53789122D01*
X58860000Y-53793243D01*
X58860000Y-54714775D01*
X58660000Y-54714775D01*
X58660000Y-53800680D01*
X58655878Y-53787995D01*
X58651757Y-53785000D01*
X57730336Y-53785000D01*
X57717651Y-53789122D01*
X57715860Y-53791586D01*
X57715483Y-53794846D01*
X57200500Y-53794846D01*
X57200500Y-52899500D01*
X57219407Y-52841309D01*
X57268907Y-52805345D01*
X57299500Y-52800500D01*
X57919141Y-52800500D01*
X57977332Y-52819407D01*
X58013296Y-52868907D01*
X58013296Y-52930093D01*
X57994979Y-52963136D01*
X57892551Y-53085205D01*
X57887104Y-53093159D01*
X57792573Y-53265111D01*
X57788773Y-53273976D01*
X57729440Y-53461019D01*
X57727435Y-53470450D01*
X57716334Y-53569417D01*
X57719016Y-53582484D01*
X57720719Y-53584039D01*
X57725165Y-53585000D01*
X59789596Y-53585000D01*
X59802281Y-53580878D01*
X59803854Y-53578713D01*
X59804278Y-53574818D01*
X59795459Y-53484885D01*
X59793589Y-53475437D01*
X59736869Y-53287572D01*
X59733199Y-53278668D01*
X59641072Y-53105401D01*
X59635740Y-53097376D01*
X59525388Y-52962071D01*
X59503262Y-52905026D01*
X59518892Y-52845871D01*
X59566307Y-52807200D01*
X59602108Y-52800500D01*
X60459141Y-52800500D01*
X60517332Y-52819407D01*
X60553296Y-52868907D01*
X60553296Y-52930093D01*
X60534979Y-52963136D01*
X60432551Y-53085205D01*
X60427104Y-53093159D01*
X60332573Y-53265111D01*
X60328773Y-53273976D01*
X60269440Y-53461019D01*
X60267435Y-53470450D01*
X60256334Y-53569417D01*
X60259016Y-53582484D01*
X60260719Y-53584039D01*
X60265165Y-53585000D01*
X62329596Y-53585000D01*
X62342281Y-53580878D01*
X62343854Y-53578713D01*
X62344278Y-53574818D01*
X62335459Y-53484885D01*
X62333589Y-53475437D01*
X62276869Y-53287572D01*
X62273199Y-53278668D01*
X62181072Y-53105401D01*
X62175740Y-53097376D01*
X62065388Y-52962071D01*
X62043262Y-52905026D01*
X62058892Y-52845871D01*
X62106307Y-52807200D01*
X62142108Y-52800500D01*
X62700500Y-52800500D01*
X62758691Y-52819407D01*
X62794655Y-52868907D01*
X62799500Y-52899500D01*
X62799500Y-58044273D01*
X62799027Y-58053935D01*
X62798296Y-58061391D01*
X62795754Y-58070168D01*
X62796542Y-58079269D01*
X62796542Y-58079271D01*
X62799131Y-58109160D01*
X62799500Y-58117702D01*
X62799500Y-58127948D01*
X62800337Y-58132441D01*
X62800337Y-58132443D01*
X62800965Y-58135817D01*
X62802269Y-58145395D01*
X62804042Y-58165862D01*
X62805413Y-58181696D01*
X62809427Y-58189909D01*
X62811001Y-58195583D01*
X62813117Y-58201068D01*
X62814791Y-58210053D01*
X62819585Y-58217830D01*
X62819586Y-58217833D01*
X62833913Y-58241075D01*
X62838575Y-58249537D01*
X62854575Y-58282269D01*
X62861274Y-58288483D01*
X62864778Y-58293202D01*
X62868734Y-58297565D01*
X62873532Y-58305348D01*
X62880808Y-58310881D01*
X62880809Y-58310882D01*
X62902528Y-58327398D01*
X62909930Y-58333620D01*
X62929940Y-58352182D01*
X62929946Y-58352186D01*
X62936646Y-58358401D01*
X62945140Y-58361790D01*
X62950111Y-58364932D01*
X62955362Y-58367573D01*
X62962641Y-58373108D01*
X62997650Y-58383246D01*
X63006769Y-58386376D01*
X63040622Y-58399883D01*
X63046915Y-58400500D01*
X63047871Y-58400500D01*
X63052252Y-58401229D01*
X63052293Y-58400812D01*
X63061391Y-58401704D01*
X63070168Y-58404246D01*
X63079269Y-58403458D01*
X63079271Y-58403458D01*
X63106898Y-58401065D01*
X63109161Y-58400869D01*
X63117702Y-58400500D01*
X73844273Y-58400500D01*
X73853935Y-58400973D01*
X73861391Y-58401704D01*
X73870168Y-58404246D01*
X73879269Y-58403458D01*
X73879271Y-58403458D01*
X73906898Y-58401065D01*
X73909161Y-58400869D01*
X73917702Y-58400500D01*
X73927948Y-58400500D01*
X73932441Y-58399663D01*
X73932443Y-58399663D01*
X73935817Y-58399035D01*
X73945395Y-58397731D01*
X73972590Y-58395376D01*
X73972592Y-58395375D01*
X73981696Y-58394587D01*
X73989909Y-58390573D01*
X73995583Y-58388999D01*
X74001068Y-58386883D01*
X74010053Y-58385209D01*
X74017830Y-58380415D01*
X74017833Y-58380414D01*
X74041075Y-58366087D01*
X74049537Y-58361425D01*
X74082269Y-58345425D01*
X74088483Y-58338726D01*
X74093202Y-58335222D01*
X74097565Y-58331266D01*
X74105348Y-58326468D01*
X74117200Y-58310882D01*
X74127398Y-58297472D01*
X74133620Y-58290070D01*
X74152182Y-58270060D01*
X74152186Y-58270054D01*
X74158401Y-58263354D01*
X74161790Y-58254860D01*
X74164932Y-58249889D01*
X74167573Y-58244638D01*
X74173108Y-58237359D01*
X74183246Y-58202350D01*
X74186376Y-58193231D01*
X74199883Y-58159378D01*
X74200500Y-58153085D01*
X74200500Y-58152129D01*
X74201229Y-58147748D01*
X74200812Y-58147707D01*
X74201704Y-58138609D01*
X74204246Y-58129832D01*
X74203196Y-58117702D01*
X74200869Y-58090840D01*
X74200500Y-58082298D01*
X74200500Y-56210262D01*
X74704520Y-56210262D01*
X74721759Y-56415553D01*
X74778544Y-56613586D01*
X74872712Y-56796818D01*
X75000677Y-56958270D01*
X75004357Y-56961402D01*
X75004359Y-56961404D01*
X75117017Y-57057283D01*
X75157564Y-57091791D01*
X75161787Y-57094151D01*
X75161791Y-57094154D01*
X75250383Y-57143666D01*
X75337398Y-57192297D01*
X75341996Y-57193791D01*
X75528724Y-57254463D01*
X75528726Y-57254464D01*
X75533329Y-57255959D01*
X75737894Y-57280351D01*
X75742716Y-57279980D01*
X75742719Y-57279980D01*
X75819757Y-57274052D01*
X75943300Y-57264546D01*
X76141725Y-57209145D01*
X76146038Y-57206966D01*
X76146044Y-57206964D01*
X76321289Y-57118441D01*
X76321291Y-57118440D01*
X76325610Y-57116258D01*
X76359424Y-57089840D01*
X77250000Y-57089840D01*
X77250948Y-57099462D01*
X77259702Y-57143474D01*
X77267021Y-57161142D01*
X77300389Y-57211082D01*
X77313918Y-57224611D01*
X77363858Y-57257979D01*
X77381526Y-57265298D01*
X77425538Y-57274052D01*
X77435160Y-57275000D01*
X78184320Y-57275000D01*
X78197005Y-57270878D01*
X78200000Y-57266757D01*
X78200000Y-57259320D01*
X78400000Y-57259320D01*
X78404122Y-57272005D01*
X78408243Y-57275000D01*
X79164840Y-57275000D01*
X79174462Y-57274052D01*
X79218474Y-57265298D01*
X79236142Y-57257979D01*
X79286082Y-57224611D01*
X79299611Y-57211082D01*
X79332979Y-57161142D01*
X79340298Y-57143474D01*
X79349052Y-57099462D01*
X79350000Y-57089840D01*
X79350000Y-56340680D01*
X79345878Y-56327995D01*
X79341757Y-56325000D01*
X78415680Y-56325000D01*
X78402995Y-56329122D01*
X78400000Y-56333243D01*
X78400000Y-57259320D01*
X78200000Y-57259320D01*
X78200000Y-56340680D01*
X78195878Y-56327995D01*
X78191757Y-56325000D01*
X77265680Y-56325000D01*
X77252995Y-56329122D01*
X77250000Y-56333243D01*
X77250000Y-57089840D01*
X76359424Y-57089840D01*
X76360943Y-57088653D01*
X76484135Y-56992406D01*
X76484139Y-56992402D01*
X76487951Y-56989424D01*
X76622564Y-56833472D01*
X76641231Y-56800613D01*
X76721934Y-56658550D01*
X76721935Y-56658547D01*
X76724323Y-56654344D01*
X76737882Y-56613586D01*
X76787824Y-56463454D01*
X76787824Y-56463452D01*
X76789351Y-56458863D01*
X76815171Y-56254474D01*
X76815583Y-56225000D01*
X76805778Y-56125000D01*
X76804241Y-56109320D01*
X77250000Y-56109320D01*
X77254122Y-56122005D01*
X77258243Y-56125000D01*
X78184320Y-56125000D01*
X78197005Y-56120878D01*
X78200000Y-56116757D01*
X78200000Y-56109320D01*
X78400000Y-56109320D01*
X78404122Y-56122005D01*
X78408243Y-56125000D01*
X79334320Y-56125000D01*
X79347005Y-56120878D01*
X79350000Y-56116757D01*
X79350000Y-55360160D01*
X79349052Y-55350538D01*
X79340298Y-55306526D01*
X79332979Y-55288858D01*
X79299611Y-55238918D01*
X79286082Y-55225389D01*
X79236142Y-55192021D01*
X79218474Y-55184702D01*
X79174462Y-55175948D01*
X79164840Y-55175000D01*
X78415680Y-55175000D01*
X78402995Y-55179122D01*
X78400000Y-55183243D01*
X78400000Y-56109320D01*
X78200000Y-56109320D01*
X78200000Y-55190680D01*
X78195878Y-55177995D01*
X78191757Y-55175000D01*
X77435160Y-55175000D01*
X77425538Y-55175948D01*
X77381526Y-55184702D01*
X77363858Y-55192021D01*
X77313918Y-55225389D01*
X77300389Y-55238918D01*
X77267021Y-55288858D01*
X77259702Y-55306526D01*
X77250948Y-55350538D01*
X77250000Y-55360160D01*
X77250000Y-56109320D01*
X76804241Y-56109320D01*
X76795952Y-56024780D01*
X76795951Y-56024776D01*
X76795480Y-56019970D01*
X76735935Y-55822749D01*
X76639218Y-55640849D01*
X76509011Y-55481200D01*
X76362639Y-55360110D01*
X76354002Y-55352965D01*
X76354000Y-55352964D01*
X76350275Y-55349882D01*
X76169055Y-55251897D01*
X76099764Y-55230448D01*
X75976875Y-55192407D01*
X75976871Y-55192406D01*
X75972254Y-55190977D01*
X75967446Y-55190472D01*
X75967443Y-55190471D01*
X75772185Y-55169949D01*
X75772183Y-55169949D01*
X75767369Y-55169443D01*
X75711800Y-55174500D01*
X75567022Y-55187675D01*
X75567017Y-55187676D01*
X75562203Y-55188114D01*
X75364572Y-55246280D01*
X75360288Y-55248519D01*
X75360287Y-55248520D01*
X75349428Y-55254197D01*
X75182002Y-55341726D01*
X75178231Y-55344758D01*
X75025220Y-55467781D01*
X75025217Y-55467783D01*
X75021447Y-55470815D01*
X75018333Y-55474526D01*
X75018332Y-55474527D01*
X75009585Y-55484952D01*
X74889024Y-55628630D01*
X74886689Y-55632878D01*
X74886688Y-55632879D01*
X74879955Y-55645126D01*
X74789776Y-55809162D01*
X74727484Y-56005532D01*
X74726944Y-56010344D01*
X74726944Y-56010345D01*
X74714084Y-56125000D01*
X74704520Y-56210262D01*
X74200500Y-56210262D01*
X74200500Y-52899500D01*
X74219407Y-52841309D01*
X74268907Y-52805345D01*
X74299500Y-52800500D01*
X74918488Y-52800500D01*
X74976679Y-52819407D01*
X75012643Y-52868907D01*
X75012643Y-52930093D01*
X74994326Y-52963136D01*
X74889024Y-53088630D01*
X74886689Y-53092878D01*
X74886688Y-53092879D01*
X74879955Y-53105126D01*
X74789776Y-53269162D01*
X74788313Y-53273775D01*
X74788311Y-53273779D01*
X74785466Y-53282749D01*
X74727484Y-53465532D01*
X74726944Y-53470344D01*
X74726944Y-53470345D01*
X74714084Y-53585000D01*
X74704520Y-53670262D01*
X74704925Y-53675082D01*
X74721347Y-53870644D01*
X74721759Y-53875553D01*
X74778544Y-54073586D01*
X74872712Y-54256818D01*
X75000677Y-54418270D01*
X75004357Y-54421402D01*
X75004359Y-54421404D01*
X75117017Y-54517283D01*
X75157564Y-54551791D01*
X75161787Y-54554151D01*
X75161791Y-54554154D01*
X75205248Y-54578441D01*
X75337398Y-54652297D01*
X75341996Y-54653791D01*
X75528724Y-54714463D01*
X75528726Y-54714464D01*
X75533329Y-54715959D01*
X75737894Y-54740351D01*
X75742716Y-54739980D01*
X75742719Y-54739980D01*
X75810541Y-54734761D01*
X75943300Y-54724546D01*
X76141725Y-54669145D01*
X76146038Y-54666966D01*
X76146044Y-54666964D01*
X76321289Y-54578441D01*
X76321291Y-54578440D01*
X76325610Y-54576258D01*
X76353902Y-54554154D01*
X76484135Y-54452406D01*
X76484139Y-54452402D01*
X76487951Y-54449424D01*
X76491433Y-54445391D01*
X76547313Y-54380651D01*
X76622564Y-54293472D01*
X76641385Y-54260341D01*
X76721934Y-54118550D01*
X76721935Y-54118547D01*
X76724323Y-54114344D01*
X76725920Y-54109546D01*
X76787824Y-53923454D01*
X76787824Y-53923452D01*
X76789351Y-53918863D01*
X76789973Y-53913944D01*
X76805018Y-53794846D01*
X77255483Y-53794846D01*
X77261847Y-53870644D01*
X77263585Y-53880111D01*
X77317674Y-54068743D01*
X77321225Y-54077711D01*
X77410919Y-54252236D01*
X77416142Y-54260341D01*
X77538037Y-54414134D01*
X77544720Y-54421055D01*
X77694164Y-54548241D01*
X77702078Y-54553742D01*
X77873373Y-54649475D01*
X77882201Y-54653332D01*
X78068838Y-54713974D01*
X78078238Y-54716041D01*
X78184432Y-54728704D01*
X78197514Y-54726113D01*
X78198955Y-54724557D01*
X78200000Y-54719803D01*
X78200000Y-54714775D01*
X78400000Y-54714775D01*
X78404122Y-54727460D01*
X78406735Y-54729359D01*
X78409679Y-54729710D01*
X78478385Y-54724424D01*
X78487876Y-54722750D01*
X78676882Y-54669978D01*
X78685862Y-54666496D01*
X78861020Y-54578017D01*
X78869155Y-54572854D01*
X79023787Y-54452042D01*
X79030771Y-54445391D01*
X79158990Y-54296848D01*
X79164546Y-54288973D01*
X79261471Y-54118353D01*
X79265392Y-54109546D01*
X79327334Y-53923346D01*
X79329469Y-53913944D01*
X79343794Y-53800556D01*
X79341294Y-53787455D01*
X79339884Y-53786130D01*
X79334829Y-53785000D01*
X78415680Y-53785000D01*
X78402995Y-53789122D01*
X78400000Y-53793243D01*
X78400000Y-54714775D01*
X78200000Y-54714775D01*
X78200000Y-53800680D01*
X78195878Y-53787995D01*
X78191757Y-53785000D01*
X77270336Y-53785000D01*
X77257651Y-53789122D01*
X77255860Y-53791586D01*
X77255483Y-53794846D01*
X76805018Y-53794846D01*
X76814823Y-53717228D01*
X76815171Y-53714474D01*
X76815583Y-53685000D01*
X76805684Y-53584039D01*
X76795952Y-53484780D01*
X76795951Y-53484776D01*
X76795480Y-53479970D01*
X76789759Y-53461019D01*
X76737333Y-53287380D01*
X76735935Y-53282749D01*
X76639218Y-53100849D01*
X76526033Y-52962071D01*
X76503906Y-52905027D01*
X76519536Y-52845871D01*
X76566951Y-52807200D01*
X76602752Y-52800500D01*
X77459141Y-52800500D01*
X77517332Y-52819407D01*
X77553296Y-52868907D01*
X77553296Y-52930093D01*
X77534979Y-52963136D01*
X77432551Y-53085205D01*
X77427104Y-53093159D01*
X77332573Y-53265111D01*
X77328773Y-53273976D01*
X77269440Y-53461019D01*
X77267435Y-53470450D01*
X77256334Y-53569417D01*
X77259016Y-53582484D01*
X77260719Y-53584039D01*
X77265165Y-53585000D01*
X79329596Y-53585000D01*
X79342281Y-53580878D01*
X79343854Y-53578713D01*
X79344278Y-53574818D01*
X79335459Y-53484885D01*
X79333589Y-53475437D01*
X79276869Y-53287572D01*
X79273199Y-53278668D01*
X79181072Y-53105401D01*
X79175740Y-53097376D01*
X79065388Y-52962071D01*
X79043262Y-52905026D01*
X79058892Y-52845871D01*
X79106307Y-52807200D01*
X79142108Y-52800500D01*
X79600500Y-52800500D01*
X79658691Y-52819407D01*
X79694655Y-52868907D01*
X79699500Y-52899500D01*
X79699500Y-60046492D01*
X79699197Y-60050617D01*
X79697575Y-60055342D01*
X79697918Y-60064476D01*
X79699430Y-60104761D01*
X79699500Y-60108474D01*
X79699500Y-60127948D01*
X79700325Y-60132378D01*
X79700661Y-60137571D01*
X79701774Y-60167208D01*
X79705380Y-60175602D01*
X79705381Y-60175605D01*
X79706317Y-60177783D01*
X79712683Y-60198734D01*
X79714791Y-60210053D01*
X79719588Y-60217835D01*
X79728768Y-60232728D01*
X79735452Y-60245596D01*
X79743082Y-60263354D01*
X79745964Y-60270063D01*
X79749978Y-60274949D01*
X79754342Y-60279313D01*
X79768613Y-60297368D01*
X79773532Y-60305348D01*
X79796769Y-60323018D01*
X79806839Y-60331810D01*
X81670504Y-62195475D01*
X81698281Y-62249992D01*
X81699500Y-62265479D01*
X81699500Y-64934521D01*
X81680593Y-64992712D01*
X81670504Y-65004525D01*
X79825349Y-66849680D01*
X79822220Y-66852380D01*
X79817731Y-66854575D01*
X79784079Y-66890853D01*
X79781533Y-66893496D01*
X79767752Y-66907277D01*
X79765207Y-66910987D01*
X79761771Y-66914900D01*
X79741599Y-66936646D01*
X79738212Y-66945134D01*
X79738212Y-66945135D01*
X79737334Y-66947336D01*
X79727020Y-66966652D01*
X79725679Y-66968607D01*
X79725678Y-66968610D01*
X79720508Y-66976146D01*
X79718398Y-66985038D01*
X79714359Y-67002058D01*
X79709986Y-67015884D01*
X79703241Y-67032792D01*
X79700117Y-67040622D01*
X79699500Y-67046915D01*
X79699500Y-67053084D01*
X79696825Y-67075943D01*
X79694660Y-67085066D01*
X79698596Y-67113987D01*
X79699500Y-67127337D01*
X79699500Y-92048847D01*
X79697961Y-92060902D01*
X79697337Y-92069817D01*
X79695040Y-92078668D01*
X79696083Y-92087752D01*
X79698854Y-92111894D01*
X79699500Y-92123184D01*
X79699500Y-92127948D01*
X79701991Y-92141320D01*
X79703015Y-92148138D01*
X79707807Y-92189883D01*
X79711893Y-92197682D01*
X79712225Y-92199031D01*
X79712607Y-92200136D01*
X79713180Y-92201400D01*
X79714791Y-92210053D01*
X79719586Y-92217832D01*
X79736841Y-92245825D01*
X79740259Y-92251831D01*
X79756511Y-92282853D01*
X79756515Y-92282859D01*
X79759756Y-92289045D01*
X79764132Y-92293609D01*
X79765972Y-92295187D01*
X79767459Y-92296593D01*
X79769284Y-92298457D01*
X79773532Y-92305348D01*
X79809306Y-92332551D01*
X79813794Y-92336176D01*
X80323399Y-92772981D01*
X80497749Y-92922424D01*
X80500648Y-92925008D01*
X80536646Y-92958401D01*
X80561711Y-92968401D01*
X80574596Y-92974658D01*
X80597947Y-92988168D01*
X80606974Y-92989590D01*
X80606978Y-92989591D01*
X80608976Y-92989906D01*
X80630259Y-92995748D01*
X80640622Y-92999883D01*
X80646915Y-93000500D01*
X80668491Y-93000500D01*
X80683896Y-93001706D01*
X80708528Y-93005586D01*
X80721856Y-93002717D01*
X80742690Y-93000500D01*
X81491211Y-93000500D01*
X81495096Y-93000576D01*
X81544138Y-93002502D01*
X81552786Y-92999549D01*
X81552788Y-92999549D01*
X81569666Y-92993786D01*
X81583528Y-92990150D01*
X81601066Y-92986884D01*
X81601072Y-92986882D01*
X81610053Y-92985209D01*
X81617831Y-92980414D01*
X81617835Y-92980413D01*
X81619563Y-92979348D01*
X81639515Y-92969938D01*
X81641980Y-92969096D01*
X81650078Y-92966331D01*
X81655258Y-92962704D01*
X81657089Y-92961135D01*
X81657104Y-92961123D01*
X81671643Y-92948661D01*
X81684116Y-92939556D01*
X81705348Y-92926468D01*
X81713599Y-92915617D01*
X81727976Y-92900374D01*
X81945285Y-92714109D01*
X81992001Y-92674067D01*
X82048487Y-92650552D01*
X82108007Y-92664730D01*
X82147826Y-92711186D01*
X82155429Y-92749439D01*
X82151489Y-94637241D01*
X82151467Y-94647576D01*
X82132438Y-94705727D01*
X82082863Y-94741587D01*
X82021678Y-94741460D01*
X81988039Y-94722536D01*
X81702237Y-94477564D01*
X81699337Y-94474978D01*
X81670056Y-94447816D01*
X81663354Y-94441599D01*
X81638289Y-94431599D01*
X81625405Y-94425342D01*
X81615457Y-94419587D01*
X81602053Y-94411832D01*
X81593026Y-94410410D01*
X81593022Y-94410409D01*
X81591024Y-94410094D01*
X81569742Y-94404252D01*
X81569118Y-94404003D01*
X81559378Y-94400117D01*
X81553085Y-94399500D01*
X81531509Y-94399500D01*
X81516105Y-94398294D01*
X81503680Y-94396337D01*
X81491472Y-94394414D01*
X81482539Y-94396337D01*
X81478145Y-94397283D01*
X81457310Y-94399500D01*
X80708789Y-94399500D01*
X80704904Y-94399424D01*
X80704000Y-94399388D01*
X80655862Y-94397498D01*
X80647214Y-94400451D01*
X80647212Y-94400451D01*
X80630334Y-94406214D01*
X80616472Y-94409850D01*
X80598934Y-94413116D01*
X80598928Y-94413118D01*
X80589947Y-94414791D01*
X80582169Y-94419586D01*
X80582165Y-94419587D01*
X80580437Y-94420652D01*
X80560485Y-94430062D01*
X80558020Y-94430904D01*
X80549922Y-94433669D01*
X80544742Y-94437296D01*
X80542911Y-94438865D01*
X80542896Y-94438877D01*
X80528357Y-94451339D01*
X80515884Y-94460444D01*
X80494652Y-94473532D01*
X80489120Y-94480807D01*
X80486398Y-94484386D01*
X80472023Y-94499626D01*
X79843273Y-95038555D01*
X79833117Y-95045233D01*
X79825941Y-95050562D01*
X79817731Y-95054575D01*
X79811518Y-95061273D01*
X79811515Y-95061275D01*
X79794986Y-95079094D01*
X79786839Y-95086927D01*
X79786679Y-95087064D01*
X79786675Y-95087068D01*
X79783217Y-95090032D01*
X79780360Y-95093579D01*
X79780358Y-95093581D01*
X79774684Y-95100625D01*
X79770166Y-95105850D01*
X79741599Y-95136646D01*
X79738336Y-95144824D01*
X79737527Y-95145956D01*
X79736944Y-95146952D01*
X79736354Y-95148216D01*
X79730830Y-95155075D01*
X79728044Y-95163780D01*
X79718020Y-95195097D01*
X79715684Y-95201601D01*
X79703333Y-95232560D01*
X79700117Y-95240622D01*
X79699500Y-95246915D01*
X79699500Y-95249334D01*
X79699400Y-95251377D01*
X79699172Y-95253983D01*
X79696705Y-95261691D01*
X79697239Y-95270814D01*
X79697239Y-95270816D01*
X79699331Y-95306537D01*
X79699500Y-95312324D01*
X79699500Y-110146492D01*
X79699197Y-110150617D01*
X79697575Y-110155342D01*
X79697918Y-110164476D01*
X79699430Y-110204761D01*
X79699500Y-110208474D01*
X79699500Y-110227948D01*
X79700325Y-110232378D01*
X79700661Y-110237571D01*
X79701774Y-110267208D01*
X79705380Y-110275602D01*
X79705381Y-110275605D01*
X79706317Y-110277783D01*
X79712683Y-110298734D01*
X79714791Y-110310053D01*
X79719588Y-110317835D01*
X79728768Y-110332728D01*
X79735452Y-110345596D01*
X79743082Y-110363354D01*
X79745964Y-110370063D01*
X79749978Y-110374949D01*
X79754342Y-110379313D01*
X79768613Y-110397368D01*
X79773532Y-110405348D01*
X79796769Y-110423018D01*
X79806839Y-110431810D01*
X81670504Y-112295475D01*
X81698281Y-112349992D01*
X81699500Y-112365479D01*
X81699500Y-115134521D01*
X81680593Y-115192712D01*
X81670504Y-115204525D01*
X79825349Y-117049680D01*
X79822220Y-117052380D01*
X79817731Y-117054575D01*
X79811513Y-117061278D01*
X79784107Y-117090822D01*
X79781531Y-117093498D01*
X79767752Y-117107277D01*
X79765207Y-117110987D01*
X79761771Y-117114900D01*
X79741599Y-117136646D01*
X79738212Y-117145134D01*
X79738212Y-117145135D01*
X79737334Y-117147336D01*
X79727020Y-117166652D01*
X79725679Y-117168607D01*
X79725678Y-117168610D01*
X79720508Y-117176146D01*
X79716257Y-117194060D01*
X79714359Y-117202058D01*
X79709986Y-117215884D01*
X79702706Y-117234132D01*
X79700117Y-117240622D01*
X79699500Y-117246915D01*
X79699500Y-117253084D01*
X79696825Y-117275943D01*
X79694660Y-117285066D01*
X79698596Y-117313987D01*
X79699500Y-117327337D01*
X79699500Y-119000500D01*
X79680593Y-119058691D01*
X79631093Y-119094655D01*
X79600500Y-119099500D01*
X77483184Y-119099500D01*
X77424993Y-119080593D01*
X77389029Y-119031093D01*
X77389029Y-118969907D01*
X77402188Y-118943574D01*
X77421261Y-118916437D01*
X77421265Y-118916430D01*
X77424693Y-118911552D01*
X77484083Y-118759224D01*
X77500500Y-118634527D01*
X77500500Y-117449004D01*
X77494371Y-117398353D01*
X77486536Y-117333609D01*
X77486535Y-117333606D01*
X77485819Y-117327687D01*
X77428027Y-117174745D01*
X77423809Y-117168607D01*
X77343646Y-117051971D01*
X77335421Y-117040003D01*
X77254355Y-116967776D01*
X77217802Y-116935208D01*
X77217800Y-116935207D01*
X77213348Y-116931240D01*
X77205726Y-116927204D01*
X77159868Y-116902924D01*
X77068855Y-116854735D01*
X76913767Y-116815780D01*
X76861936Y-116783267D01*
X76839114Y-116726497D01*
X76853849Y-116668261D01*
X76858401Y-116663354D01*
X76868401Y-116638289D01*
X76874658Y-116625405D01*
X76875330Y-116624243D01*
X76888168Y-116602053D01*
X76889590Y-116593026D01*
X76889591Y-116593022D01*
X76889906Y-116591024D01*
X76895748Y-116569742D01*
X76897292Y-116565871D01*
X76899883Y-116559378D01*
X76900500Y-116553085D01*
X76900500Y-116531509D01*
X76901706Y-116516105D01*
X76904164Y-116500499D01*
X76905586Y-116491472D01*
X76902717Y-116478144D01*
X76900500Y-116457310D01*
X76900500Y-115605727D01*
X76900973Y-115596065D01*
X76901704Y-115588609D01*
X76904246Y-115579832D01*
X76903196Y-115567702D01*
X76900869Y-115540840D01*
X76900500Y-115532298D01*
X76900500Y-115522052D01*
X76899663Y-115517557D01*
X76899035Y-115514183D01*
X76897731Y-115504605D01*
X76895376Y-115477410D01*
X76895375Y-115477408D01*
X76894587Y-115468304D01*
X76890573Y-115460091D01*
X76888999Y-115454417D01*
X76886883Y-115448932D01*
X76885209Y-115439947D01*
X76880415Y-115432170D01*
X76880414Y-115432167D01*
X76866087Y-115408925D01*
X76861425Y-115400463D01*
X76845425Y-115367731D01*
X76838726Y-115361517D01*
X76835222Y-115356798D01*
X76831266Y-115352435D01*
X76826468Y-115344652D01*
X76819192Y-115339119D01*
X76819191Y-115339118D01*
X76797472Y-115322602D01*
X76790070Y-115316380D01*
X76770060Y-115297818D01*
X76770054Y-115297814D01*
X76763354Y-115291599D01*
X76754860Y-115288210D01*
X76749889Y-115285068D01*
X76744638Y-115282427D01*
X76737359Y-115276892D01*
X76702350Y-115266754D01*
X76693231Y-115263624D01*
X76659378Y-115250117D01*
X76653085Y-115249500D01*
X76652129Y-115249500D01*
X76647748Y-115248771D01*
X76647707Y-115249188D01*
X76638609Y-115248296D01*
X76629832Y-115245754D01*
X76620731Y-115246542D01*
X76620729Y-115246542D01*
X76594996Y-115248771D01*
X76592041Y-115249027D01*
X76590840Y-115249131D01*
X76582298Y-115249500D01*
X76247170Y-115249500D01*
X76188979Y-115230593D01*
X76153015Y-115181093D01*
X76153015Y-115119907D01*
X76182089Y-115075898D01*
X76201185Y-115059239D01*
X76205681Y-115055317D01*
X76227010Y-115024969D01*
X76234090Y-115016037D01*
X76254792Y-114992802D01*
X76254793Y-114992800D01*
X76258760Y-114988348D01*
X76274216Y-114959155D01*
X76280701Y-114948575D01*
X76299693Y-114921552D01*
X76313168Y-114886990D01*
X76317913Y-114876626D01*
X76318657Y-114875221D01*
X76335265Y-114843855D01*
X76336718Y-114838069D01*
X76336720Y-114838065D01*
X76343309Y-114811832D01*
X76347088Y-114799991D01*
X76356914Y-114774788D01*
X76356914Y-114774786D01*
X76359083Y-114769224D01*
X76363925Y-114732450D01*
X76366060Y-114721258D01*
X76373641Y-114691075D01*
X76373642Y-114691071D01*
X76375095Y-114685284D01*
X76375294Y-114647156D01*
X76375346Y-114645694D01*
X76375500Y-114644527D01*
X76375500Y-114608257D01*
X76375501Y-114607739D01*
X76375930Y-114525869D01*
X76375930Y-114525863D01*
X76375951Y-114521790D01*
X76375613Y-114520384D01*
X76375500Y-114518418D01*
X76375500Y-113459004D01*
X76368297Y-113399481D01*
X76361536Y-113343609D01*
X76361535Y-113343606D01*
X76360819Y-113337687D01*
X76303027Y-113184745D01*
X76298700Y-113178448D01*
X76213801Y-113054921D01*
X76210421Y-113050003D01*
X76088348Y-112941240D01*
X76080726Y-112937204D01*
X75997136Y-112892946D01*
X75943855Y-112864735D01*
X75864569Y-112844820D01*
X75791074Y-112826359D01*
X75791071Y-112826359D01*
X75785284Y-112824905D01*
X75702705Y-112824473D01*
X75627756Y-112824080D01*
X75627754Y-112824080D01*
X75621790Y-112824049D01*
X75615987Y-112825442D01*
X75615988Y-112825442D01*
X75468611Y-112860823D01*
X75468609Y-112860824D01*
X75462810Y-112862216D01*
X75414887Y-112886951D01*
X75322830Y-112934465D01*
X75322828Y-112934466D01*
X75317524Y-112937204D01*
X75194319Y-113044683D01*
X75100307Y-113178448D01*
X75040917Y-113330776D01*
X75040138Y-113336691D01*
X75040138Y-113336692D01*
X75027788Y-113430500D01*
X75024500Y-113455473D01*
X75024500Y-113828832D01*
X75005593Y-113887023D01*
X74956093Y-113922987D01*
X74937394Y-113927115D01*
X74843609Y-113938464D01*
X74843606Y-113938465D01*
X74837687Y-113939181D01*
X74684745Y-113996973D01*
X74679828Y-114000353D01*
X74679825Y-114000354D01*
X74570445Y-114075529D01*
X74550003Y-114089579D01*
X74501272Y-114144274D01*
X74446693Y-114205532D01*
X74441240Y-114211652D01*
X74438450Y-114216922D01*
X74438449Y-114216923D01*
X74431541Y-114229970D01*
X74364735Y-114356145D01*
X74363281Y-114361935D01*
X74330423Y-114492749D01*
X74324905Y-114514716D01*
X74324830Y-114529122D01*
X74324212Y-114647161D01*
X74324049Y-114678210D01*
X74325442Y-114684012D01*
X74359985Y-114827896D01*
X74362216Y-114837190D01*
X74382571Y-114876626D01*
X74419203Y-114947599D01*
X74437204Y-114982476D01*
X74466481Y-115016037D01*
X74527008Y-115085420D01*
X74551013Y-115141699D01*
X74537353Y-115201340D01*
X74491246Y-115241562D01*
X74452405Y-115249500D01*
X67196882Y-115249500D01*
X67138691Y-115230593D01*
X67102727Y-115181093D01*
X67102727Y-115119907D01*
X67122965Y-115084642D01*
X67149093Y-115055317D01*
X67208760Y-114988348D01*
X67214679Y-114977170D01*
X67241542Y-114926434D01*
X67285265Y-114843855D01*
X67317813Y-114714274D01*
X67323641Y-114691074D01*
X67323641Y-114691071D01*
X67325095Y-114685284D01*
X67325951Y-114521790D01*
X67309124Y-114451699D01*
X67289177Y-114368611D01*
X67289176Y-114368609D01*
X67287784Y-114362810D01*
X67219220Y-114229970D01*
X67215535Y-114222830D01*
X67215534Y-114222828D01*
X67212796Y-114217524D01*
X67105317Y-114094319D01*
X66981223Y-114007104D01*
X66976431Y-114003736D01*
X66971552Y-114000307D01*
X66819224Y-113940917D01*
X66813309Y-113940138D01*
X66813308Y-113940138D01*
X66766140Y-113933928D01*
X66711578Y-113926745D01*
X66656353Y-113900404D01*
X66627158Y-113846633D01*
X66625500Y-113828592D01*
X66625500Y-113459004D01*
X66618297Y-113399481D01*
X66611536Y-113343609D01*
X66611535Y-113343606D01*
X66610819Y-113337687D01*
X66553027Y-113184745D01*
X66548700Y-113178448D01*
X66463801Y-113054921D01*
X66460421Y-113050003D01*
X66338348Y-112941240D01*
X66330726Y-112937204D01*
X66247136Y-112892946D01*
X66193855Y-112864735D01*
X66114569Y-112844820D01*
X66041074Y-112826359D01*
X66041071Y-112826359D01*
X66035284Y-112824905D01*
X65952705Y-112824473D01*
X65877756Y-112824080D01*
X65877754Y-112824080D01*
X65871790Y-112824049D01*
X65865987Y-112825442D01*
X65865988Y-112825442D01*
X65718611Y-112860823D01*
X65718609Y-112860824D01*
X65712810Y-112862216D01*
X65664887Y-112886951D01*
X65572830Y-112934465D01*
X65572828Y-112934466D01*
X65567524Y-112937204D01*
X65444319Y-113044683D01*
X65350307Y-113178448D01*
X65290917Y-113330776D01*
X65290138Y-113336691D01*
X65290138Y-113336692D01*
X65277788Y-113430500D01*
X65274500Y-113455473D01*
X65274500Y-114591743D01*
X65274499Y-114592261D01*
X65274212Y-114647161D01*
X65274049Y-114678210D01*
X65275442Y-114684012D01*
X65282707Y-114714274D01*
X65284725Y-114725491D01*
X65289181Y-114762313D01*
X65291291Y-114767897D01*
X65300851Y-114793199D01*
X65304506Y-114805080D01*
X65310820Y-114831379D01*
X65310823Y-114831386D01*
X65312216Y-114837190D01*
X65318702Y-114849755D01*
X65329228Y-114870149D01*
X65333864Y-114880562D01*
X65344863Y-114909671D01*
X65346973Y-114915255D01*
X65350356Y-114920177D01*
X65365675Y-114942466D01*
X65372057Y-114953129D01*
X65387204Y-114982476D01*
X65391128Y-114986974D01*
X65411584Y-115010423D01*
X65418571Y-115019430D01*
X65436199Y-115045080D01*
X65436202Y-115045084D01*
X65439579Y-115049997D01*
X65444036Y-115053968D01*
X65464232Y-115071963D01*
X65472969Y-115080791D01*
X65477001Y-115085412D01*
X65501012Y-115141689D01*
X65487359Y-115201332D01*
X65441256Y-115241558D01*
X65402405Y-115249500D01*
X65155727Y-115249500D01*
X65146065Y-115249027D01*
X65138609Y-115248296D01*
X65129832Y-115245754D01*
X65120731Y-115246542D01*
X65120729Y-115246542D01*
X65094996Y-115248771D01*
X65092041Y-115249027D01*
X65090840Y-115249131D01*
X65082298Y-115249500D01*
X65072052Y-115249500D01*
X65067559Y-115250337D01*
X65067557Y-115250337D01*
X65064183Y-115250965D01*
X65054605Y-115252269D01*
X65027410Y-115254624D01*
X65027408Y-115254625D01*
X65018304Y-115255413D01*
X65010091Y-115259427D01*
X65004417Y-115261001D01*
X64998932Y-115263117D01*
X64989947Y-115264791D01*
X64982170Y-115269585D01*
X64982167Y-115269586D01*
X64958925Y-115283913D01*
X64950463Y-115288575D01*
X64917731Y-115304575D01*
X64911517Y-115311274D01*
X64906798Y-115314778D01*
X64902435Y-115318734D01*
X64894652Y-115323532D01*
X64889119Y-115330808D01*
X64889118Y-115330809D01*
X64872602Y-115352528D01*
X64866380Y-115359930D01*
X64847818Y-115379940D01*
X64847814Y-115379946D01*
X64841599Y-115386646D01*
X64838210Y-115395140D01*
X64835068Y-115400111D01*
X64832427Y-115405362D01*
X64826892Y-115412641D01*
X64816754Y-115447650D01*
X64813624Y-115456769D01*
X64800117Y-115490622D01*
X64799500Y-115496915D01*
X64799500Y-115497871D01*
X64798771Y-115502252D01*
X64799188Y-115502293D01*
X64798296Y-115511391D01*
X64795754Y-115520168D01*
X64796542Y-115529269D01*
X64796542Y-115529271D01*
X64799131Y-115559160D01*
X64799500Y-115567702D01*
X64799500Y-116655692D01*
X64797112Y-116677304D01*
X64794493Y-116689012D01*
X64797471Y-116708959D01*
X64787363Y-116769301D01*
X64743716Y-116812180D01*
X64722667Y-116819840D01*
X64593612Y-116850823D01*
X64587810Y-116852216D01*
X64563042Y-116865000D01*
X64447830Y-116924465D01*
X64447828Y-116924466D01*
X64442524Y-116927204D01*
X64319319Y-117034683D01*
X64315890Y-117039562D01*
X64244864Y-117140622D01*
X64225307Y-117168448D01*
X64199793Y-117233888D01*
X64176601Y-117293374D01*
X64165917Y-117320776D01*
X64165138Y-117326691D01*
X64165138Y-117326692D01*
X64156231Y-117394344D01*
X64149500Y-117445473D01*
X64149500Y-118630996D01*
X64164181Y-118752313D01*
X64221973Y-118905255D01*
X64248896Y-118944428D01*
X64266273Y-119003091D01*
X64245850Y-119060767D01*
X64195425Y-119095423D01*
X64167307Y-119099500D01*
X40399500Y-119099500D01*
X40341309Y-119080593D01*
X40305345Y-119031093D01*
X40300500Y-119000500D01*
X40300500Y-117844748D01*
X41349500Y-117844748D01*
X41361133Y-117903231D01*
X41405448Y-117969552D01*
X41471769Y-118013867D01*
X41481332Y-118015769D01*
X41481334Y-118015770D01*
X41502501Y-118019980D01*
X41530252Y-118025500D01*
X43269748Y-118025500D01*
X43297499Y-118019980D01*
X43318666Y-118015770D01*
X43318668Y-118015769D01*
X43328231Y-118013867D01*
X43394552Y-117969552D01*
X43438867Y-117903231D01*
X43450500Y-117844748D01*
X43450500Y-116950262D01*
X45479520Y-116950262D01*
X45483464Y-116997228D01*
X45496347Y-117150644D01*
X45496759Y-117155553D01*
X45498092Y-117160201D01*
X45498092Y-117160202D01*
X45549396Y-117339119D01*
X45553544Y-117353586D01*
X45647712Y-117536818D01*
X45775677Y-117698270D01*
X45779357Y-117701402D01*
X45779359Y-117701404D01*
X45892017Y-117797283D01*
X45932564Y-117831791D01*
X45936787Y-117834151D01*
X45936791Y-117834154D01*
X46043276Y-117893666D01*
X46112398Y-117932297D01*
X46116996Y-117933791D01*
X46303724Y-117994463D01*
X46303726Y-117994464D01*
X46308329Y-117995959D01*
X46512894Y-118020351D01*
X46517716Y-118019980D01*
X46517719Y-118019980D01*
X46585541Y-118014761D01*
X46718300Y-118004546D01*
X46916725Y-117949145D01*
X46921038Y-117946966D01*
X46921044Y-117946964D01*
X47096289Y-117858441D01*
X47096291Y-117858440D01*
X47100610Y-117856258D01*
X47104967Y-117852854D01*
X47259135Y-117732406D01*
X47259139Y-117732402D01*
X47262951Y-117729424D01*
X47266433Y-117725391D01*
X47334863Y-117646112D01*
X47397564Y-117573472D01*
X47400120Y-117568973D01*
X47496934Y-117398550D01*
X47496935Y-117398547D01*
X47499323Y-117394344D01*
X47500920Y-117389546D01*
X47562824Y-117203454D01*
X47562824Y-117203452D01*
X47564351Y-117198863D01*
X47564973Y-117193944D01*
X47580018Y-117074846D01*
X48030483Y-117074846D01*
X48036847Y-117150644D01*
X48038585Y-117160111D01*
X48092674Y-117348743D01*
X48096225Y-117357711D01*
X48185919Y-117532236D01*
X48191142Y-117540341D01*
X48313037Y-117694134D01*
X48319720Y-117701055D01*
X48469164Y-117828241D01*
X48477078Y-117833742D01*
X48648373Y-117929475D01*
X48657201Y-117933332D01*
X48843838Y-117993974D01*
X48853238Y-117996041D01*
X48959432Y-118008704D01*
X48972514Y-118006113D01*
X48973955Y-118004557D01*
X48975000Y-117999803D01*
X48975000Y-117994775D01*
X49175000Y-117994775D01*
X49179122Y-118007460D01*
X49181735Y-118009359D01*
X49184679Y-118009710D01*
X49253385Y-118004424D01*
X49262876Y-118002750D01*
X49451882Y-117949978D01*
X49460862Y-117946496D01*
X49636020Y-117858017D01*
X49644155Y-117852854D01*
X49798787Y-117732042D01*
X49805771Y-117725391D01*
X49933990Y-117576848D01*
X49939546Y-117568973D01*
X49950317Y-117550013D01*
X59290544Y-117550013D01*
X59298428Y-117636649D01*
X59300234Y-117646112D01*
X59356745Y-117838121D01*
X59360358Y-117847062D01*
X59453087Y-118024436D01*
X59458361Y-118032497D01*
X59583781Y-118188489D01*
X59590527Y-118195377D01*
X59743850Y-118324030D01*
X59751805Y-118329477D01*
X59927195Y-118425898D01*
X59936060Y-118429698D01*
X60126843Y-118490218D01*
X60136271Y-118492222D01*
X60292013Y-118509691D01*
X60297542Y-118510000D01*
X60464320Y-118510000D01*
X60477005Y-118505878D01*
X60480000Y-118501757D01*
X60480000Y-118494320D01*
X60680000Y-118494320D01*
X60684122Y-118507005D01*
X60688243Y-118510000D01*
X60855367Y-118510000D01*
X60860222Y-118509762D01*
X61009018Y-118495172D01*
X61018466Y-118493302D01*
X61210086Y-118435449D01*
X61218990Y-118431779D01*
X61395721Y-118337810D01*
X61403747Y-118332477D01*
X61558854Y-118205974D01*
X61565691Y-118199185D01*
X61693279Y-118044958D01*
X61698663Y-118036975D01*
X61793866Y-117860902D01*
X61797595Y-117852031D01*
X61856787Y-117660815D01*
X61858723Y-117651383D01*
X61868790Y-117555593D01*
X61866017Y-117542548D01*
X61864166Y-117540881D01*
X61860022Y-117540000D01*
X60695680Y-117540000D01*
X60682995Y-117544122D01*
X60680000Y-117548243D01*
X60680000Y-118494320D01*
X60480000Y-118494320D01*
X60480000Y-117555680D01*
X60475878Y-117542995D01*
X60471757Y-117540000D01*
X59305313Y-117540000D01*
X59292628Y-117544122D01*
X59290945Y-117546437D01*
X59290544Y-117550013D01*
X49950317Y-117550013D01*
X50036471Y-117398353D01*
X50040392Y-117389546D01*
X50062061Y-117324407D01*
X59291210Y-117324407D01*
X59293983Y-117337452D01*
X59295834Y-117339119D01*
X59299978Y-117340000D01*
X60464320Y-117340000D01*
X60477005Y-117335878D01*
X60480000Y-117331757D01*
X60480000Y-117324320D01*
X60680000Y-117324320D01*
X60684122Y-117337005D01*
X60688243Y-117340000D01*
X61854687Y-117340000D01*
X61867372Y-117335878D01*
X61869055Y-117333563D01*
X61869456Y-117329987D01*
X61861572Y-117243351D01*
X61859766Y-117233888D01*
X61803255Y-117041879D01*
X61799642Y-117032938D01*
X61706913Y-116855564D01*
X61701639Y-116847503D01*
X61576219Y-116691511D01*
X61569473Y-116684623D01*
X61416150Y-116555970D01*
X61408195Y-116550523D01*
X61232805Y-116454102D01*
X61223940Y-116450302D01*
X61033157Y-116389782D01*
X61023729Y-116387778D01*
X60867987Y-116370309D01*
X60862458Y-116370000D01*
X60695680Y-116370000D01*
X60682995Y-116374122D01*
X60680000Y-116378243D01*
X60680000Y-117324320D01*
X60480000Y-117324320D01*
X60480000Y-116385680D01*
X60475878Y-116372995D01*
X60471757Y-116370000D01*
X60304633Y-116370000D01*
X60299778Y-116370238D01*
X60150982Y-116384828D01*
X60141534Y-116386698D01*
X59949914Y-116444551D01*
X59941010Y-116448221D01*
X59764279Y-116542190D01*
X59756253Y-116547523D01*
X59601146Y-116674026D01*
X59594309Y-116680815D01*
X59466721Y-116835042D01*
X59461337Y-116843025D01*
X59366134Y-117019098D01*
X59362405Y-117027969D01*
X59303213Y-117219185D01*
X59301277Y-117228617D01*
X59291210Y-117324407D01*
X50062061Y-117324407D01*
X50102334Y-117203346D01*
X50104469Y-117193944D01*
X50118794Y-117080556D01*
X50116294Y-117067455D01*
X50114884Y-117066130D01*
X50109829Y-117065000D01*
X49190680Y-117065000D01*
X49177995Y-117069122D01*
X49175000Y-117073243D01*
X49175000Y-117994775D01*
X48975000Y-117994775D01*
X48975000Y-117080680D01*
X48970878Y-117067995D01*
X48966757Y-117065000D01*
X48045336Y-117065000D01*
X48032651Y-117069122D01*
X48030860Y-117071586D01*
X48030483Y-117074846D01*
X47580018Y-117074846D01*
X47584475Y-117039562D01*
X47590171Y-116994474D01*
X47590583Y-116965000D01*
X47584064Y-116898511D01*
X47579250Y-116849417D01*
X48031334Y-116849417D01*
X48034016Y-116862484D01*
X48035719Y-116864039D01*
X48040165Y-116865000D01*
X48959320Y-116865000D01*
X48972005Y-116860878D01*
X48975000Y-116856757D01*
X48975000Y-116849320D01*
X49175000Y-116849320D01*
X49179122Y-116862005D01*
X49183243Y-116865000D01*
X50104596Y-116865000D01*
X50117281Y-116860878D01*
X50118854Y-116858713D01*
X50119278Y-116854818D01*
X50110459Y-116764885D01*
X50108589Y-116755437D01*
X50051869Y-116567572D01*
X50048199Y-116558668D01*
X49956072Y-116385401D01*
X49950740Y-116377376D01*
X49826716Y-116225307D01*
X49819922Y-116218466D01*
X49668721Y-116093381D01*
X49660738Y-116087997D01*
X49488114Y-115994660D01*
X49479243Y-115990931D01*
X49291775Y-115932900D01*
X49282341Y-115930963D01*
X49190594Y-115921320D01*
X49177548Y-115924093D01*
X49175881Y-115925945D01*
X49175000Y-115930088D01*
X49175000Y-116849320D01*
X48975000Y-116849320D01*
X48975000Y-115935396D01*
X48970878Y-115922711D01*
X48968563Y-115921028D01*
X48964987Y-115920627D01*
X48882117Y-115928168D01*
X48872654Y-115929974D01*
X48684407Y-115985378D01*
X48675466Y-115988991D01*
X48501573Y-116079899D01*
X48493497Y-116085184D01*
X48340571Y-116208140D01*
X48333687Y-116214881D01*
X48207551Y-116365205D01*
X48202104Y-116373159D01*
X48107573Y-116545111D01*
X48103773Y-116553976D01*
X48044440Y-116741019D01*
X48042435Y-116750450D01*
X48031334Y-116849417D01*
X47579250Y-116849417D01*
X47570952Y-116764780D01*
X47570951Y-116764776D01*
X47570480Y-116759970D01*
X47564759Y-116741019D01*
X47512333Y-116567380D01*
X47510935Y-116562749D01*
X47414218Y-116380849D01*
X47284011Y-116221200D01*
X47267790Y-116207781D01*
X47129002Y-116092965D01*
X47129000Y-116092964D01*
X47125275Y-116089882D01*
X46944055Y-115991897D01*
X46873934Y-115970191D01*
X46751875Y-115932407D01*
X46751871Y-115932406D01*
X46747254Y-115930977D01*
X46742446Y-115930472D01*
X46742443Y-115930471D01*
X46547185Y-115909949D01*
X46547183Y-115909949D01*
X46542369Y-115909443D01*
X46482354Y-115914905D01*
X46342022Y-115927675D01*
X46342017Y-115927676D01*
X46337203Y-115928114D01*
X46139572Y-115986280D01*
X46135288Y-115988519D01*
X46135287Y-115988520D01*
X46067528Y-116023944D01*
X45957002Y-116081726D01*
X45953231Y-116084758D01*
X45800220Y-116207781D01*
X45800217Y-116207783D01*
X45796447Y-116210815D01*
X45793333Y-116214526D01*
X45793332Y-116214527D01*
X45784287Y-116225307D01*
X45664024Y-116368630D01*
X45661689Y-116372878D01*
X45661688Y-116372879D01*
X45655119Y-116384828D01*
X45564776Y-116549162D01*
X45563313Y-116553775D01*
X45563311Y-116553779D01*
X45525167Y-116674026D01*
X45502484Y-116745532D01*
X45501944Y-116750344D01*
X45501944Y-116750345D01*
X45481209Y-116935208D01*
X45479520Y-116950262D01*
X43450500Y-116950262D01*
X43450500Y-116105252D01*
X43438867Y-116046769D01*
X43394552Y-115980448D01*
X43328231Y-115936133D01*
X43318668Y-115934231D01*
X43318666Y-115934230D01*
X43288188Y-115928168D01*
X43269748Y-115924500D01*
X41530252Y-115924500D01*
X41511812Y-115928168D01*
X41481334Y-115934230D01*
X41481332Y-115934231D01*
X41471769Y-115936133D01*
X41405448Y-115980448D01*
X41361133Y-116046769D01*
X41349500Y-116105252D01*
X41349500Y-117844748D01*
X40300500Y-117844748D01*
X40300500Y-117353508D01*
X40300803Y-117349383D01*
X40302425Y-117344658D01*
X40300570Y-117295239D01*
X40300500Y-117291526D01*
X40300500Y-117272052D01*
X40299675Y-117267622D01*
X40299338Y-117262417D01*
X40298569Y-117241925D01*
X40298226Y-117232792D01*
X40294620Y-117224398D01*
X40294619Y-117224395D01*
X40293683Y-117222217D01*
X40287317Y-117201266D01*
X40285209Y-117189947D01*
X40271232Y-117167271D01*
X40264548Y-117154404D01*
X40256795Y-117136358D01*
X40256794Y-117136357D01*
X40254036Y-117129937D01*
X40250022Y-117125051D01*
X40245658Y-117120687D01*
X40231387Y-117102632D01*
X40231264Y-117102433D01*
X40226468Y-117094652D01*
X40203231Y-117076982D01*
X40193161Y-117068190D01*
X38329496Y-115204525D01*
X38301719Y-115150008D01*
X38300500Y-115134521D01*
X38300500Y-114420262D01*
X41344520Y-114420262D01*
X41344925Y-114425082D01*
X41361310Y-114620202D01*
X41361759Y-114625553D01*
X41363092Y-114630201D01*
X41363092Y-114630202D01*
X41415677Y-114813586D01*
X41418544Y-114823586D01*
X41512712Y-115006818D01*
X41640677Y-115168270D01*
X41644357Y-115171402D01*
X41644359Y-115171404D01*
X41738886Y-115251852D01*
X41797564Y-115301791D01*
X41801787Y-115304151D01*
X41801791Y-115304154D01*
X41901591Y-115359930D01*
X41977398Y-115402297D01*
X41981996Y-115403791D01*
X42168724Y-115464463D01*
X42168726Y-115464464D01*
X42173329Y-115465959D01*
X42377894Y-115490351D01*
X42382716Y-115489980D01*
X42382719Y-115489980D01*
X42451258Y-115484706D01*
X42583300Y-115474546D01*
X42781725Y-115419145D01*
X42786038Y-115416966D01*
X42786044Y-115416964D01*
X42961289Y-115328441D01*
X42961291Y-115328440D01*
X42965610Y-115326258D01*
X42969427Y-115323276D01*
X43124135Y-115202406D01*
X43124139Y-115202402D01*
X43127951Y-115199424D01*
X43139747Y-115185759D01*
X43216583Y-115096742D01*
X43262564Y-115043472D01*
X43273075Y-115024969D01*
X43361934Y-114868550D01*
X43361935Y-114868547D01*
X43364323Y-114864344D01*
X43366251Y-114858550D01*
X43427824Y-114673454D01*
X43427824Y-114673452D01*
X43429351Y-114668863D01*
X43430035Y-114663454D01*
X43454823Y-114467228D01*
X43455171Y-114464474D01*
X43455583Y-114435000D01*
X43454603Y-114425000D01*
X43453158Y-114410262D01*
X45479520Y-114410262D01*
X45483000Y-114451699D01*
X45494760Y-114591743D01*
X45496759Y-114615553D01*
X45498092Y-114620201D01*
X45498092Y-114620202D01*
X45549646Y-114799991D01*
X45553544Y-114813586D01*
X45647712Y-114996818D01*
X45775677Y-115158270D01*
X45779357Y-115161402D01*
X45779359Y-115161404D01*
X45885636Y-115251852D01*
X45932564Y-115291791D01*
X45936787Y-115294151D01*
X45936791Y-115294154D01*
X46048143Y-115356386D01*
X46112398Y-115392297D01*
X46116996Y-115393791D01*
X46303724Y-115454463D01*
X46303726Y-115454464D01*
X46308329Y-115455959D01*
X46512894Y-115480351D01*
X46517716Y-115479980D01*
X46517719Y-115479980D01*
X46594757Y-115474052D01*
X46718300Y-115464546D01*
X46916725Y-115409145D01*
X46921038Y-115406966D01*
X46921044Y-115406964D01*
X47096289Y-115318441D01*
X47096291Y-115318440D01*
X47100610Y-115316258D01*
X47105771Y-115312226D01*
X47134424Y-115289840D01*
X48025000Y-115289840D01*
X48025948Y-115299462D01*
X48034702Y-115343474D01*
X48042021Y-115361142D01*
X48075389Y-115411082D01*
X48088918Y-115424611D01*
X48138858Y-115457979D01*
X48156526Y-115465298D01*
X48200538Y-115474052D01*
X48210160Y-115475000D01*
X48959320Y-115475000D01*
X48972005Y-115470878D01*
X48975000Y-115466757D01*
X48975000Y-115459320D01*
X49175000Y-115459320D01*
X49179122Y-115472005D01*
X49183243Y-115475000D01*
X49939840Y-115475000D01*
X49949462Y-115474052D01*
X49993474Y-115465298D01*
X50011142Y-115457979D01*
X50061082Y-115424611D01*
X50074611Y-115411082D01*
X50107979Y-115361142D01*
X50115298Y-115343474D01*
X50124052Y-115299462D01*
X50125000Y-115289840D01*
X50125000Y-114892490D01*
X59279346Y-114892490D01*
X59279785Y-114897312D01*
X59296483Y-115080791D01*
X59298373Y-115101562D01*
X59299739Y-115106204D01*
X59299740Y-115106208D01*
X59356279Y-115298310D01*
X59357647Y-115302957D01*
X59454909Y-115489003D01*
X59457945Y-115492779D01*
X59457947Y-115492782D01*
X59538338Y-115592768D01*
X59586456Y-115652614D01*
X59590161Y-115655723D01*
X59590164Y-115655726D01*
X59602803Y-115666331D01*
X59747276Y-115787558D01*
X59931245Y-115888696D01*
X59935857Y-115890159D01*
X60126735Y-115950709D01*
X60126737Y-115950709D01*
X60131354Y-115952174D01*
X60229198Y-115963149D01*
X60291980Y-115970191D01*
X60291982Y-115970191D01*
X60294736Y-115970500D01*
X60857830Y-115970500D01*
X60860224Y-115970265D01*
X60860229Y-115970265D01*
X61009124Y-115955666D01*
X61009128Y-115955665D01*
X61013934Y-115955194D01*
X61018559Y-115953798D01*
X61018562Y-115953797D01*
X61103449Y-115928168D01*
X61214910Y-115894516D01*
X61400272Y-115795957D01*
X61562961Y-115663271D01*
X61631988Y-115579832D01*
X61693696Y-115505240D01*
X61693697Y-115505238D01*
X61696779Y-115501513D01*
X61786635Y-115335329D01*
X61794330Y-115321097D01*
X61794330Y-115321096D01*
X61796630Y-115316843D01*
X61827179Y-115218154D01*
X61857280Y-115120916D01*
X61857281Y-115120912D01*
X61858710Y-115116295D01*
X61859328Y-115110421D01*
X61880148Y-114912326D01*
X61880148Y-114912324D01*
X61880654Y-114907510D01*
X61870251Y-114793199D01*
X61862066Y-114703258D01*
X61862065Y-114703255D01*
X61861627Y-114698438D01*
X61857382Y-114684012D01*
X61803721Y-114501690D01*
X61803720Y-114501687D01*
X61802353Y-114497043D01*
X61705091Y-114310997D01*
X61639944Y-114229970D01*
X61576577Y-114151158D01*
X61576576Y-114151157D01*
X61573544Y-114147386D01*
X61569839Y-114144277D01*
X61569836Y-114144274D01*
X61416439Y-114015559D01*
X61416437Y-114015558D01*
X61412724Y-114012442D01*
X61399033Y-114004915D01*
X61232995Y-113913635D01*
X61228755Y-113911304D01*
X61038176Y-113850849D01*
X61033265Y-113849291D01*
X61033263Y-113849291D01*
X61028646Y-113847826D01*
X60930802Y-113836851D01*
X60868020Y-113829809D01*
X60868018Y-113829809D01*
X60865264Y-113829500D01*
X60302170Y-113829500D01*
X60299776Y-113829735D01*
X60299771Y-113829735D01*
X60150876Y-113844334D01*
X60150872Y-113844335D01*
X60146066Y-113844806D01*
X60141441Y-113846202D01*
X60141438Y-113846203D01*
X60111884Y-113855126D01*
X59945090Y-113905484D01*
X59759728Y-114004043D01*
X59597039Y-114136729D01*
X59593955Y-114140457D01*
X59593954Y-114140458D01*
X59532005Y-114215342D01*
X59463221Y-114298487D01*
X59363370Y-114483157D01*
X59347866Y-114533243D01*
X59304838Y-114672244D01*
X59301290Y-114683705D01*
X59300785Y-114688513D01*
X59300784Y-114688516D01*
X59280483Y-114881675D01*
X59279346Y-114892490D01*
X50125000Y-114892490D01*
X50125000Y-114540680D01*
X50120878Y-114527995D01*
X50116757Y-114525000D01*
X49190680Y-114525000D01*
X49177995Y-114529122D01*
X49175000Y-114533243D01*
X49175000Y-115459320D01*
X48975000Y-115459320D01*
X48975000Y-114540680D01*
X48970878Y-114527995D01*
X48966757Y-114525000D01*
X48040680Y-114525000D01*
X48027995Y-114529122D01*
X48025000Y-114533243D01*
X48025000Y-115289840D01*
X47134424Y-115289840D01*
X47259135Y-115192406D01*
X47259139Y-115192402D01*
X47262951Y-115189424D01*
X47270143Y-115181093D01*
X47331144Y-115110421D01*
X47397564Y-115033472D01*
X47399957Y-115029260D01*
X47496934Y-114858550D01*
X47496935Y-114858547D01*
X47499323Y-114854344D01*
X47502813Y-114843855D01*
X47562824Y-114663454D01*
X47562824Y-114663452D01*
X47564351Y-114658863D01*
X47565830Y-114647161D01*
X47585964Y-114487774D01*
X47590171Y-114454474D01*
X47590583Y-114425000D01*
X47590313Y-114422244D01*
X47579241Y-114309320D01*
X48025000Y-114309320D01*
X48029122Y-114322005D01*
X48033243Y-114325000D01*
X48959320Y-114325000D01*
X48972005Y-114320878D01*
X48975000Y-114316757D01*
X48975000Y-114309320D01*
X49175000Y-114309320D01*
X49179122Y-114322005D01*
X49183243Y-114325000D01*
X50109320Y-114325000D01*
X50122005Y-114320878D01*
X50125000Y-114316757D01*
X50125000Y-113560160D01*
X50124052Y-113550538D01*
X50115298Y-113506526D01*
X50107979Y-113488858D01*
X50074611Y-113438918D01*
X50061082Y-113425389D01*
X50011142Y-113392021D01*
X49993474Y-113384702D01*
X49949462Y-113375948D01*
X49939840Y-113375000D01*
X49190680Y-113375000D01*
X49177995Y-113379122D01*
X49175000Y-113383243D01*
X49175000Y-114309320D01*
X48975000Y-114309320D01*
X48975000Y-113390680D01*
X48970878Y-113377995D01*
X48966757Y-113375000D01*
X48210160Y-113375000D01*
X48200538Y-113375948D01*
X48156526Y-113384702D01*
X48138858Y-113392021D01*
X48088918Y-113425389D01*
X48075389Y-113438918D01*
X48042021Y-113488858D01*
X48034702Y-113506526D01*
X48025948Y-113550538D01*
X48025000Y-113560160D01*
X48025000Y-114309320D01*
X47579241Y-114309320D01*
X47570952Y-114224780D01*
X47570951Y-114224776D01*
X47570480Y-114219970D01*
X47568384Y-114213026D01*
X47512333Y-114027380D01*
X47510935Y-114022749D01*
X47414218Y-113840849D01*
X47284011Y-113681200D01*
X47137363Y-113559882D01*
X47129002Y-113552965D01*
X47129000Y-113552964D01*
X47125275Y-113549882D01*
X47012413Y-113488858D01*
X46948309Y-113454197D01*
X46948308Y-113454197D01*
X46944055Y-113451897D01*
X46865302Y-113427519D01*
X46751875Y-113392407D01*
X46751871Y-113392406D01*
X46747254Y-113390977D01*
X46742446Y-113390472D01*
X46742443Y-113390471D01*
X46547185Y-113369949D01*
X46547183Y-113369949D01*
X46542369Y-113369443D01*
X46482354Y-113374905D01*
X46342022Y-113387675D01*
X46342017Y-113387676D01*
X46337203Y-113388114D01*
X46139572Y-113446280D01*
X46135288Y-113448519D01*
X46135287Y-113448520D01*
X46109518Y-113461992D01*
X45957002Y-113541726D01*
X45953231Y-113544758D01*
X45800220Y-113667781D01*
X45800217Y-113667783D01*
X45796447Y-113670815D01*
X45793333Y-113674526D01*
X45793332Y-113674527D01*
X45776194Y-113694952D01*
X45664024Y-113828630D01*
X45661689Y-113832878D01*
X45661688Y-113832879D01*
X45651809Y-113850849D01*
X45564776Y-114009162D01*
X45563313Y-114013775D01*
X45563311Y-114013779D01*
X45523127Y-114140458D01*
X45502484Y-114205532D01*
X45501944Y-114210344D01*
X45501944Y-114210345D01*
X45484843Y-114362810D01*
X45479520Y-114410262D01*
X43453158Y-114410262D01*
X43435952Y-114234780D01*
X43435951Y-114234776D01*
X43435480Y-114229970D01*
X43433325Y-114222830D01*
X43377333Y-114037380D01*
X43375935Y-114032749D01*
X43279218Y-113850849D01*
X43149011Y-113691200D01*
X43145282Y-113688115D01*
X42994002Y-113562965D01*
X42994000Y-113562964D01*
X42990275Y-113559882D01*
X42878123Y-113499242D01*
X42813309Y-113464197D01*
X42813308Y-113464197D01*
X42809055Y-113461897D01*
X42707628Y-113430500D01*
X42616875Y-113402407D01*
X42616871Y-113402406D01*
X42612254Y-113400977D01*
X42607446Y-113400472D01*
X42607443Y-113400471D01*
X42412185Y-113379949D01*
X42412183Y-113379949D01*
X42407369Y-113379443D01*
X42365613Y-113383243D01*
X42207022Y-113397675D01*
X42207017Y-113397676D01*
X42202203Y-113398114D01*
X42004572Y-113456280D01*
X42000288Y-113458519D01*
X42000287Y-113458520D01*
X41993646Y-113461992D01*
X41822002Y-113551726D01*
X41818231Y-113554758D01*
X41665220Y-113677781D01*
X41665217Y-113677783D01*
X41661447Y-113680815D01*
X41658333Y-113684526D01*
X41658332Y-113684527D01*
X41533850Y-113832879D01*
X41529024Y-113838630D01*
X41526689Y-113842878D01*
X41526688Y-113842879D01*
X41519955Y-113855126D01*
X41429776Y-114019162D01*
X41428313Y-114023775D01*
X41428311Y-114023779D01*
X41374413Y-114193689D01*
X41367484Y-114215532D01*
X41366944Y-114220344D01*
X41366944Y-114220345D01*
X41345642Y-114410262D01*
X41344520Y-114420262D01*
X38300500Y-114420262D01*
X38300500Y-113033834D01*
X59284500Y-113033834D01*
X59284718Y-113036135D01*
X59284718Y-113036145D01*
X59285653Y-113046035D01*
X59287481Y-113065369D01*
X59332366Y-113193184D01*
X59412850Y-113302150D01*
X59418807Y-113306550D01*
X59468981Y-113343609D01*
X59521816Y-113382634D01*
X59649631Y-113427519D01*
X59655638Y-113428087D01*
X59655639Y-113428087D01*
X59678855Y-113430282D01*
X59678865Y-113430282D01*
X59681166Y-113430500D01*
X61478834Y-113430500D01*
X61481135Y-113430282D01*
X61481145Y-113430282D01*
X61504361Y-113428087D01*
X61504362Y-113428087D01*
X61510369Y-113427519D01*
X61638184Y-113382634D01*
X61691020Y-113343609D01*
X61741193Y-113306550D01*
X61747150Y-113302150D01*
X61827634Y-113193184D01*
X61872519Y-113065369D01*
X61874347Y-113046035D01*
X61875282Y-113036145D01*
X61875282Y-113036135D01*
X61875500Y-113033834D01*
X61875500Y-112100000D01*
X67694318Y-112100000D01*
X67714956Y-112256762D01*
X67775464Y-112402841D01*
X67871718Y-112528282D01*
X67997159Y-112624536D01*
X68143238Y-112685044D01*
X68300000Y-112705682D01*
X68456762Y-112685044D01*
X68602841Y-112624536D01*
X68728282Y-112528282D01*
X68824536Y-112402841D01*
X68885044Y-112256762D01*
X68905682Y-112100000D01*
X68885044Y-111943238D01*
X68824536Y-111797159D01*
X68728282Y-111671718D01*
X68602841Y-111575464D01*
X68456762Y-111514956D01*
X68300000Y-111494318D01*
X68143238Y-111514956D01*
X67997159Y-111575464D01*
X67871718Y-111671718D01*
X67775464Y-111797159D01*
X67714956Y-111943238D01*
X67694318Y-112100000D01*
X61875500Y-112100000D01*
X61875500Y-111686166D01*
X61875160Y-111682560D01*
X61873087Y-111660639D01*
X61873087Y-111660638D01*
X61872519Y-111654631D01*
X61827634Y-111526816D01*
X61818249Y-111514109D01*
X61751550Y-111423807D01*
X61747150Y-111417850D01*
X61718713Y-111396846D01*
X61644136Y-111341762D01*
X61644135Y-111341761D01*
X61638184Y-111337366D01*
X61510369Y-111292481D01*
X61504362Y-111291913D01*
X61504361Y-111291913D01*
X61481145Y-111289718D01*
X61481135Y-111289718D01*
X61478834Y-111289500D01*
X59681166Y-111289500D01*
X59678865Y-111289718D01*
X59678855Y-111289718D01*
X59655639Y-111291913D01*
X59655638Y-111291913D01*
X59649631Y-111292481D01*
X59521816Y-111337366D01*
X59515865Y-111341761D01*
X59515864Y-111341762D01*
X59441287Y-111396846D01*
X59412850Y-111417850D01*
X59408450Y-111423807D01*
X59341752Y-111514109D01*
X59332366Y-111526816D01*
X59287481Y-111654631D01*
X59286913Y-111660638D01*
X59286913Y-111660639D01*
X59284841Y-111682560D01*
X59284500Y-111686166D01*
X59284500Y-113033834D01*
X38300500Y-113033834D01*
X38300500Y-112365479D01*
X38319407Y-112307288D01*
X38329496Y-112295475D01*
X39524971Y-111100000D01*
X68794318Y-111100000D01*
X68814956Y-111256762D01*
X68875464Y-111402841D01*
X68971718Y-111528282D01*
X69097159Y-111624536D01*
X69243238Y-111685044D01*
X69400000Y-111705682D01*
X69556762Y-111685044D01*
X69702841Y-111624536D01*
X69828282Y-111528282D01*
X69924536Y-111402841D01*
X69929682Y-111390418D01*
X69969420Y-111343894D01*
X70028916Y-111329612D01*
X70085443Y-111353029D01*
X70112609Y-111390422D01*
X70135979Y-111446844D01*
X70135982Y-111446850D01*
X70138464Y-111452841D01*
X70234718Y-111578282D01*
X70360159Y-111674536D01*
X70414776Y-111697159D01*
X70460757Y-111716205D01*
X70507282Y-111755942D01*
X70521566Y-111815436D01*
X70518498Y-111833291D01*
X70517439Y-111837243D01*
X70514956Y-111843238D01*
X70514109Y-111849672D01*
X70500944Y-111949674D01*
X70494318Y-112000000D01*
X70514956Y-112156762D01*
X70575464Y-112302841D01*
X70671718Y-112428282D01*
X70797159Y-112524536D01*
X70943238Y-112585044D01*
X71100000Y-112605682D01*
X71256762Y-112585044D01*
X71402841Y-112524536D01*
X71528282Y-112428282D01*
X71624536Y-112302841D01*
X71685044Y-112156762D01*
X71695644Y-112076248D01*
X71721985Y-112021023D01*
X71775756Y-111991828D01*
X71836418Y-111999814D01*
X71863801Y-112019166D01*
X71867764Y-112023129D01*
X71871718Y-112028282D01*
X71997159Y-112124536D01*
X72143238Y-112185044D01*
X72239589Y-112197729D01*
X72294812Y-112224069D01*
X72324007Y-112277839D01*
X72318129Y-112333766D01*
X72276883Y-112433343D01*
X72256245Y-112590105D01*
X72276883Y-112746867D01*
X72337391Y-112892946D01*
X72433645Y-113018387D01*
X72559086Y-113114641D01*
X72705165Y-113175149D01*
X72861927Y-113195787D01*
X73018689Y-113175149D01*
X73164768Y-113114641D01*
X73290209Y-113018387D01*
X73386463Y-112892946D01*
X73446971Y-112746867D01*
X73467609Y-112590105D01*
X73446971Y-112433343D01*
X73386463Y-112287264D01*
X73290209Y-112161823D01*
X73164768Y-112065569D01*
X73018689Y-112005061D01*
X72922338Y-111992376D01*
X72867115Y-111966036D01*
X72837920Y-111912266D01*
X72843798Y-111856338D01*
X72853345Y-111833291D01*
X72885044Y-111756762D01*
X72905682Y-111600000D01*
X72885044Y-111443238D01*
X72824536Y-111297159D01*
X72728282Y-111171718D01*
X72602841Y-111075464D01*
X72456762Y-111014956D01*
X72300000Y-110994318D01*
X72143238Y-111014956D01*
X71997159Y-111075464D01*
X71871718Y-111171718D01*
X71775464Y-111297159D01*
X71714956Y-111443238D01*
X71710193Y-111479415D01*
X71704356Y-111523752D01*
X71678015Y-111578977D01*
X71624244Y-111608172D01*
X71563582Y-111600186D01*
X71536199Y-111580834D01*
X71532236Y-111576871D01*
X71528282Y-111571718D01*
X71402841Y-111475464D01*
X71302243Y-111433795D01*
X71255718Y-111394058D01*
X71241434Y-111334564D01*
X71244502Y-111316709D01*
X71245561Y-111312757D01*
X71248044Y-111306762D01*
X71268682Y-111150000D01*
X71248044Y-110993238D01*
X71187536Y-110847159D01*
X71091282Y-110721718D01*
X70965841Y-110625464D01*
X70819762Y-110564956D01*
X70663000Y-110544318D01*
X70506238Y-110564956D01*
X70360159Y-110625464D01*
X70234718Y-110721718D01*
X70138464Y-110847159D01*
X70135981Y-110853154D01*
X70133318Y-110859582D01*
X70093580Y-110906106D01*
X70034084Y-110920388D01*
X69977557Y-110896971D01*
X69950391Y-110859578D01*
X69927021Y-110803156D01*
X69927018Y-110803150D01*
X69924536Y-110797159D01*
X69828282Y-110671718D01*
X69702841Y-110575464D01*
X69556762Y-110514956D01*
X69400000Y-110494318D01*
X69243238Y-110514956D01*
X69097159Y-110575464D01*
X68971718Y-110671718D01*
X68875464Y-110797159D01*
X68814956Y-110943238D01*
X68794318Y-111100000D01*
X39524971Y-111100000D01*
X40174651Y-110450320D01*
X40177780Y-110447620D01*
X40182269Y-110445425D01*
X40215893Y-110409178D01*
X40218469Y-110406502D01*
X40232248Y-110392723D01*
X40234793Y-110389013D01*
X40238229Y-110385100D01*
X40252185Y-110370055D01*
X40258401Y-110363354D01*
X40262666Y-110352664D01*
X40272980Y-110333348D01*
X40274321Y-110331393D01*
X40274322Y-110331390D01*
X40279492Y-110323854D01*
X40285641Y-110297941D01*
X40290014Y-110284116D01*
X40297294Y-110265868D01*
X40297294Y-110265866D01*
X40299883Y-110259378D01*
X40300500Y-110253085D01*
X40300500Y-110246916D01*
X40303175Y-110224057D01*
X40303230Y-110223827D01*
X40303230Y-110223825D01*
X40305340Y-110214934D01*
X40301404Y-110186012D01*
X40300500Y-110172663D01*
X40300500Y-108350000D01*
X67344318Y-108350000D01*
X67364956Y-108506762D01*
X67425464Y-108652841D01*
X67521718Y-108778282D01*
X67647159Y-108874536D01*
X67793238Y-108935044D01*
X67950000Y-108955682D01*
X68106762Y-108935044D01*
X68252841Y-108874536D01*
X68378282Y-108778282D01*
X68474536Y-108652841D01*
X68535044Y-108506762D01*
X68555682Y-108350000D01*
X68535044Y-108193238D01*
X68474536Y-108047159D01*
X68378282Y-107921718D01*
X68252841Y-107825464D01*
X68106762Y-107764956D01*
X67950000Y-107744318D01*
X67793238Y-107764956D01*
X67647159Y-107825464D01*
X67521718Y-107921718D01*
X67425464Y-108047159D01*
X67364956Y-108193238D01*
X67344318Y-108350000D01*
X40300500Y-108350000D01*
X40300500Y-107578823D01*
X60254391Y-107578823D01*
X60255306Y-107585820D01*
X60255306Y-107585821D01*
X60256748Y-107596846D01*
X60272980Y-107720979D01*
X60275821Y-107727435D01*
X60275821Y-107727436D01*
X60319639Y-107827019D01*
X60330720Y-107852203D01*
X60343792Y-107867754D01*
X60418431Y-107956549D01*
X60418434Y-107956551D01*
X60422970Y-107961948D01*
X60428841Y-107965856D01*
X60428842Y-107965857D01*
X60441143Y-107974045D01*
X60542313Y-108041390D01*
X60642920Y-108072821D01*
X60672425Y-108082039D01*
X60672426Y-108082039D01*
X60679157Y-108084142D01*
X60750828Y-108085456D01*
X60815445Y-108086641D01*
X60815447Y-108086641D01*
X60822499Y-108086770D01*
X60829302Y-108084915D01*
X60829304Y-108084915D01*
X60945800Y-108053154D01*
X60960817Y-108049060D01*
X61082991Y-107974045D01*
X61090403Y-107965857D01*
X61174468Y-107872982D01*
X61179200Y-107867754D01*
X61241710Y-107738733D01*
X61243469Y-107728282D01*
X61264862Y-107601124D01*
X61264862Y-107601120D01*
X61265496Y-107597354D01*
X61265647Y-107585000D01*
X61264762Y-107578823D01*
X61534391Y-107578823D01*
X61535306Y-107585820D01*
X61535306Y-107585821D01*
X61536748Y-107596846D01*
X61552980Y-107720979D01*
X61555821Y-107727435D01*
X61555821Y-107727436D01*
X61599639Y-107827019D01*
X61610720Y-107852203D01*
X61623792Y-107867754D01*
X61698431Y-107956549D01*
X61698434Y-107956551D01*
X61702970Y-107961948D01*
X61708841Y-107965856D01*
X61708842Y-107965857D01*
X61721143Y-107974045D01*
X61822313Y-108041390D01*
X61922920Y-108072821D01*
X61952425Y-108082039D01*
X61952426Y-108082039D01*
X61959157Y-108084142D01*
X62030828Y-108085456D01*
X62095445Y-108086641D01*
X62095447Y-108086641D01*
X62102499Y-108086770D01*
X62109302Y-108084915D01*
X62109304Y-108084915D01*
X62225800Y-108053154D01*
X62240817Y-108049060D01*
X62362991Y-107974045D01*
X62370403Y-107965857D01*
X62454468Y-107872982D01*
X62459200Y-107867754D01*
X62521710Y-107738733D01*
X62523469Y-107728282D01*
X62544862Y-107601124D01*
X62544862Y-107601120D01*
X62545496Y-107597354D01*
X62545647Y-107585000D01*
X62525323Y-107443082D01*
X62465984Y-107312572D01*
X62455151Y-107300000D01*
X73594318Y-107300000D01*
X73614956Y-107456762D01*
X73675464Y-107602841D01*
X73771718Y-107728282D01*
X73897159Y-107824536D01*
X74043238Y-107885044D01*
X74200000Y-107905682D01*
X74356762Y-107885044D01*
X74502841Y-107824536D01*
X74628282Y-107728282D01*
X74724536Y-107602841D01*
X74785044Y-107456762D01*
X74805682Y-107300000D01*
X74785044Y-107143238D01*
X74724536Y-106997159D01*
X74628282Y-106871718D01*
X74502841Y-106775464D01*
X74356762Y-106714956D01*
X74200000Y-106694318D01*
X74043238Y-106714956D01*
X73897159Y-106775464D01*
X73771718Y-106871718D01*
X73675464Y-106997159D01*
X73614956Y-107143238D01*
X73594318Y-107300000D01*
X62455151Y-107300000D01*
X62372400Y-107203963D01*
X62341096Y-107183673D01*
X62302550Y-107136158D01*
X62299294Y-107075059D01*
X62332573Y-107023715D01*
X62343136Y-107016236D01*
X62362991Y-107004045D01*
X62373885Y-106992010D01*
X62454468Y-106902982D01*
X62459200Y-106897754D01*
X62521710Y-106768733D01*
X62525875Y-106743982D01*
X62544862Y-106631124D01*
X62544862Y-106631120D01*
X62545496Y-106627354D01*
X62545647Y-106615000D01*
X62525323Y-106473082D01*
X62465984Y-106342572D01*
X62372400Y-106233963D01*
X62252095Y-106155985D01*
X62114739Y-106114907D01*
X62031497Y-106114398D01*
X61978427Y-106114074D01*
X61978426Y-106114074D01*
X61971376Y-106114031D01*
X61964599Y-106115968D01*
X61964598Y-106115968D01*
X61840309Y-106151490D01*
X61840307Y-106151491D01*
X61833529Y-106153428D01*
X61712280Y-106229930D01*
X61707613Y-106235214D01*
X61707611Y-106235216D01*
X61622044Y-106332103D01*
X61622042Y-106332105D01*
X61617377Y-106337388D01*
X61556447Y-106467163D01*
X61534391Y-106608823D01*
X61535306Y-106615820D01*
X61535306Y-106615821D01*
X61536814Y-106627354D01*
X61552980Y-106750979D01*
X61555821Y-106757435D01*
X61555821Y-106757436D01*
X61604367Y-106867764D01*
X61610720Y-106882203D01*
X61623792Y-106897754D01*
X61698431Y-106986549D01*
X61698434Y-106986551D01*
X61702970Y-106991948D01*
X61740760Y-107017103D01*
X61778723Y-107065086D01*
X61781232Y-107126220D01*
X61747328Y-107177153D01*
X61738734Y-107183239D01*
X61712280Y-107199930D01*
X61707613Y-107205214D01*
X61707611Y-107205216D01*
X61622044Y-107302103D01*
X61622042Y-107302105D01*
X61617377Y-107307388D01*
X61556447Y-107437163D01*
X61555362Y-107444132D01*
X61555361Y-107444135D01*
X61540680Y-107538430D01*
X61534391Y-107578823D01*
X61264762Y-107578823D01*
X61245323Y-107443082D01*
X61185984Y-107312572D01*
X61092400Y-107203963D01*
X61061096Y-107183673D01*
X61022550Y-107136158D01*
X61019294Y-107075059D01*
X61052573Y-107023715D01*
X61063136Y-107016236D01*
X61082991Y-107004045D01*
X61093885Y-106992010D01*
X61174468Y-106902982D01*
X61179200Y-106897754D01*
X61241710Y-106768733D01*
X61245875Y-106743982D01*
X61264862Y-106631124D01*
X61264862Y-106631120D01*
X61265496Y-106627354D01*
X61265647Y-106615000D01*
X61245323Y-106473082D01*
X61185984Y-106342572D01*
X61092400Y-106233963D01*
X60972095Y-106155985D01*
X60834739Y-106114907D01*
X60751497Y-106114398D01*
X60698427Y-106114074D01*
X60698426Y-106114074D01*
X60691376Y-106114031D01*
X60684599Y-106115968D01*
X60684598Y-106115968D01*
X60560309Y-106151490D01*
X60560307Y-106151491D01*
X60553529Y-106153428D01*
X60432280Y-106229930D01*
X60427613Y-106235214D01*
X60427611Y-106235216D01*
X60342044Y-106332103D01*
X60342042Y-106332105D01*
X60337377Y-106337388D01*
X60276447Y-106467163D01*
X60254391Y-106608823D01*
X60255306Y-106615820D01*
X60255306Y-106615821D01*
X60256814Y-106627354D01*
X60272980Y-106750979D01*
X60275821Y-106757435D01*
X60275821Y-106757436D01*
X60324367Y-106867764D01*
X60330720Y-106882203D01*
X60343792Y-106897754D01*
X60418431Y-106986549D01*
X60418434Y-106986551D01*
X60422970Y-106991948D01*
X60460760Y-107017103D01*
X60498723Y-107065086D01*
X60501232Y-107126220D01*
X60467328Y-107177153D01*
X60458734Y-107183239D01*
X60432280Y-107199930D01*
X60427613Y-107205214D01*
X60427611Y-107205216D01*
X60342044Y-107302103D01*
X60342042Y-107302105D01*
X60337377Y-107307388D01*
X60276447Y-107437163D01*
X60275362Y-107444132D01*
X60275361Y-107444135D01*
X60260680Y-107538430D01*
X60254391Y-107578823D01*
X40300500Y-107578823D01*
X40300500Y-105400000D01*
X54294318Y-105400000D01*
X54314956Y-105556762D01*
X54375464Y-105702841D01*
X54471718Y-105828282D01*
X54597159Y-105924536D01*
X54743238Y-105985044D01*
X54900000Y-106005682D01*
X55056762Y-105985044D01*
X55202841Y-105924536D01*
X55328282Y-105828282D01*
X55424536Y-105702841D01*
X55467134Y-105600000D01*
X62894318Y-105600000D01*
X62914956Y-105756762D01*
X62975464Y-105902841D01*
X63071718Y-106028282D01*
X63197159Y-106124536D01*
X63343238Y-106185044D01*
X63500000Y-106205682D01*
X63656762Y-106185044D01*
X63802841Y-106124536D01*
X63928282Y-106028282D01*
X64024536Y-105902841D01*
X64085044Y-105756762D01*
X64105682Y-105600000D01*
X64085044Y-105443238D01*
X64046423Y-105350000D01*
X70644318Y-105350000D01*
X70664956Y-105506762D01*
X70725464Y-105652841D01*
X70821718Y-105778282D01*
X70947159Y-105874536D01*
X71093238Y-105935044D01*
X71250000Y-105955682D01*
X71406762Y-105935044D01*
X71552841Y-105874536D01*
X71678282Y-105778282D01*
X71774536Y-105652841D01*
X71835044Y-105506762D01*
X71849099Y-105400000D01*
X74094318Y-105400000D01*
X74114956Y-105556762D01*
X74175464Y-105702841D01*
X74271718Y-105828282D01*
X74397159Y-105924536D01*
X74543238Y-105985044D01*
X74700000Y-106005682D01*
X74856762Y-105985044D01*
X75002841Y-105924536D01*
X75128282Y-105828282D01*
X75224536Y-105702841D01*
X75285044Y-105556762D01*
X75305682Y-105400000D01*
X75285044Y-105243238D01*
X75224536Y-105097159D01*
X75128282Y-104971718D01*
X75002841Y-104875464D01*
X74856762Y-104814956D01*
X74700000Y-104794318D01*
X74543238Y-104814956D01*
X74397159Y-104875464D01*
X74271718Y-104971718D01*
X74175464Y-105097159D01*
X74114956Y-105243238D01*
X74094318Y-105400000D01*
X71849099Y-105400000D01*
X71855682Y-105350000D01*
X71835044Y-105193238D01*
X71774536Y-105047159D01*
X71678282Y-104921718D01*
X71552841Y-104825464D01*
X71406762Y-104764956D01*
X71250000Y-104744318D01*
X71093238Y-104764956D01*
X70947159Y-104825464D01*
X70821718Y-104921718D01*
X70725464Y-105047159D01*
X70664956Y-105193238D01*
X70644318Y-105350000D01*
X64046423Y-105350000D01*
X64024536Y-105297159D01*
X63928282Y-105171718D01*
X63802841Y-105075464D01*
X63720758Y-105041464D01*
X63674233Y-105001727D01*
X63659949Y-104942232D01*
X63683364Y-104885705D01*
X63720758Y-104858536D01*
X63791062Y-104829415D01*
X63802841Y-104824536D01*
X63928282Y-104728282D01*
X64024536Y-104602841D01*
X64085044Y-104456762D01*
X64105682Y-104300000D01*
X64085044Y-104143238D01*
X64024536Y-103997159D01*
X63949983Y-103900000D01*
X77106318Y-103900000D01*
X77126956Y-104056762D01*
X77187464Y-104202841D01*
X77283718Y-104328282D01*
X77409159Y-104424536D01*
X77555238Y-104485044D01*
X77712000Y-104505682D01*
X77868762Y-104485044D01*
X77961588Y-104446594D01*
X78022585Y-104441793D01*
X78074754Y-104473762D01*
X78097627Y-104525136D01*
X78114956Y-104656762D01*
X78175464Y-104802841D01*
X78271718Y-104928282D01*
X78397159Y-105024536D01*
X78543238Y-105085044D01*
X78700000Y-105105682D01*
X78856762Y-105085044D01*
X79002841Y-105024536D01*
X79128282Y-104928282D01*
X79224536Y-104802841D01*
X79285044Y-104656762D01*
X79305682Y-104500000D01*
X79285044Y-104343238D01*
X79224536Y-104197159D01*
X79128282Y-104071718D01*
X79002841Y-103975464D01*
X78856762Y-103914956D01*
X78700000Y-103894318D01*
X78543238Y-103914956D01*
X78537241Y-103917440D01*
X78450412Y-103953406D01*
X78389415Y-103958207D01*
X78337246Y-103926238D01*
X78314373Y-103874864D01*
X78304283Y-103798226D01*
X78297044Y-103743238D01*
X78236536Y-103597159D01*
X78140282Y-103471718D01*
X78014841Y-103375464D01*
X77868762Y-103314956D01*
X77712000Y-103294318D01*
X77555238Y-103314956D01*
X77409159Y-103375464D01*
X77283718Y-103471718D01*
X77187464Y-103597159D01*
X77126956Y-103743238D01*
X77106318Y-103900000D01*
X63949983Y-103900000D01*
X63928282Y-103871718D01*
X63802841Y-103775464D01*
X63656762Y-103714956D01*
X63500000Y-103694318D01*
X63343238Y-103714956D01*
X63197159Y-103775464D01*
X63071718Y-103871718D01*
X62975464Y-103997159D01*
X62914956Y-104143238D01*
X62894318Y-104300000D01*
X62914956Y-104456762D01*
X62975464Y-104602841D01*
X63071718Y-104728282D01*
X63197159Y-104824536D01*
X63208938Y-104829415D01*
X63279242Y-104858536D01*
X63325767Y-104898273D01*
X63340051Y-104957768D01*
X63316636Y-105014295D01*
X63279242Y-105041464D01*
X63197159Y-105075464D01*
X63071718Y-105171718D01*
X62975464Y-105297159D01*
X62914956Y-105443238D01*
X62894318Y-105600000D01*
X55467134Y-105600000D01*
X55485044Y-105556762D01*
X55505682Y-105400000D01*
X55485044Y-105243238D01*
X55424536Y-105097159D01*
X55328282Y-104971718D01*
X55202841Y-104875464D01*
X55056762Y-104814956D01*
X54900000Y-104794318D01*
X54743238Y-104814956D01*
X54597159Y-104875464D01*
X54471718Y-104971718D01*
X54375464Y-105097159D01*
X54314956Y-105243238D01*
X54294318Y-105400000D01*
X40300500Y-105400000D01*
X40300500Y-103700000D01*
X58794318Y-103700000D01*
X58814956Y-103856762D01*
X58875464Y-104002841D01*
X58971718Y-104128282D01*
X59097159Y-104224536D01*
X59243238Y-104285044D01*
X59400000Y-104305682D01*
X59556762Y-104285044D01*
X59702841Y-104224536D01*
X59828282Y-104128282D01*
X59924536Y-104002841D01*
X59985044Y-103856762D01*
X60005682Y-103700000D01*
X59985044Y-103543238D01*
X59924536Y-103397159D01*
X59828282Y-103271718D01*
X59702841Y-103175464D01*
X59556762Y-103114956D01*
X59400000Y-103094318D01*
X59243238Y-103114956D01*
X59097159Y-103175464D01*
X58971718Y-103271718D01*
X58875464Y-103397159D01*
X58814956Y-103543238D01*
X58794318Y-103700000D01*
X40300500Y-103700000D01*
X40300500Y-100700000D01*
X73794318Y-100700000D01*
X73814956Y-100856762D01*
X73875464Y-101002841D01*
X73971718Y-101128282D01*
X74097159Y-101224536D01*
X74243238Y-101285044D01*
X74400000Y-101305682D01*
X74556762Y-101285044D01*
X74702841Y-101224536D01*
X74828282Y-101128282D01*
X74924536Y-101002841D01*
X74985044Y-100856762D01*
X75005682Y-100700000D01*
X74985044Y-100543238D01*
X74924536Y-100397159D01*
X74828282Y-100271718D01*
X74702841Y-100175464D01*
X74556762Y-100114956D01*
X74400000Y-100094318D01*
X74243238Y-100114956D01*
X74097159Y-100175464D01*
X73971718Y-100271718D01*
X73875464Y-100397159D01*
X73814956Y-100543238D01*
X73794318Y-100700000D01*
X40300500Y-100700000D01*
X40300500Y-99900000D01*
X64994318Y-99900000D01*
X65014956Y-100056762D01*
X65075464Y-100202841D01*
X65171718Y-100328282D01*
X65297159Y-100424536D01*
X65443238Y-100485044D01*
X65600000Y-100505682D01*
X65756762Y-100485044D01*
X65902841Y-100424536D01*
X66028282Y-100328282D01*
X66124536Y-100202841D01*
X66185044Y-100056762D01*
X66205682Y-99900000D01*
X66185044Y-99743238D01*
X66124536Y-99597159D01*
X66028282Y-99471718D01*
X65902841Y-99375464D01*
X65756762Y-99314956D01*
X65600000Y-99294318D01*
X65443238Y-99314956D01*
X65297159Y-99375464D01*
X65171718Y-99471718D01*
X65075464Y-99597159D01*
X65014956Y-99743238D01*
X64994318Y-99900000D01*
X40300500Y-99900000D01*
X40300500Y-98900000D01*
X51994318Y-98900000D01*
X52014956Y-99056762D01*
X52075464Y-99202841D01*
X52171718Y-99328282D01*
X52297159Y-99424536D01*
X52443238Y-99485044D01*
X52600000Y-99505682D01*
X52756762Y-99485044D01*
X52902841Y-99424536D01*
X53028282Y-99328282D01*
X53124536Y-99202841D01*
X53167134Y-99100000D01*
X75394318Y-99100000D01*
X75414956Y-99256762D01*
X75475464Y-99402841D01*
X75571718Y-99528282D01*
X75697159Y-99624536D01*
X75843238Y-99685044D01*
X76000000Y-99705682D01*
X76156762Y-99685044D01*
X76302841Y-99624536D01*
X76428282Y-99528282D01*
X76524536Y-99402841D01*
X76585044Y-99256762D01*
X76605682Y-99100000D01*
X76585044Y-98943238D01*
X76524536Y-98797159D01*
X76428282Y-98671718D01*
X76302841Y-98575464D01*
X76156762Y-98514956D01*
X76000000Y-98494318D01*
X75843238Y-98514956D01*
X75697159Y-98575464D01*
X75571718Y-98671718D01*
X75475464Y-98797159D01*
X75414956Y-98943238D01*
X75394318Y-99100000D01*
X53167134Y-99100000D01*
X53185044Y-99056762D01*
X53205682Y-98900000D01*
X53185044Y-98743238D01*
X53124536Y-98597159D01*
X53028282Y-98471718D01*
X52902841Y-98375464D01*
X52756762Y-98314956D01*
X52600000Y-98294318D01*
X52443238Y-98314956D01*
X52297159Y-98375464D01*
X52171718Y-98471718D01*
X52075464Y-98597159D01*
X52014956Y-98743238D01*
X51994318Y-98900000D01*
X40300500Y-98900000D01*
X40300500Y-97000000D01*
X64594318Y-97000000D01*
X64614956Y-97156762D01*
X64675464Y-97302841D01*
X64771718Y-97428282D01*
X64897159Y-97524536D01*
X65043238Y-97585044D01*
X65200000Y-97605682D01*
X65356762Y-97585044D01*
X65502841Y-97524536D01*
X65628282Y-97428282D01*
X65724536Y-97302841D01*
X65785044Y-97156762D01*
X65805682Y-97000000D01*
X65785044Y-96843238D01*
X65724536Y-96697159D01*
X65628282Y-96571718D01*
X65502841Y-96475464D01*
X65356762Y-96414956D01*
X65200000Y-96394318D01*
X65043238Y-96414956D01*
X64897159Y-96475464D01*
X64771718Y-96571718D01*
X64675464Y-96697159D01*
X64614956Y-96843238D01*
X64594318Y-97000000D01*
X40300500Y-97000000D01*
X40300500Y-94650000D01*
X61344318Y-94650000D01*
X61364956Y-94806762D01*
X61425464Y-94952841D01*
X61521718Y-95078282D01*
X61647159Y-95174536D01*
X61793238Y-95235044D01*
X61950000Y-95255682D01*
X62106762Y-95235044D01*
X62252841Y-95174536D01*
X62378282Y-95078282D01*
X62474536Y-94952841D01*
X62535044Y-94806762D01*
X62535934Y-94800000D01*
X63494318Y-94800000D01*
X63514956Y-94956762D01*
X63575464Y-95102841D01*
X63671718Y-95228282D01*
X63797159Y-95324536D01*
X63943238Y-95385044D01*
X64100000Y-95405682D01*
X64256762Y-95385044D01*
X64402841Y-95324536D01*
X64528282Y-95228282D01*
X64624536Y-95102841D01*
X64685044Y-94956762D01*
X64705682Y-94800000D01*
X64685044Y-94643238D01*
X64624536Y-94497159D01*
X64528282Y-94371718D01*
X64402841Y-94275464D01*
X64256762Y-94214956D01*
X64100000Y-94194318D01*
X63943238Y-94214956D01*
X63797159Y-94275464D01*
X63671718Y-94371718D01*
X63575464Y-94497159D01*
X63514956Y-94643238D01*
X63494318Y-94800000D01*
X62535934Y-94800000D01*
X62555682Y-94650000D01*
X62535044Y-94493238D01*
X62526882Y-94473532D01*
X62523329Y-94464954D01*
X62474536Y-94347159D01*
X62378282Y-94221718D01*
X62252841Y-94125464D01*
X62106762Y-94064956D01*
X61950000Y-94044318D01*
X61793238Y-94064956D01*
X61647159Y-94125464D01*
X61521718Y-94221718D01*
X61425464Y-94347159D01*
X61376671Y-94464954D01*
X61373119Y-94473532D01*
X61364956Y-94493238D01*
X61344318Y-94650000D01*
X40300500Y-94650000D01*
X40300500Y-93300000D01*
X68694318Y-93300000D01*
X68714956Y-93456762D01*
X68775464Y-93602841D01*
X68871718Y-93728282D01*
X68997159Y-93824536D01*
X69143238Y-93885044D01*
X69300000Y-93905682D01*
X69456762Y-93885044D01*
X69602841Y-93824536D01*
X69728282Y-93728282D01*
X69824536Y-93602841D01*
X69885044Y-93456762D01*
X69905682Y-93300000D01*
X69885044Y-93143238D01*
X69824536Y-92997159D01*
X69728282Y-92871718D01*
X69602841Y-92775464D01*
X69456762Y-92714956D01*
X69300000Y-92694318D01*
X69143238Y-92714956D01*
X68997159Y-92775464D01*
X68871718Y-92871718D01*
X68775464Y-92997159D01*
X68714956Y-93143238D01*
X68694318Y-93300000D01*
X40300500Y-93300000D01*
X40300500Y-92100000D01*
X50494318Y-92100000D01*
X50514956Y-92256762D01*
X50517440Y-92262759D01*
X50525763Y-92282853D01*
X50575464Y-92402841D01*
X50671718Y-92528282D01*
X50797159Y-92624536D01*
X50943238Y-92685044D01*
X51100000Y-92705682D01*
X51256762Y-92685044D01*
X51402841Y-92624536D01*
X51528282Y-92528282D01*
X51624536Y-92402841D01*
X51674237Y-92282853D01*
X51682560Y-92262759D01*
X51685044Y-92256762D01*
X51705682Y-92100000D01*
X69794318Y-92100000D01*
X69814956Y-92256762D01*
X69817440Y-92262759D01*
X69825763Y-92282853D01*
X69875464Y-92402841D01*
X69971718Y-92528282D01*
X70097159Y-92624536D01*
X70243238Y-92685044D01*
X70400000Y-92705682D01*
X70556762Y-92685044D01*
X70702841Y-92624536D01*
X70828282Y-92528282D01*
X70924536Y-92402841D01*
X70974237Y-92282853D01*
X70982560Y-92262759D01*
X70985044Y-92256762D01*
X71005682Y-92100000D01*
X70985044Y-91943238D01*
X70924536Y-91797159D01*
X70828282Y-91671718D01*
X70702841Y-91575464D01*
X70556762Y-91514956D01*
X70400000Y-91494318D01*
X70243238Y-91514956D01*
X70097159Y-91575464D01*
X69971718Y-91671718D01*
X69875464Y-91797159D01*
X69814956Y-91943238D01*
X69794318Y-92100000D01*
X51705682Y-92100000D01*
X51685044Y-91943238D01*
X51624536Y-91797159D01*
X51528282Y-91671718D01*
X51402841Y-91575464D01*
X51256762Y-91514956D01*
X51100000Y-91494318D01*
X50943238Y-91514956D01*
X50797159Y-91575464D01*
X50671718Y-91671718D01*
X50575464Y-91797159D01*
X50514956Y-91943238D01*
X50494318Y-92100000D01*
X40300500Y-92100000D01*
X40300500Y-90800000D01*
X46794318Y-90800000D01*
X46814956Y-90956762D01*
X46875464Y-91102841D01*
X46971718Y-91228282D01*
X47097159Y-91324536D01*
X47243238Y-91385044D01*
X47400000Y-91405682D01*
X47556762Y-91385044D01*
X47702841Y-91324536D01*
X47828282Y-91228282D01*
X47924536Y-91102841D01*
X47985044Y-90956762D01*
X48005682Y-90800000D01*
X47992517Y-90700000D01*
X50594318Y-90700000D01*
X50614956Y-90856762D01*
X50675464Y-91002841D01*
X50771718Y-91128282D01*
X50897159Y-91224536D01*
X51043238Y-91285044D01*
X51200000Y-91305682D01*
X51356762Y-91285044D01*
X51502841Y-91224536D01*
X51628282Y-91128282D01*
X51724536Y-91002841D01*
X51785044Y-90856762D01*
X51805682Y-90700000D01*
X51792517Y-90600000D01*
X56294318Y-90600000D01*
X56314956Y-90756762D01*
X56375464Y-90902841D01*
X56471718Y-91028282D01*
X56597159Y-91124536D01*
X56743238Y-91185044D01*
X56900000Y-91205682D01*
X57056762Y-91185044D01*
X57202841Y-91124536D01*
X57234817Y-91100000D01*
X63094318Y-91100000D01*
X63114956Y-91256762D01*
X63175464Y-91402841D01*
X63271718Y-91528282D01*
X63397159Y-91624536D01*
X63543238Y-91685044D01*
X63700000Y-91705682D01*
X63856762Y-91685044D01*
X64002841Y-91624536D01*
X64128282Y-91528282D01*
X64224536Y-91402841D01*
X64243285Y-91357577D01*
X64283022Y-91311052D01*
X64342517Y-91296768D01*
X64399044Y-91320183D01*
X64413290Y-91335195D01*
X64484718Y-91428282D01*
X64610159Y-91524536D01*
X64756238Y-91585044D01*
X64913000Y-91605682D01*
X65069762Y-91585044D01*
X65215841Y-91524536D01*
X65341282Y-91428282D01*
X65362983Y-91400000D01*
X67393818Y-91400000D01*
X67414456Y-91556762D01*
X67474964Y-91702841D01*
X67571218Y-91828282D01*
X67696659Y-91924536D01*
X67842738Y-91985044D01*
X67999500Y-92005682D01*
X68156262Y-91985044D01*
X68302341Y-91924536D01*
X68427782Y-91828282D01*
X68524036Y-91702841D01*
X68584544Y-91556762D01*
X68605182Y-91400000D01*
X68584544Y-91243238D01*
X68524036Y-91097159D01*
X68427782Y-90971718D01*
X68424433Y-90969148D01*
X68397092Y-90915487D01*
X68406663Y-90855055D01*
X68424013Y-90831174D01*
X68427782Y-90828282D01*
X68524036Y-90702841D01*
X68584544Y-90556762D01*
X68605182Y-90400000D01*
X68584544Y-90243238D01*
X68524036Y-90097159D01*
X68427782Y-89971718D01*
X68302341Y-89875464D01*
X68156262Y-89814956D01*
X67999500Y-89794318D01*
X67842738Y-89814956D01*
X67696659Y-89875464D01*
X67571218Y-89971718D01*
X67474964Y-90097159D01*
X67414456Y-90243238D01*
X67393818Y-90400000D01*
X67414456Y-90556762D01*
X67474964Y-90702841D01*
X67571218Y-90828282D01*
X67574567Y-90830852D01*
X67601908Y-90884513D01*
X67592337Y-90944945D01*
X67574987Y-90968826D01*
X67571218Y-90971718D01*
X67474964Y-91097159D01*
X67414456Y-91243238D01*
X67393818Y-91400000D01*
X65362983Y-91400000D01*
X65437536Y-91302841D01*
X65498044Y-91156762D01*
X65518682Y-91000000D01*
X65498044Y-90843238D01*
X65437536Y-90697159D01*
X65341282Y-90571718D01*
X65215841Y-90475464D01*
X65069762Y-90414956D01*
X64913000Y-90394318D01*
X64756238Y-90414956D01*
X64610159Y-90475464D01*
X64484718Y-90571718D01*
X64388464Y-90697159D01*
X64385981Y-90703154D01*
X64369715Y-90742423D01*
X64329978Y-90788948D01*
X64270483Y-90803232D01*
X64213956Y-90779817D01*
X64199709Y-90764804D01*
X64147804Y-90697159D01*
X64128282Y-90671718D01*
X64002841Y-90575464D01*
X63856762Y-90514956D01*
X63700000Y-90494318D01*
X63543238Y-90514956D01*
X63397159Y-90575464D01*
X63271718Y-90671718D01*
X63175464Y-90797159D01*
X63114956Y-90943238D01*
X63094318Y-91100000D01*
X57234817Y-91100000D01*
X57328282Y-91028282D01*
X57424536Y-90902841D01*
X57485044Y-90756762D01*
X57505682Y-90600000D01*
X57485044Y-90443238D01*
X57424536Y-90297159D01*
X57328282Y-90171718D01*
X57202841Y-90075464D01*
X57080375Y-90024737D01*
X57062759Y-90017440D01*
X57056762Y-90014956D01*
X56900000Y-89994318D01*
X56743238Y-90014956D01*
X56737241Y-90017440D01*
X56719625Y-90024737D01*
X56597159Y-90075464D01*
X56471718Y-90171718D01*
X56375464Y-90297159D01*
X56314956Y-90443238D01*
X56294318Y-90600000D01*
X51792517Y-90600000D01*
X51785044Y-90543238D01*
X51724536Y-90397159D01*
X51628282Y-90271718D01*
X51502841Y-90175464D01*
X51356762Y-90114956D01*
X51200000Y-90094318D01*
X51043238Y-90114956D01*
X50897159Y-90175464D01*
X50771718Y-90271718D01*
X50675464Y-90397159D01*
X50614956Y-90543238D01*
X50594318Y-90700000D01*
X47992517Y-90700000D01*
X47985044Y-90643238D01*
X47924536Y-90497159D01*
X47828282Y-90371718D01*
X47702841Y-90275464D01*
X47556762Y-90214956D01*
X47400000Y-90194318D01*
X47243238Y-90214956D01*
X47097159Y-90275464D01*
X46971718Y-90371718D01*
X46875464Y-90497159D01*
X46814956Y-90643238D01*
X46794318Y-90800000D01*
X40300500Y-90800000D01*
X40300500Y-89439693D01*
X55334011Y-89439693D01*
X55354649Y-89596455D01*
X55415157Y-89742534D01*
X55511411Y-89867975D01*
X55636852Y-89964229D01*
X55709493Y-89994318D01*
X55765315Y-90017440D01*
X55782931Y-90024737D01*
X55939693Y-90045375D01*
X56096455Y-90024737D01*
X56114072Y-90017440D01*
X56169893Y-89994318D01*
X56242534Y-89964229D01*
X56364991Y-89870265D01*
X61041894Y-89870265D01*
X61062532Y-90027027D01*
X61123040Y-90173106D01*
X61219294Y-90298547D01*
X61344735Y-90394801D01*
X61490814Y-90455309D01*
X61647576Y-90475947D01*
X61804338Y-90455309D01*
X61950417Y-90394801D01*
X62075858Y-90298547D01*
X62172112Y-90173106D01*
X62232620Y-90027027D01*
X62253258Y-89870265D01*
X62232620Y-89713503D01*
X62172112Y-89567424D01*
X62075858Y-89441983D01*
X61950417Y-89345729D01*
X61804338Y-89285221D01*
X61647576Y-89264583D01*
X61490814Y-89285221D01*
X61344735Y-89345729D01*
X61219294Y-89441983D01*
X61123040Y-89567424D01*
X61062532Y-89713503D01*
X61041894Y-89870265D01*
X56364991Y-89870265D01*
X56367975Y-89867975D01*
X56464229Y-89742534D01*
X56524737Y-89596455D01*
X56545375Y-89439693D01*
X56524737Y-89282931D01*
X56464229Y-89136852D01*
X56435952Y-89100000D01*
X59794318Y-89100000D01*
X59814956Y-89256762D01*
X59875464Y-89402841D01*
X59971718Y-89528282D01*
X60097159Y-89624536D01*
X60243238Y-89685044D01*
X60400000Y-89705682D01*
X60556762Y-89685044D01*
X60702841Y-89624536D01*
X60828282Y-89528282D01*
X60924536Y-89402841D01*
X60985044Y-89256762D01*
X61005682Y-89100000D01*
X60985044Y-88943238D01*
X60924536Y-88797159D01*
X60849983Y-88700000D01*
X63794318Y-88700000D01*
X63814956Y-88856762D01*
X63875464Y-89002841D01*
X63971718Y-89128282D01*
X64097159Y-89224536D01*
X64243238Y-89285044D01*
X64400000Y-89305682D01*
X64556762Y-89285044D01*
X64702841Y-89224536D01*
X64828282Y-89128282D01*
X64924536Y-89002841D01*
X64985044Y-88856762D01*
X65005682Y-88700000D01*
X64991308Y-88590819D01*
X65002458Y-88530659D01*
X65046840Y-88488542D01*
X65056077Y-88485134D01*
X65056762Y-88485044D01*
X65202841Y-88424536D01*
X65328282Y-88328282D01*
X65424536Y-88202841D01*
X65485044Y-88056762D01*
X65505682Y-87900000D01*
X65485044Y-87743238D01*
X65424536Y-87597159D01*
X65328282Y-87471718D01*
X65202841Y-87375464D01*
X65056762Y-87314956D01*
X64943159Y-87300000D01*
X67694318Y-87300000D01*
X67714956Y-87456762D01*
X67775464Y-87602841D01*
X67871718Y-87728282D01*
X67997159Y-87824536D01*
X68143238Y-87885044D01*
X68300000Y-87905682D01*
X68456762Y-87885044D01*
X68602841Y-87824536D01*
X68728282Y-87728282D01*
X68824536Y-87602841D01*
X68885044Y-87456762D01*
X68905682Y-87300000D01*
X68885044Y-87143238D01*
X68824536Y-86997159D01*
X68728282Y-86871718D01*
X68602841Y-86775464D01*
X68456762Y-86714956D01*
X68300000Y-86694318D01*
X68143238Y-86714956D01*
X67997159Y-86775464D01*
X67871718Y-86871718D01*
X67775464Y-86997159D01*
X67714956Y-87143238D01*
X67694318Y-87300000D01*
X64943159Y-87300000D01*
X64900000Y-87294318D01*
X64743238Y-87314956D01*
X64597159Y-87375464D01*
X64471718Y-87471718D01*
X64375464Y-87597159D01*
X64314956Y-87743238D01*
X64294318Y-87900000D01*
X64295165Y-87906434D01*
X64308692Y-88009180D01*
X64297542Y-88069341D01*
X64253160Y-88111458D01*
X64243923Y-88114866D01*
X64243238Y-88114956D01*
X64097159Y-88175464D01*
X63971718Y-88271718D01*
X63875464Y-88397159D01*
X63814956Y-88543238D01*
X63794318Y-88700000D01*
X60849983Y-88700000D01*
X60828282Y-88671718D01*
X60702841Y-88575464D01*
X60556762Y-88514956D01*
X60400000Y-88494318D01*
X60243238Y-88514956D01*
X60097159Y-88575464D01*
X59971718Y-88671718D01*
X59875464Y-88797159D01*
X59814956Y-88943238D01*
X59794318Y-89100000D01*
X56435952Y-89100000D01*
X56367975Y-89011411D01*
X56242534Y-88915157D01*
X56096455Y-88854649D01*
X55939693Y-88834011D01*
X55782931Y-88854649D01*
X55636852Y-88915157D01*
X55511411Y-89011411D01*
X55415157Y-89136852D01*
X55354649Y-89282931D01*
X55334011Y-89439693D01*
X40300500Y-89439693D01*
X40300500Y-88100000D01*
X42394318Y-88100000D01*
X42414956Y-88256762D01*
X42475464Y-88402841D01*
X42571718Y-88528282D01*
X42697159Y-88624536D01*
X42843238Y-88685044D01*
X43000000Y-88705682D01*
X43156762Y-88685044D01*
X43302841Y-88624536D01*
X43428282Y-88528282D01*
X43524536Y-88402841D01*
X43585044Y-88256762D01*
X43601847Y-88129130D01*
X43613183Y-88105364D01*
X43612997Y-88105187D01*
X43609569Y-88094636D01*
X43786817Y-88094636D01*
X43787003Y-88094813D01*
X43798153Y-88129130D01*
X43814956Y-88256762D01*
X43875464Y-88402841D01*
X43971718Y-88528282D01*
X44097159Y-88624536D01*
X44243238Y-88685044D01*
X44400000Y-88705682D01*
X44556762Y-88685044D01*
X44702841Y-88624536D01*
X44828282Y-88528282D01*
X44924536Y-88402841D01*
X44985044Y-88256762D01*
X45001847Y-88129130D01*
X45013183Y-88105364D01*
X45012997Y-88105187D01*
X45009569Y-88094636D01*
X45186817Y-88094636D01*
X45187003Y-88094813D01*
X45198153Y-88129130D01*
X45214956Y-88256762D01*
X45275464Y-88402841D01*
X45371718Y-88528282D01*
X45497159Y-88624536D01*
X45643238Y-88685044D01*
X45800000Y-88705682D01*
X45956762Y-88685044D01*
X46102841Y-88624536D01*
X46228282Y-88528282D01*
X46324536Y-88402841D01*
X46385044Y-88256762D01*
X46405682Y-88100000D01*
X46385044Y-87943238D01*
X46324536Y-87797159D01*
X46228282Y-87671718D01*
X46102841Y-87575464D01*
X45956762Y-87514956D01*
X45800000Y-87494318D01*
X45643238Y-87514956D01*
X45497159Y-87575464D01*
X45371718Y-87671718D01*
X45275464Y-87797159D01*
X45214956Y-87943238D01*
X45207109Y-88002841D01*
X45198153Y-88070870D01*
X45186817Y-88094636D01*
X45009569Y-88094636D01*
X45001847Y-88070870D01*
X44992891Y-88002841D01*
X44985044Y-87943238D01*
X44924536Y-87797159D01*
X44828282Y-87671718D01*
X44702841Y-87575464D01*
X44556762Y-87514956D01*
X44400000Y-87494318D01*
X44243238Y-87514956D01*
X44097159Y-87575464D01*
X43971718Y-87671718D01*
X43875464Y-87797159D01*
X43814956Y-87943238D01*
X43807109Y-88002841D01*
X43798153Y-88070870D01*
X43786817Y-88094636D01*
X43609569Y-88094636D01*
X43601847Y-88070870D01*
X43592891Y-88002841D01*
X43585044Y-87943238D01*
X43524536Y-87797159D01*
X43428282Y-87671718D01*
X43302841Y-87575464D01*
X43156762Y-87514956D01*
X43000000Y-87494318D01*
X42843238Y-87514956D01*
X42697159Y-87575464D01*
X42571718Y-87671718D01*
X42475464Y-87797159D01*
X42414956Y-87943238D01*
X42394318Y-88100000D01*
X40300500Y-88100000D01*
X40300500Y-85800000D01*
X60094318Y-85800000D01*
X60114956Y-85956762D01*
X60175464Y-86102841D01*
X60271718Y-86228282D01*
X60287518Y-86240405D01*
X60322172Y-86290828D01*
X60320571Y-86351992D01*
X60305791Y-86379213D01*
X60277558Y-86416007D01*
X60217050Y-86562086D01*
X60196412Y-86718848D01*
X60217050Y-86875610D01*
X60277558Y-87021689D01*
X60281509Y-87026838D01*
X60373812Y-87147130D01*
X60371586Y-87148838D01*
X60394031Y-87192890D01*
X60384460Y-87253322D01*
X60371318Y-87271411D01*
X60371718Y-87271718D01*
X60275464Y-87397159D01*
X60214956Y-87543238D01*
X60194318Y-87700000D01*
X60214956Y-87856762D01*
X60275464Y-88002841D01*
X60371718Y-88128282D01*
X60497159Y-88224536D01*
X60643238Y-88285044D01*
X60800000Y-88305682D01*
X60956762Y-88285044D01*
X61102841Y-88224536D01*
X61228282Y-88128282D01*
X61324536Y-88002841D01*
X61385044Y-87856762D01*
X61405682Y-87700000D01*
X61385044Y-87543238D01*
X61324536Y-87397159D01*
X61228282Y-87271718D01*
X61230508Y-87270010D01*
X61208063Y-87225958D01*
X61217634Y-87165526D01*
X61230776Y-87147437D01*
X61230376Y-87147130D01*
X61322679Y-87026838D01*
X61326630Y-87021689D01*
X61387138Y-86875610D01*
X61407776Y-86718848D01*
X61387138Y-86562086D01*
X61326630Y-86416007D01*
X61230376Y-86290566D01*
X61214576Y-86278443D01*
X61179922Y-86228020D01*
X61181523Y-86166856D01*
X61196303Y-86139635D01*
X61220585Y-86107990D01*
X61224536Y-86102841D01*
X61285044Y-85956762D01*
X61292517Y-85900000D01*
X65794318Y-85900000D01*
X65814956Y-86056762D01*
X65875464Y-86202841D01*
X65971718Y-86328282D01*
X66097159Y-86424536D01*
X66243238Y-86485044D01*
X66400000Y-86505682D01*
X66556762Y-86485044D01*
X66702841Y-86424536D01*
X66828282Y-86328282D01*
X66849983Y-86300000D01*
X71494318Y-86300000D01*
X71514956Y-86456762D01*
X71575464Y-86602841D01*
X71671718Y-86728282D01*
X71797159Y-86824536D01*
X71943238Y-86885044D01*
X72100000Y-86905682D01*
X72256762Y-86885044D01*
X72402841Y-86824536D01*
X72528282Y-86728282D01*
X72624536Y-86602841D01*
X72685044Y-86456762D01*
X72705682Y-86300000D01*
X72704475Y-86290828D01*
X72692891Y-86202841D01*
X72685044Y-86143238D01*
X72624536Y-85997159D01*
X72528282Y-85871718D01*
X72402841Y-85775464D01*
X72256762Y-85714956D01*
X72100000Y-85694318D01*
X71943238Y-85714956D01*
X71797159Y-85775464D01*
X71671718Y-85871718D01*
X71575464Y-85997159D01*
X71514956Y-86143238D01*
X71507109Y-86202841D01*
X71495526Y-86290828D01*
X71494318Y-86300000D01*
X66849983Y-86300000D01*
X66924536Y-86202841D01*
X66985044Y-86056762D01*
X66997822Y-85959702D01*
X67024163Y-85904477D01*
X67077933Y-85875282D01*
X67133860Y-85881160D01*
X67137238Y-85882559D01*
X67137240Y-85882560D01*
X67143238Y-85885044D01*
X67300000Y-85905682D01*
X67456762Y-85885044D01*
X67602841Y-85824536D01*
X67728282Y-85728282D01*
X67824536Y-85602841D01*
X67885044Y-85456762D01*
X67905682Y-85300000D01*
X67885044Y-85143238D01*
X67824536Y-84997159D01*
X67728282Y-84871718D01*
X67634817Y-84800000D01*
X71694318Y-84800000D01*
X71714956Y-84956762D01*
X71775464Y-85102841D01*
X71871718Y-85228282D01*
X71997159Y-85324536D01*
X72143238Y-85385044D01*
X72300000Y-85405682D01*
X72456762Y-85385044D01*
X72602841Y-85324536D01*
X72728282Y-85228282D01*
X72824536Y-85102841D01*
X72885044Y-84956762D01*
X72905682Y-84800000D01*
X72885044Y-84643238D01*
X72824536Y-84497159D01*
X72728282Y-84371718D01*
X72602841Y-84275464D01*
X72456762Y-84214956D01*
X72300000Y-84194318D01*
X72143238Y-84214956D01*
X71997159Y-84275464D01*
X71871718Y-84371718D01*
X71775464Y-84497159D01*
X71714956Y-84643238D01*
X71694318Y-84800000D01*
X67634817Y-84800000D01*
X67602841Y-84775464D01*
X67456762Y-84714956D01*
X67300000Y-84694318D01*
X67143238Y-84714956D01*
X66997159Y-84775464D01*
X66871718Y-84871718D01*
X66775464Y-84997159D01*
X66714956Y-85143238D01*
X66707109Y-85202841D01*
X66702178Y-85240298D01*
X66675837Y-85295523D01*
X66622067Y-85324718D01*
X66566140Y-85318840D01*
X66562762Y-85317441D01*
X66562760Y-85317440D01*
X66556762Y-85314956D01*
X66400000Y-85294318D01*
X66243238Y-85314956D01*
X66097159Y-85375464D01*
X65971718Y-85471718D01*
X65875464Y-85597159D01*
X65814956Y-85743238D01*
X65794318Y-85900000D01*
X61292517Y-85900000D01*
X61305682Y-85800000D01*
X61285044Y-85643238D01*
X61224536Y-85497159D01*
X61128282Y-85371718D01*
X61002841Y-85275464D01*
X60856762Y-85214956D01*
X60700000Y-85194318D01*
X60543238Y-85214956D01*
X60397159Y-85275464D01*
X60271718Y-85371718D01*
X60175464Y-85497159D01*
X60114956Y-85643238D01*
X60094318Y-85800000D01*
X40300500Y-85800000D01*
X40300500Y-84900000D01*
X63694318Y-84900000D01*
X63714956Y-85056762D01*
X63775464Y-85202841D01*
X63871718Y-85328282D01*
X63997159Y-85424536D01*
X64143238Y-85485044D01*
X64300000Y-85505682D01*
X64456762Y-85485044D01*
X64602841Y-85424536D01*
X64728282Y-85328282D01*
X64824536Y-85202841D01*
X64885044Y-85056762D01*
X64905682Y-84900000D01*
X64885044Y-84743238D01*
X64824536Y-84597159D01*
X64728282Y-84471718D01*
X64602841Y-84375464D01*
X64596844Y-84372980D01*
X64595053Y-84371946D01*
X64590353Y-84366727D01*
X64577115Y-84364807D01*
X64462762Y-84317441D01*
X64462760Y-84317440D01*
X64456762Y-84314956D01*
X64300000Y-84294318D01*
X64143238Y-84314956D01*
X63997159Y-84375464D01*
X63871718Y-84471718D01*
X63775464Y-84597159D01*
X63714956Y-84743238D01*
X63694318Y-84900000D01*
X40300500Y-84900000D01*
X40300500Y-83300000D01*
X43294318Y-83300000D01*
X43314956Y-83456762D01*
X43375464Y-83602841D01*
X43471718Y-83728282D01*
X43597159Y-83824536D01*
X43743238Y-83885044D01*
X43900000Y-83905682D01*
X44056762Y-83885044D01*
X44202841Y-83824536D01*
X44328282Y-83728282D01*
X44424536Y-83602841D01*
X44485044Y-83456762D01*
X44492517Y-83400000D01*
X47694318Y-83400000D01*
X47714956Y-83556762D01*
X47775464Y-83702841D01*
X47871718Y-83828282D01*
X47997159Y-83924536D01*
X48143238Y-83985044D01*
X48300000Y-84005682D01*
X48456762Y-83985044D01*
X48602841Y-83924536D01*
X48728282Y-83828282D01*
X48824536Y-83702841D01*
X48842467Y-83659552D01*
X64353870Y-83659552D01*
X64374508Y-83816314D01*
X64435016Y-83962393D01*
X64531270Y-84087834D01*
X64656711Y-84184088D01*
X64662708Y-84186572D01*
X64664499Y-84187606D01*
X64669199Y-84192825D01*
X64682437Y-84194745D01*
X64796790Y-84242111D01*
X64796792Y-84242112D01*
X64802790Y-84244596D01*
X64959552Y-84265234D01*
X64965986Y-84264387D01*
X65087666Y-84248368D01*
X65147827Y-84259518D01*
X65189944Y-84303901D01*
X65198741Y-84333599D01*
X65214956Y-84456762D01*
X65275464Y-84602841D01*
X65371718Y-84728282D01*
X65497159Y-84824536D01*
X65643238Y-84885044D01*
X65800000Y-84905682D01*
X65956762Y-84885044D01*
X66102841Y-84824536D01*
X66228282Y-84728282D01*
X66324536Y-84602841D01*
X66385044Y-84456762D01*
X66405682Y-84300000D01*
X66385044Y-84143238D01*
X66324536Y-83997159D01*
X66228282Y-83871718D01*
X66102841Y-83775464D01*
X65956762Y-83714956D01*
X65800000Y-83694318D01*
X65793566Y-83695165D01*
X65671886Y-83711184D01*
X65611725Y-83700034D01*
X65569608Y-83655651D01*
X65560811Y-83625953D01*
X65552472Y-83562617D01*
X65544596Y-83502790D01*
X65484088Y-83356711D01*
X65387834Y-83231270D01*
X65262393Y-83135016D01*
X65116314Y-83074508D01*
X64959552Y-83053870D01*
X64802790Y-83074508D01*
X64656711Y-83135016D01*
X64531270Y-83231270D01*
X64435016Y-83356711D01*
X64374508Y-83502790D01*
X64353870Y-83659552D01*
X48842467Y-83659552D01*
X48885044Y-83556762D01*
X48905682Y-83400000D01*
X48885044Y-83243238D01*
X48824536Y-83097159D01*
X48728282Y-82971718D01*
X48634817Y-82900000D01*
X61694318Y-82900000D01*
X61714956Y-83056762D01*
X61775464Y-83202841D01*
X61871718Y-83328282D01*
X61997159Y-83424536D01*
X62143238Y-83485044D01*
X62300000Y-83505682D01*
X62456762Y-83485044D01*
X62602841Y-83424536D01*
X62728282Y-83328282D01*
X62824536Y-83202841D01*
X62885044Y-83056762D01*
X62905682Y-82900000D01*
X62885044Y-82743238D01*
X62824536Y-82597159D01*
X62728282Y-82471718D01*
X62634817Y-82400000D01*
X76494318Y-82400000D01*
X76514956Y-82556762D01*
X76575464Y-82702841D01*
X76671718Y-82828282D01*
X76797159Y-82924536D01*
X76943238Y-82985044D01*
X77100000Y-83005682D01*
X77256762Y-82985044D01*
X77402841Y-82924536D01*
X77528282Y-82828282D01*
X77624536Y-82702841D01*
X77685044Y-82556762D01*
X77705682Y-82400000D01*
X77994318Y-82400000D01*
X78014956Y-82556762D01*
X78075464Y-82702841D01*
X78171718Y-82828282D01*
X78297159Y-82924536D01*
X78443238Y-82985044D01*
X78600000Y-83005682D01*
X78756762Y-82985044D01*
X78902841Y-82924536D01*
X79028282Y-82828282D01*
X79124536Y-82702841D01*
X79185044Y-82556762D01*
X79205682Y-82400000D01*
X79185044Y-82243238D01*
X79124536Y-82097159D01*
X79028282Y-81971718D01*
X78902841Y-81875464D01*
X78756762Y-81814956D01*
X78600000Y-81794318D01*
X78443238Y-81814956D01*
X78297159Y-81875464D01*
X78171718Y-81971718D01*
X78075464Y-82097159D01*
X78014956Y-82243238D01*
X77994318Y-82400000D01*
X77705682Y-82400000D01*
X77685044Y-82243238D01*
X77624536Y-82097159D01*
X77528282Y-81971718D01*
X77402841Y-81875464D01*
X77256762Y-81814956D01*
X77100000Y-81794318D01*
X76943238Y-81814956D01*
X76797159Y-81875464D01*
X76671718Y-81971718D01*
X76575464Y-82097159D01*
X76514956Y-82243238D01*
X76494318Y-82400000D01*
X62634817Y-82400000D01*
X62602841Y-82375464D01*
X62456762Y-82314956D01*
X62300000Y-82294318D01*
X62143238Y-82314956D01*
X61997159Y-82375464D01*
X61871718Y-82471718D01*
X61775464Y-82597159D01*
X61714956Y-82743238D01*
X61694318Y-82900000D01*
X48634817Y-82900000D01*
X48602841Y-82875464D01*
X48456762Y-82814956D01*
X48300000Y-82794318D01*
X48143238Y-82814956D01*
X47997159Y-82875464D01*
X47871718Y-82971718D01*
X47775464Y-83097159D01*
X47714956Y-83243238D01*
X47694318Y-83400000D01*
X44492517Y-83400000D01*
X44505682Y-83300000D01*
X44485044Y-83143238D01*
X44424536Y-82997159D01*
X44328282Y-82871718D01*
X44202841Y-82775464D01*
X44056762Y-82714956D01*
X43900000Y-82694318D01*
X43743238Y-82714956D01*
X43597159Y-82775464D01*
X43471718Y-82871718D01*
X43375464Y-82997159D01*
X43314956Y-83143238D01*
X43294318Y-83300000D01*
X40300500Y-83300000D01*
X40300500Y-81800000D01*
X56094318Y-81800000D01*
X56114956Y-81956762D01*
X56175464Y-82102841D01*
X56271718Y-82228282D01*
X56397159Y-82324536D01*
X56543238Y-82385044D01*
X56700000Y-82405682D01*
X56856762Y-82385044D01*
X57002841Y-82324536D01*
X57128282Y-82228282D01*
X57224536Y-82102841D01*
X57285044Y-81956762D01*
X57305682Y-81800000D01*
X57285044Y-81643238D01*
X57224536Y-81497159D01*
X57128282Y-81371718D01*
X57002841Y-81275464D01*
X56856762Y-81214956D01*
X56700000Y-81194318D01*
X56543238Y-81214956D01*
X56397159Y-81275464D01*
X56271718Y-81371718D01*
X56175464Y-81497159D01*
X56114956Y-81643238D01*
X56094318Y-81800000D01*
X40300500Y-81800000D01*
X40300500Y-81000000D01*
X70294318Y-81000000D01*
X70314956Y-81156762D01*
X70375464Y-81302841D01*
X70471718Y-81428282D01*
X70597159Y-81524536D01*
X70743238Y-81585044D01*
X70900000Y-81605682D01*
X71056762Y-81585044D01*
X71202841Y-81524536D01*
X71328282Y-81428282D01*
X71424536Y-81302841D01*
X71485044Y-81156762D01*
X71505682Y-81000000D01*
X71485044Y-80843238D01*
X71424536Y-80697159D01*
X71328282Y-80571718D01*
X71202841Y-80475464D01*
X71056762Y-80414956D01*
X70900000Y-80394318D01*
X70743238Y-80414956D01*
X70597159Y-80475464D01*
X70471718Y-80571718D01*
X70375464Y-80697159D01*
X70314956Y-80843238D01*
X70294318Y-81000000D01*
X40300500Y-81000000D01*
X40300500Y-79600000D01*
X47594318Y-79600000D01*
X47614956Y-79756762D01*
X47675464Y-79902841D01*
X47771718Y-80028282D01*
X47897159Y-80124536D01*
X48043238Y-80185044D01*
X48200000Y-80205682D01*
X48356762Y-80185044D01*
X48502841Y-80124536D01*
X48628282Y-80028282D01*
X48724536Y-79902841D01*
X48785044Y-79756762D01*
X48805682Y-79600000D01*
X48792517Y-79500000D01*
X60294318Y-79500000D01*
X60314956Y-79656762D01*
X60375464Y-79802841D01*
X60471718Y-79928282D01*
X60597159Y-80024536D01*
X60743238Y-80085044D01*
X60900000Y-80105682D01*
X61056762Y-80085044D01*
X61202841Y-80024536D01*
X61328282Y-79928282D01*
X61424536Y-79802841D01*
X61425713Y-79800000D01*
X61994318Y-79800000D01*
X62014956Y-79956762D01*
X62075464Y-80102841D01*
X62171718Y-80228282D01*
X62297159Y-80324536D01*
X62443238Y-80385044D01*
X62600000Y-80405682D01*
X62756762Y-80385044D01*
X62902841Y-80324536D01*
X63028282Y-80228282D01*
X63124536Y-80102841D01*
X63185044Y-79956762D01*
X63205682Y-79800000D01*
X63185044Y-79643238D01*
X63125713Y-79500000D01*
X66294318Y-79500000D01*
X66314956Y-79656762D01*
X66375464Y-79802841D01*
X66471718Y-79928282D01*
X66597159Y-80024536D01*
X66743238Y-80085044D01*
X66900000Y-80105682D01*
X67056762Y-80085044D01*
X67202841Y-80024536D01*
X67328282Y-79928282D01*
X67424536Y-79802841D01*
X67485044Y-79656762D01*
X67505682Y-79500000D01*
X67485044Y-79343238D01*
X67424536Y-79197159D01*
X67328282Y-79071718D01*
X67202841Y-78975464D01*
X67056762Y-78914956D01*
X66900000Y-78894318D01*
X66743238Y-78914956D01*
X66597159Y-78975464D01*
X66471718Y-79071718D01*
X66375464Y-79197159D01*
X66314956Y-79343238D01*
X66294318Y-79500000D01*
X63125713Y-79500000D01*
X63124536Y-79497159D01*
X63028282Y-79371718D01*
X62902841Y-79275464D01*
X62756762Y-79214956D01*
X62600000Y-79194318D01*
X62443238Y-79214956D01*
X62297159Y-79275464D01*
X62171718Y-79371718D01*
X62075464Y-79497159D01*
X62014956Y-79643238D01*
X61994318Y-79800000D01*
X61425713Y-79800000D01*
X61485044Y-79656762D01*
X61505682Y-79500000D01*
X61485044Y-79343238D01*
X61424536Y-79197159D01*
X61328282Y-79071718D01*
X61202841Y-78975464D01*
X61056762Y-78914956D01*
X60900000Y-78894318D01*
X60743238Y-78914956D01*
X60597159Y-78975464D01*
X60471718Y-79071718D01*
X60375464Y-79197159D01*
X60314956Y-79343238D01*
X60294318Y-79500000D01*
X48792517Y-79500000D01*
X48785044Y-79443238D01*
X48724536Y-79297159D01*
X48628282Y-79171718D01*
X48502841Y-79075464D01*
X48356762Y-79014956D01*
X48200000Y-78994318D01*
X48043238Y-79014956D01*
X47897159Y-79075464D01*
X47771718Y-79171718D01*
X47675464Y-79297159D01*
X47614956Y-79443238D01*
X47594318Y-79600000D01*
X40300500Y-79600000D01*
X40300500Y-75400000D01*
X52494318Y-75400000D01*
X52514956Y-75556762D01*
X52575464Y-75702841D01*
X52671718Y-75828282D01*
X52797159Y-75924536D01*
X52943238Y-75985044D01*
X53100000Y-76005682D01*
X53256762Y-75985044D01*
X53402841Y-75924536D01*
X53528282Y-75828282D01*
X53624536Y-75702841D01*
X53685044Y-75556762D01*
X53705682Y-75400000D01*
X53685044Y-75243238D01*
X53625713Y-75100000D01*
X56194318Y-75100000D01*
X56214956Y-75256762D01*
X56275464Y-75402841D01*
X56371718Y-75528282D01*
X56497159Y-75624536D01*
X56643238Y-75685044D01*
X56800000Y-75705682D01*
X56843159Y-75700000D01*
X73494318Y-75700000D01*
X73514956Y-75856762D01*
X73575464Y-76002841D01*
X73671718Y-76128282D01*
X73797159Y-76224536D01*
X73943238Y-76285044D01*
X74100000Y-76305682D01*
X74256762Y-76285044D01*
X74402841Y-76224536D01*
X74528282Y-76128282D01*
X74624536Y-76002841D01*
X74685044Y-75856762D01*
X74705682Y-75700000D01*
X74685044Y-75543238D01*
X74624536Y-75397159D01*
X74528282Y-75271718D01*
X74402841Y-75175464D01*
X74256762Y-75114956D01*
X74100000Y-75094318D01*
X73943238Y-75114956D01*
X73797159Y-75175464D01*
X73671718Y-75271718D01*
X73575464Y-75397159D01*
X73514956Y-75543238D01*
X73494318Y-75700000D01*
X56843159Y-75700000D01*
X56956762Y-75685044D01*
X57102841Y-75624536D01*
X57228282Y-75528282D01*
X57324536Y-75402841D01*
X57385044Y-75256762D01*
X57405682Y-75100000D01*
X57385044Y-74943238D01*
X57324536Y-74797159D01*
X57228282Y-74671718D01*
X57102841Y-74575464D01*
X56956762Y-74514956D01*
X56800000Y-74494318D01*
X56643238Y-74514956D01*
X56497159Y-74575464D01*
X56371718Y-74671718D01*
X56275464Y-74797159D01*
X56214956Y-74943238D01*
X56194318Y-75100000D01*
X53625713Y-75100000D01*
X53624536Y-75097159D01*
X53528282Y-74971718D01*
X53402841Y-74875464D01*
X53256762Y-74814956D01*
X53100000Y-74794318D01*
X52943238Y-74814956D01*
X52797159Y-74875464D01*
X52671718Y-74971718D01*
X52575464Y-75097159D01*
X52514956Y-75243238D01*
X52494318Y-75400000D01*
X40300500Y-75400000D01*
X40300500Y-73500000D01*
X73094318Y-73500000D01*
X73114956Y-73656762D01*
X73175464Y-73802841D01*
X73271718Y-73928282D01*
X73397159Y-74024536D01*
X73543238Y-74085044D01*
X73700000Y-74105682D01*
X73856762Y-74085044D01*
X74002841Y-74024536D01*
X74128282Y-73928282D01*
X74224536Y-73802841D01*
X74285044Y-73656762D01*
X74305682Y-73500000D01*
X74285044Y-73343238D01*
X74224536Y-73197159D01*
X74149983Y-73100000D01*
X77694318Y-73100000D01*
X77714956Y-73256762D01*
X77775464Y-73402841D01*
X77871718Y-73528282D01*
X77997159Y-73624536D01*
X78143238Y-73685044D01*
X78300000Y-73705682D01*
X78456762Y-73685044D01*
X78602841Y-73624536D01*
X78728282Y-73528282D01*
X78824536Y-73402841D01*
X78885044Y-73256762D01*
X78905682Y-73100000D01*
X78885044Y-72943238D01*
X78824536Y-72797159D01*
X78728282Y-72671718D01*
X78602841Y-72575464D01*
X78456762Y-72514956D01*
X78300000Y-72494318D01*
X78143238Y-72514956D01*
X77997159Y-72575464D01*
X77871718Y-72671718D01*
X77775464Y-72797159D01*
X77714956Y-72943238D01*
X77694318Y-73100000D01*
X74149983Y-73100000D01*
X74128282Y-73071718D01*
X74002841Y-72975464D01*
X73856762Y-72914956D01*
X73700000Y-72894318D01*
X73543238Y-72914956D01*
X73397159Y-72975464D01*
X73271718Y-73071718D01*
X73175464Y-73197159D01*
X73114956Y-73343238D01*
X73094318Y-73500000D01*
X40300500Y-73500000D01*
X40300500Y-72517948D01*
X47229301Y-72517948D01*
X47234880Y-72524215D01*
X47276660Y-72552026D01*
X47289261Y-72558037D01*
X47412507Y-72596541D01*
X47426290Y-72598773D01*
X47555383Y-72601140D01*
X47569240Y-72599414D01*
X47693811Y-72565451D01*
X47706628Y-72559904D01*
X47762567Y-72525557D01*
X47769055Y-72517948D01*
X48229301Y-72517948D01*
X48234880Y-72524215D01*
X48276660Y-72552026D01*
X48289261Y-72558037D01*
X48412507Y-72596541D01*
X48426290Y-72598773D01*
X48555383Y-72601140D01*
X48569240Y-72599414D01*
X48693811Y-72565451D01*
X48706628Y-72559904D01*
X48762567Y-72525557D01*
X48770843Y-72515851D01*
X48766267Y-72507688D01*
X48511086Y-72252507D01*
X48499203Y-72246453D01*
X48494172Y-72247249D01*
X48235355Y-72506066D01*
X48229301Y-72517948D01*
X47769055Y-72517948D01*
X47770843Y-72515851D01*
X47766267Y-72507688D01*
X47511086Y-72252507D01*
X47499203Y-72246453D01*
X47494172Y-72247249D01*
X47235355Y-72506066D01*
X47229301Y-72517948D01*
X40300500Y-72517948D01*
X40300500Y-72100827D01*
X46995811Y-72100827D01*
X47012551Y-72228846D01*
X47016307Y-72242300D01*
X47068309Y-72360482D01*
X47072653Y-72367460D01*
X47081738Y-72373127D01*
X47084705Y-72372917D01*
X47087540Y-72371039D01*
X47347493Y-72111086D01*
X47352735Y-72100797D01*
X47646453Y-72100797D01*
X47647249Y-72105828D01*
X47909364Y-72367943D01*
X47919189Y-72372949D01*
X47927388Y-72364583D01*
X47981623Y-72336259D01*
X48042148Y-72345224D01*
X48061859Y-72360728D01*
X48081738Y-72373127D01*
X48084705Y-72372917D01*
X48087540Y-72371039D01*
X48347493Y-72111086D01*
X48352735Y-72100797D01*
X48646453Y-72100797D01*
X48647249Y-72105828D01*
X48909364Y-72367943D01*
X48919188Y-72372949D01*
X48927509Y-72364459D01*
X48978154Y-72259926D01*
X48982399Y-72246626D01*
X49004357Y-72116113D01*
X49005038Y-72108521D01*
X49005095Y-72103825D01*
X49004846Y-72100000D01*
X54294318Y-72100000D01*
X54314956Y-72256762D01*
X54375464Y-72402841D01*
X54471718Y-72528282D01*
X54597159Y-72624536D01*
X54743238Y-72685044D01*
X54900000Y-72705682D01*
X55056762Y-72685044D01*
X55202841Y-72624536D01*
X55309169Y-72542948D01*
X67229301Y-72542948D01*
X67234880Y-72549215D01*
X67276660Y-72577026D01*
X67289261Y-72583037D01*
X67412507Y-72621541D01*
X67426290Y-72623773D01*
X67555383Y-72626140D01*
X67569240Y-72624414D01*
X67693811Y-72590451D01*
X67706628Y-72584904D01*
X67762567Y-72550557D01*
X67769055Y-72542948D01*
X68229301Y-72542948D01*
X68234880Y-72549215D01*
X68276660Y-72577026D01*
X68289261Y-72583037D01*
X68412507Y-72621541D01*
X68426290Y-72623773D01*
X68555383Y-72626140D01*
X68569240Y-72624414D01*
X68693811Y-72590451D01*
X68706628Y-72584904D01*
X68762567Y-72550557D01*
X68770843Y-72540851D01*
X68766267Y-72532688D01*
X68511086Y-72277507D01*
X68499203Y-72271453D01*
X68494172Y-72272249D01*
X68235355Y-72531066D01*
X68229301Y-72542948D01*
X67769055Y-72542948D01*
X67770843Y-72540851D01*
X67766267Y-72532688D01*
X67511086Y-72277507D01*
X67499203Y-72271453D01*
X67494172Y-72272249D01*
X67235355Y-72531066D01*
X67229301Y-72542948D01*
X55309169Y-72542948D01*
X55328282Y-72528282D01*
X55424536Y-72402841D01*
X55485044Y-72256762D01*
X55502282Y-72125827D01*
X66995811Y-72125827D01*
X67012551Y-72253846D01*
X67016307Y-72267300D01*
X67068309Y-72385482D01*
X67072653Y-72392460D01*
X67081738Y-72398127D01*
X67084705Y-72397917D01*
X67087540Y-72396039D01*
X67347493Y-72136086D01*
X67352735Y-72125797D01*
X67646453Y-72125797D01*
X67647249Y-72130828D01*
X67909364Y-72392943D01*
X67919189Y-72397949D01*
X67927388Y-72389583D01*
X67981623Y-72361259D01*
X68042148Y-72370224D01*
X68061859Y-72385728D01*
X68081738Y-72398127D01*
X68084705Y-72397917D01*
X68087540Y-72396039D01*
X68347493Y-72136086D01*
X68352735Y-72125797D01*
X68646453Y-72125797D01*
X68647249Y-72130828D01*
X68909364Y-72392943D01*
X68919188Y-72397949D01*
X68927509Y-72389459D01*
X68978154Y-72284926D01*
X68982399Y-72271626D01*
X69004357Y-72141113D01*
X69005038Y-72133521D01*
X69005095Y-72128825D01*
X69004599Y-72121210D01*
X68985838Y-71990207D01*
X68981918Y-71976801D01*
X68928475Y-71859261D01*
X68926334Y-71855912D01*
X68918845Y-71851367D01*
X68915558Y-71851640D01*
X68913196Y-71853225D01*
X68652507Y-72113914D01*
X68646453Y-72125797D01*
X68352735Y-72125797D01*
X68353547Y-72124203D01*
X68352751Y-72119172D01*
X68090501Y-71856922D01*
X68078618Y-71850868D01*
X68075044Y-71851434D01*
X68065854Y-71858556D01*
X68064383Y-71856658D01*
X68035013Y-71880193D01*
X67973895Y-71883080D01*
X67944723Y-71864658D01*
X67943652Y-71866422D01*
X67918845Y-71851367D01*
X67915558Y-71851640D01*
X67913196Y-71853225D01*
X67652507Y-72113914D01*
X67646453Y-72125797D01*
X67352735Y-72125797D01*
X67353547Y-72124203D01*
X67352751Y-72119172D01*
X67090501Y-71856922D01*
X67078618Y-71850868D01*
X67076692Y-71851173D01*
X67074800Y-71854053D01*
X67019930Y-71970922D01*
X67015844Y-71984284D01*
X66995982Y-72111855D01*
X66995811Y-72125827D01*
X55502282Y-72125827D01*
X55505682Y-72100000D01*
X55485044Y-71943238D01*
X55424536Y-71797159D01*
X55357165Y-71709359D01*
X67229170Y-71709359D01*
X67233639Y-71717218D01*
X67488914Y-71972493D01*
X67500797Y-71978547D01*
X67505828Y-71977751D01*
X67764658Y-71718921D01*
X67769530Y-71709359D01*
X68229170Y-71709359D01*
X68233639Y-71717218D01*
X68488914Y-71972493D01*
X68500797Y-71978547D01*
X68505828Y-71977751D01*
X68764658Y-71718921D01*
X68770625Y-71707210D01*
X68756048Y-71691036D01*
X68759529Y-71687899D01*
X68737165Y-71660471D01*
X68733757Y-71599380D01*
X68754132Y-71560452D01*
X68770843Y-71540851D01*
X68766267Y-71532688D01*
X68511086Y-71277507D01*
X68499203Y-71271453D01*
X68494172Y-71272249D01*
X68235355Y-71531066D01*
X68229301Y-71542948D01*
X68243357Y-71558738D01*
X68240126Y-71561614D01*
X68263192Y-71590740D01*
X68265731Y-71651873D01*
X68246504Y-71688517D01*
X68229170Y-71709359D01*
X67769530Y-71709359D01*
X67770625Y-71707210D01*
X67756048Y-71691036D01*
X67759529Y-71687899D01*
X67737165Y-71660471D01*
X67733757Y-71599380D01*
X67754132Y-71560452D01*
X67770843Y-71540851D01*
X67766267Y-71532688D01*
X67511086Y-71277507D01*
X67499203Y-71271453D01*
X67494172Y-71272249D01*
X67235355Y-71531066D01*
X67229301Y-71542948D01*
X67243357Y-71558738D01*
X67240126Y-71561614D01*
X67263192Y-71590740D01*
X67265731Y-71651873D01*
X67246504Y-71688517D01*
X67229170Y-71709359D01*
X55357165Y-71709359D01*
X55328282Y-71671718D01*
X55202841Y-71575464D01*
X55056762Y-71514956D01*
X54900000Y-71494318D01*
X54743238Y-71514956D01*
X54597159Y-71575464D01*
X54471718Y-71671718D01*
X54375464Y-71797159D01*
X54314956Y-71943238D01*
X54294318Y-72100000D01*
X49004846Y-72100000D01*
X49004599Y-72096210D01*
X48985838Y-71965207D01*
X48981918Y-71951801D01*
X48928475Y-71834261D01*
X48926334Y-71830912D01*
X48918845Y-71826367D01*
X48915558Y-71826640D01*
X48913196Y-71828225D01*
X48652507Y-72088914D01*
X48646453Y-72100797D01*
X48352735Y-72100797D01*
X48353547Y-72099203D01*
X48352751Y-72094172D01*
X48090501Y-71831922D01*
X48078618Y-71825868D01*
X48075044Y-71826434D01*
X48065854Y-71833556D01*
X48064383Y-71831658D01*
X48035013Y-71855193D01*
X47973895Y-71858080D01*
X47944723Y-71839658D01*
X47943652Y-71841422D01*
X47918845Y-71826367D01*
X47915558Y-71826640D01*
X47913196Y-71828225D01*
X47652507Y-72088914D01*
X47646453Y-72100797D01*
X47352735Y-72100797D01*
X47353547Y-72099203D01*
X47352751Y-72094172D01*
X47090501Y-71831922D01*
X47078618Y-71825868D01*
X47076692Y-71826173D01*
X47074800Y-71829053D01*
X47019930Y-71945922D01*
X47015844Y-71959284D01*
X46995982Y-72086855D01*
X46995811Y-72100827D01*
X40300500Y-72100827D01*
X40300500Y-71684359D01*
X47229170Y-71684359D01*
X47233639Y-71692218D01*
X47488914Y-71947493D01*
X47500797Y-71953547D01*
X47505828Y-71952751D01*
X47764658Y-71693921D01*
X47769530Y-71684359D01*
X48229170Y-71684359D01*
X48233639Y-71692218D01*
X48488914Y-71947493D01*
X48500797Y-71953547D01*
X48505828Y-71952751D01*
X48764658Y-71693921D01*
X48770625Y-71682210D01*
X48756048Y-71666036D01*
X48759529Y-71662899D01*
X48737165Y-71635471D01*
X48733757Y-71574380D01*
X48754132Y-71535452D01*
X48770843Y-71515851D01*
X48766267Y-71507688D01*
X48511086Y-71252507D01*
X48499203Y-71246453D01*
X48494172Y-71247249D01*
X48235355Y-71506066D01*
X48229301Y-71517948D01*
X48243357Y-71533738D01*
X48240126Y-71536614D01*
X48263192Y-71565740D01*
X48265731Y-71626873D01*
X48246504Y-71663517D01*
X48229170Y-71684359D01*
X47769530Y-71684359D01*
X47770625Y-71682210D01*
X47756048Y-71666036D01*
X47759529Y-71662899D01*
X47737165Y-71635471D01*
X47733757Y-71574380D01*
X47754132Y-71535452D01*
X47770843Y-71515851D01*
X47766267Y-71507688D01*
X47511086Y-71252507D01*
X47499203Y-71246453D01*
X47494172Y-71247249D01*
X47235355Y-71506066D01*
X47229301Y-71517948D01*
X47243357Y-71533738D01*
X47240126Y-71536614D01*
X47263192Y-71565740D01*
X47265731Y-71626873D01*
X47246504Y-71663517D01*
X47229170Y-71684359D01*
X40300500Y-71684359D01*
X40300500Y-71100827D01*
X46995811Y-71100827D01*
X47012551Y-71228846D01*
X47016307Y-71242300D01*
X47068309Y-71360482D01*
X47072653Y-71367460D01*
X47081738Y-71373127D01*
X47084705Y-71372917D01*
X47087540Y-71371039D01*
X47347493Y-71111086D01*
X47352735Y-71100797D01*
X47646453Y-71100797D01*
X47647249Y-71105828D01*
X47909364Y-71367943D01*
X47919189Y-71372949D01*
X47927388Y-71364583D01*
X47981623Y-71336259D01*
X48042148Y-71345224D01*
X48061859Y-71360728D01*
X48081738Y-71373127D01*
X48084705Y-71372917D01*
X48087540Y-71371039D01*
X48347493Y-71111086D01*
X48352735Y-71100797D01*
X48646453Y-71100797D01*
X48647249Y-71105828D01*
X48909364Y-71367943D01*
X48919188Y-71372949D01*
X48927509Y-71364459D01*
X48978154Y-71259926D01*
X48982399Y-71246626D01*
X49002723Y-71125827D01*
X66995811Y-71125827D01*
X67012551Y-71253846D01*
X67016307Y-71267300D01*
X67068309Y-71385482D01*
X67072653Y-71392460D01*
X67081738Y-71398127D01*
X67084705Y-71397917D01*
X67087540Y-71396039D01*
X67347493Y-71136086D01*
X67352735Y-71125797D01*
X67646453Y-71125797D01*
X67647249Y-71130828D01*
X67909364Y-71392943D01*
X67919189Y-71397949D01*
X67927388Y-71389583D01*
X67981623Y-71361259D01*
X68042148Y-71370224D01*
X68061859Y-71385728D01*
X68081738Y-71398127D01*
X68084705Y-71397917D01*
X68087540Y-71396039D01*
X68347493Y-71136086D01*
X68352735Y-71125797D01*
X68646453Y-71125797D01*
X68647249Y-71130828D01*
X68909364Y-71392943D01*
X68919188Y-71397949D01*
X68927509Y-71389459D01*
X68978154Y-71284926D01*
X68982399Y-71271626D01*
X69004357Y-71141113D01*
X69005038Y-71133521D01*
X69005095Y-71128825D01*
X69004599Y-71121210D01*
X68985838Y-70990207D01*
X68981918Y-70976801D01*
X68928475Y-70859261D01*
X68926334Y-70855912D01*
X68918845Y-70851367D01*
X68915558Y-70851640D01*
X68913196Y-70853225D01*
X68652507Y-71113914D01*
X68646453Y-71125797D01*
X68352735Y-71125797D01*
X68353547Y-71124203D01*
X68352751Y-71119172D01*
X68090501Y-70856922D01*
X68078618Y-70850868D01*
X68075044Y-70851434D01*
X68065854Y-70858556D01*
X68064383Y-70856658D01*
X68035013Y-70880193D01*
X67973895Y-70883080D01*
X67944723Y-70864658D01*
X67943652Y-70866422D01*
X67918845Y-70851367D01*
X67915558Y-70851640D01*
X67913196Y-70853225D01*
X67652507Y-71113914D01*
X67646453Y-71125797D01*
X67352735Y-71125797D01*
X67353547Y-71124203D01*
X67352751Y-71119172D01*
X67090501Y-70856922D01*
X67078618Y-70850868D01*
X67076692Y-70851173D01*
X67074800Y-70854053D01*
X67019930Y-70970922D01*
X67015844Y-70984284D01*
X66995982Y-71111855D01*
X66995811Y-71125827D01*
X49002723Y-71125827D01*
X49004357Y-71116113D01*
X49005038Y-71108521D01*
X49005095Y-71103825D01*
X49004599Y-71096210D01*
X48985838Y-70965207D01*
X48981918Y-70951801D01*
X48928475Y-70834261D01*
X48926334Y-70830912D01*
X48918845Y-70826367D01*
X48915558Y-70826640D01*
X48913196Y-70828225D01*
X48652507Y-71088914D01*
X48646453Y-71100797D01*
X48352735Y-71100797D01*
X48353547Y-71099203D01*
X48352751Y-71094172D01*
X48090501Y-70831922D01*
X48078618Y-70825868D01*
X48075044Y-70826434D01*
X48065854Y-70833556D01*
X48064383Y-70831658D01*
X48035013Y-70855193D01*
X47973895Y-70858080D01*
X47944723Y-70839658D01*
X47943652Y-70841422D01*
X47918845Y-70826367D01*
X47915558Y-70826640D01*
X47913196Y-70828225D01*
X47652507Y-71088914D01*
X47646453Y-71100797D01*
X47352735Y-71100797D01*
X47353547Y-71099203D01*
X47352751Y-71094172D01*
X47090501Y-70831922D01*
X47078618Y-70825868D01*
X47076692Y-70826173D01*
X47074800Y-70829053D01*
X47019930Y-70945922D01*
X47015844Y-70959284D01*
X46995982Y-71086855D01*
X46995811Y-71100827D01*
X40300500Y-71100827D01*
X40300500Y-70684359D01*
X47229170Y-70684359D01*
X47233639Y-70692218D01*
X47488914Y-70947493D01*
X47500797Y-70953547D01*
X47505828Y-70952751D01*
X47764658Y-70693921D01*
X47769530Y-70684359D01*
X48229170Y-70684359D01*
X48233639Y-70692218D01*
X48488914Y-70947493D01*
X48500797Y-70953547D01*
X48505828Y-70952751D01*
X48749220Y-70709359D01*
X67229170Y-70709359D01*
X67233639Y-70717218D01*
X67488914Y-70972493D01*
X67500797Y-70978547D01*
X67505828Y-70977751D01*
X67764658Y-70718921D01*
X67769530Y-70709359D01*
X68229170Y-70709359D01*
X68233639Y-70717218D01*
X68488914Y-70972493D01*
X68500797Y-70978547D01*
X68505828Y-70977751D01*
X68764658Y-70718921D01*
X68770625Y-70707210D01*
X68764787Y-70700733D01*
X68717800Y-70670278D01*
X68705125Y-70664422D01*
X68581422Y-70627428D01*
X68567614Y-70625364D01*
X68438495Y-70624575D01*
X68424666Y-70626469D01*
X68300515Y-70661951D01*
X68287771Y-70667652D01*
X68237452Y-70699401D01*
X68229170Y-70709359D01*
X67769530Y-70709359D01*
X67770625Y-70707210D01*
X67764787Y-70700733D01*
X67717800Y-70670278D01*
X67705125Y-70664422D01*
X67581422Y-70627428D01*
X67567614Y-70625364D01*
X67438495Y-70624575D01*
X67424666Y-70626469D01*
X67300515Y-70661951D01*
X67287771Y-70667652D01*
X67237452Y-70699401D01*
X67229170Y-70709359D01*
X48749220Y-70709359D01*
X48764658Y-70693921D01*
X48770625Y-70682210D01*
X48764787Y-70675733D01*
X48717800Y-70645278D01*
X48705125Y-70639422D01*
X48581422Y-70602428D01*
X48567614Y-70600364D01*
X48438495Y-70599575D01*
X48424666Y-70601469D01*
X48300515Y-70636951D01*
X48287771Y-70642652D01*
X48237452Y-70674401D01*
X48229170Y-70684359D01*
X47769530Y-70684359D01*
X47770625Y-70682210D01*
X47764787Y-70675733D01*
X47717800Y-70645278D01*
X47705125Y-70639422D01*
X47581422Y-70602428D01*
X47567614Y-70600364D01*
X47438495Y-70599575D01*
X47424666Y-70601469D01*
X47300515Y-70636951D01*
X47287771Y-70642652D01*
X47237452Y-70674401D01*
X47229170Y-70684359D01*
X40300500Y-70684359D01*
X40300500Y-67500000D01*
X67494318Y-67500000D01*
X67514956Y-67656762D01*
X67575464Y-67802841D01*
X67671718Y-67928282D01*
X67797159Y-68024536D01*
X67943238Y-68085044D01*
X68100000Y-68105682D01*
X68256762Y-68085044D01*
X68402841Y-68024536D01*
X68528282Y-67928282D01*
X68624536Y-67802841D01*
X68685044Y-67656762D01*
X68705682Y-67500000D01*
X68685044Y-67343238D01*
X68624536Y-67197159D01*
X68528282Y-67071718D01*
X68402841Y-66975464D01*
X68256762Y-66914956D01*
X68100000Y-66894318D01*
X67943238Y-66914956D01*
X67797159Y-66975464D01*
X67671718Y-67071718D01*
X67575464Y-67197159D01*
X67514956Y-67343238D01*
X67494318Y-67500000D01*
X40300500Y-67500000D01*
X40300500Y-67153508D01*
X40300803Y-67149383D01*
X40302425Y-67144658D01*
X40300570Y-67095239D01*
X40300500Y-67091526D01*
X40300500Y-67072052D01*
X40299675Y-67067622D01*
X40299338Y-67062417D01*
X40298569Y-67041925D01*
X40298226Y-67032792D01*
X40294620Y-67024398D01*
X40294619Y-67024395D01*
X40293683Y-67022217D01*
X40287317Y-67001266D01*
X40285209Y-66989947D01*
X40271232Y-66967271D01*
X40264548Y-66954404D01*
X40256795Y-66936358D01*
X40256794Y-66936357D01*
X40254036Y-66929937D01*
X40250022Y-66925051D01*
X40245658Y-66920687D01*
X40231387Y-66902632D01*
X40231264Y-66902433D01*
X40226468Y-66894652D01*
X40203231Y-66876982D01*
X40193161Y-66868190D01*
X39924971Y-66600000D01*
X49394318Y-66600000D01*
X49414956Y-66756762D01*
X49475464Y-66902841D01*
X49571718Y-67028282D01*
X49697159Y-67124536D01*
X49843238Y-67185044D01*
X50000000Y-67205682D01*
X50156762Y-67185044D01*
X50302841Y-67124536D01*
X50428282Y-67028282D01*
X50524536Y-66902841D01*
X50585044Y-66756762D01*
X50605682Y-66600000D01*
X50585044Y-66443238D01*
X50524536Y-66297159D01*
X50428282Y-66171718D01*
X50302841Y-66075464D01*
X50156762Y-66014956D01*
X50000000Y-65994318D01*
X49843238Y-66014956D01*
X49697159Y-66075464D01*
X49571718Y-66171718D01*
X49475464Y-66297159D01*
X49414956Y-66443238D01*
X49394318Y-66600000D01*
X39924971Y-66600000D01*
X38329496Y-65004525D01*
X38301719Y-64950008D01*
X38300500Y-64934521D01*
X38300500Y-63500000D01*
X58694318Y-63500000D01*
X58714956Y-63656762D01*
X58775464Y-63802841D01*
X58871718Y-63928282D01*
X58997159Y-64024536D01*
X59143238Y-64085044D01*
X59300000Y-64105682D01*
X59456762Y-64085044D01*
X59602841Y-64024536D01*
X59728282Y-63928282D01*
X59824536Y-63802841D01*
X59885044Y-63656762D01*
X59905682Y-63500000D01*
X59885044Y-63343238D01*
X59824536Y-63197159D01*
X59728282Y-63071718D01*
X59602841Y-62975464D01*
X59456762Y-62914956D01*
X59300000Y-62894318D01*
X59143238Y-62914956D01*
X58997159Y-62975464D01*
X58871718Y-63071718D01*
X58775464Y-63197159D01*
X58714956Y-63343238D01*
X58694318Y-63500000D01*
X38300500Y-63500000D01*
X38300500Y-62265479D01*
X38319407Y-62207288D01*
X38329496Y-62195475D01*
X39824971Y-60700000D01*
X54494318Y-60700000D01*
X54514956Y-60856762D01*
X54575464Y-61002841D01*
X54671718Y-61128282D01*
X54797159Y-61224536D01*
X54943238Y-61285044D01*
X55100000Y-61305682D01*
X55256762Y-61285044D01*
X55402841Y-61224536D01*
X55528282Y-61128282D01*
X55624536Y-61002841D01*
X55685044Y-60856762D01*
X55705682Y-60700000D01*
X64294318Y-60700000D01*
X64314956Y-60856762D01*
X64375464Y-61002841D01*
X64471718Y-61128282D01*
X64597159Y-61224536D01*
X64743238Y-61285044D01*
X64900000Y-61305682D01*
X65056762Y-61285044D01*
X65202841Y-61224536D01*
X65328282Y-61128282D01*
X65424536Y-61002841D01*
X65485044Y-60856762D01*
X65505682Y-60700000D01*
X65485044Y-60543238D01*
X65424536Y-60397159D01*
X65328282Y-60271718D01*
X65202841Y-60175464D01*
X65056762Y-60114956D01*
X64900000Y-60094318D01*
X64743238Y-60114956D01*
X64597159Y-60175464D01*
X64471718Y-60271718D01*
X64375464Y-60397159D01*
X64314956Y-60543238D01*
X64294318Y-60700000D01*
X55705682Y-60700000D01*
X55685044Y-60543238D01*
X55624536Y-60397159D01*
X55528282Y-60271718D01*
X55402841Y-60175464D01*
X55256762Y-60114956D01*
X55100000Y-60094318D01*
X54943238Y-60114956D01*
X54797159Y-60175464D01*
X54671718Y-60271718D01*
X54575464Y-60397159D01*
X54514956Y-60543238D01*
X54494318Y-60700000D01*
X39824971Y-60700000D01*
X40174651Y-60350320D01*
X40177780Y-60347620D01*
X40182269Y-60345425D01*
X40215893Y-60309178D01*
X40218469Y-60306502D01*
X40232248Y-60292723D01*
X40234793Y-60289013D01*
X40238229Y-60285100D01*
X40252185Y-60270055D01*
X40258401Y-60263354D01*
X40262666Y-60252664D01*
X40272980Y-60233348D01*
X40274321Y-60231393D01*
X40274322Y-60231390D01*
X40279492Y-60223854D01*
X40285641Y-60197941D01*
X40290014Y-60184116D01*
X40297294Y-60165868D01*
X40297294Y-60165866D01*
X40299883Y-60159378D01*
X40300500Y-60153085D01*
X40300500Y-60146916D01*
X40303175Y-60124057D01*
X40303230Y-60123827D01*
X40303230Y-60123825D01*
X40305340Y-60114934D01*
X40301404Y-60086012D01*
X40300500Y-60072663D01*
X40300500Y-59600000D01*
X49794318Y-59600000D01*
X49814956Y-59756762D01*
X49875464Y-59902841D01*
X49971718Y-60028282D01*
X50097159Y-60124536D01*
X50243238Y-60185044D01*
X50400000Y-60205682D01*
X50556762Y-60185044D01*
X50702841Y-60124536D01*
X50828282Y-60028282D01*
X50924536Y-59902841D01*
X50985044Y-59756762D01*
X51005682Y-59600000D01*
X50985044Y-59443238D01*
X50924536Y-59297159D01*
X50828282Y-59171718D01*
X50702841Y-59075464D01*
X50556762Y-59014956D01*
X50400000Y-58994318D01*
X50243238Y-59014956D01*
X50097159Y-59075464D01*
X49971718Y-59171718D01*
X49875464Y-59297159D01*
X49814956Y-59443238D01*
X49794318Y-59600000D01*
X40300500Y-59600000D01*
X40300500Y-56210262D01*
X40704520Y-56210262D01*
X40721759Y-56415553D01*
X40778544Y-56613586D01*
X40872712Y-56796818D01*
X41000677Y-56958270D01*
X41004357Y-56961402D01*
X41004359Y-56961404D01*
X41117017Y-57057283D01*
X41157564Y-57091791D01*
X41161787Y-57094151D01*
X41161791Y-57094154D01*
X41250383Y-57143666D01*
X41337398Y-57192297D01*
X41341996Y-57193791D01*
X41528724Y-57254463D01*
X41528726Y-57254464D01*
X41533329Y-57255959D01*
X41737894Y-57280351D01*
X41742716Y-57279980D01*
X41742719Y-57279980D01*
X41819757Y-57274052D01*
X41943300Y-57264546D01*
X42141725Y-57209145D01*
X42146038Y-57206966D01*
X42146044Y-57206964D01*
X42321289Y-57118441D01*
X42321291Y-57118440D01*
X42325610Y-57116258D01*
X42359424Y-57089840D01*
X43250000Y-57089840D01*
X43250948Y-57099462D01*
X43259702Y-57143474D01*
X43267021Y-57161142D01*
X43300389Y-57211082D01*
X43313918Y-57224611D01*
X43363858Y-57257979D01*
X43381526Y-57265298D01*
X43425538Y-57274052D01*
X43435160Y-57275000D01*
X44184320Y-57275000D01*
X44197005Y-57270878D01*
X44200000Y-57266757D01*
X44200000Y-57259320D01*
X44400000Y-57259320D01*
X44404122Y-57272005D01*
X44408243Y-57275000D01*
X45164840Y-57275000D01*
X45174462Y-57274052D01*
X45218474Y-57265298D01*
X45236142Y-57257979D01*
X45286082Y-57224611D01*
X45299611Y-57211082D01*
X45332979Y-57161142D01*
X45340298Y-57143474D01*
X45349052Y-57099462D01*
X45350000Y-57089840D01*
X45350000Y-56340680D01*
X45345878Y-56327995D01*
X45341757Y-56325000D01*
X44415680Y-56325000D01*
X44402995Y-56329122D01*
X44400000Y-56333243D01*
X44400000Y-57259320D01*
X44200000Y-57259320D01*
X44200000Y-56340680D01*
X44195878Y-56327995D01*
X44191757Y-56325000D01*
X43265680Y-56325000D01*
X43252995Y-56329122D01*
X43250000Y-56333243D01*
X43250000Y-57089840D01*
X42359424Y-57089840D01*
X42360943Y-57088653D01*
X42484135Y-56992406D01*
X42484139Y-56992402D01*
X42487951Y-56989424D01*
X42622564Y-56833472D01*
X42641231Y-56800613D01*
X42721934Y-56658550D01*
X42721935Y-56658547D01*
X42724323Y-56654344D01*
X42737882Y-56613586D01*
X42787824Y-56463454D01*
X42787824Y-56463452D01*
X42789351Y-56458863D01*
X42815171Y-56254474D01*
X42815583Y-56225000D01*
X42805778Y-56125000D01*
X42804241Y-56109320D01*
X43250000Y-56109320D01*
X43254122Y-56122005D01*
X43258243Y-56125000D01*
X44184320Y-56125000D01*
X44197005Y-56120878D01*
X44200000Y-56116757D01*
X44200000Y-56109320D01*
X44400000Y-56109320D01*
X44404122Y-56122005D01*
X44408243Y-56125000D01*
X45334320Y-56125000D01*
X45347005Y-56120878D01*
X45350000Y-56116757D01*
X45350000Y-55360160D01*
X45349052Y-55350538D01*
X45340298Y-55306526D01*
X45332979Y-55288858D01*
X45299611Y-55238918D01*
X45286082Y-55225389D01*
X45236142Y-55192021D01*
X45218474Y-55184702D01*
X45174462Y-55175948D01*
X45164840Y-55175000D01*
X44415680Y-55175000D01*
X44402995Y-55179122D01*
X44400000Y-55183243D01*
X44400000Y-56109320D01*
X44200000Y-56109320D01*
X44200000Y-55190680D01*
X44195878Y-55177995D01*
X44191757Y-55175000D01*
X43435160Y-55175000D01*
X43425538Y-55175948D01*
X43381526Y-55184702D01*
X43363858Y-55192021D01*
X43313918Y-55225389D01*
X43300389Y-55238918D01*
X43267021Y-55288858D01*
X43259702Y-55306526D01*
X43250948Y-55350538D01*
X43250000Y-55360160D01*
X43250000Y-56109320D01*
X42804241Y-56109320D01*
X42795952Y-56024780D01*
X42795951Y-56024776D01*
X42795480Y-56019970D01*
X42735935Y-55822749D01*
X42639218Y-55640849D01*
X42509011Y-55481200D01*
X42362639Y-55360110D01*
X42354002Y-55352965D01*
X42354000Y-55352964D01*
X42350275Y-55349882D01*
X42169055Y-55251897D01*
X42099764Y-55230448D01*
X41976875Y-55192407D01*
X41976871Y-55192406D01*
X41972254Y-55190977D01*
X41967446Y-55190472D01*
X41967443Y-55190471D01*
X41772185Y-55169949D01*
X41772183Y-55169949D01*
X41767369Y-55169443D01*
X41711800Y-55174500D01*
X41567022Y-55187675D01*
X41567017Y-55187676D01*
X41562203Y-55188114D01*
X41364572Y-55246280D01*
X41360288Y-55248519D01*
X41360287Y-55248520D01*
X41349428Y-55254197D01*
X41182002Y-55341726D01*
X41178231Y-55344758D01*
X41025220Y-55467781D01*
X41025217Y-55467783D01*
X41021447Y-55470815D01*
X41018333Y-55474526D01*
X41018332Y-55474527D01*
X41009585Y-55484952D01*
X40889024Y-55628630D01*
X40886689Y-55632878D01*
X40886688Y-55632879D01*
X40879955Y-55645126D01*
X40789776Y-55809162D01*
X40727484Y-56005532D01*
X40726944Y-56010344D01*
X40726944Y-56010345D01*
X40714084Y-56125000D01*
X40704520Y-56210262D01*
X40300500Y-56210262D01*
X40300500Y-52899500D01*
X40319407Y-52841309D01*
X40368907Y-52805345D01*
X40399500Y-52800500D01*
X40918488Y-52800500D01*
X40976679Y-52819407D01*
G37*
G04 #@! TD.AperFunction*
M02*
